<svg xmlns="http://www.w3.org/2000/svg" width="35" height="32" fill="none" viewBox="0 0 35 32">
  <path fill="#252C3D" d="M27.708 14.321H10.413l5.293-5.676a1.21 1.21 0 0 0 .331-.953 1.267 1.267 0 0 0-.52-.883 1.581 1.581 0 0 0-1.068-.296 1.52 1.52 0 0 0-.989.465L6.17 14.79c-.05.062-.093.127-.132.195 0 .065 0 .104-.102.17-.066.149-.1.308-.102.468.002.16.036.32.102.469 0 .065 0 .104.102.169.039.068.083.133.132.195l7.291 7.812c.137.147.31.265.503.346.194.08.406.123.62.122a1.57 1.57 0 0 0 .934-.299c.147-.11.27-.244.359-.395a1.17 1.17 0 0 0 .103-.994 1.268 1.268 0 0 0-.273-.447l-5.293-5.676h17.295c.387 0 .758-.137 1.032-.381a1.24 1.24 0 0 0 .427-.921c0-.345-.154-.676-.428-.92a1.552 1.552 0 0 0-1.03-.382Z"/>
</svg>
