<svg xmlns="http://www.w3.org/2000/svg" width="30" height="32" fill="none" viewBox="0 0 30 32">
  <path fill="#C2C4CC" d="M16.25 2.641c-2.956-.3-5.916.522-8.35 2.318-2.435 1.796-4.185 4.45-4.937 7.485a13.891 13.891 0 0 0 .832 9.08c1.29 2.826 3.49 5.075 6.205 6.344a12.123 12.123 0 0 0 5 1.189c2.747 0 5.419-.956 7.6-2.721a1.377 1.377 0 0 0 .237-1.85 1.292 1.292 0 0 0-.366-.345 1.206 1.206 0 0 0-.956-.136c-.16.046-.31.124-.44.23a9.732 9.732 0 0 1-4.415 1.998 9.49 9.49 0 0 1-4.787-.41 9.949 9.949 0 0 1-4.055-2.719 10.727 10.727 0 0 1-2.387-4.403 11.145 11.145 0 0 1-.17-5.072 10.824 10.824 0 0 1 2.09-4.57 10.057 10.057 0 0 1 3.863-3.013c1.5-.658 3.13-.92 4.748-.763 2.511.307 4.825 1.587 6.495 3.592 1.669 2.006 2.575 4.594 2.543 7.265v.898c-.001.303-.06.603-.174.882-.114.278-.28.53-.487.74-.208.21-.453.372-.722.48a2.033 2.033 0 0 1-.842.143 2.24 2.24 0 0 1-1.475-.82 2.49 2.49 0 0 1-.55-1.663v-5.706c0-.35-.132-.686-.366-.934a1.217 1.217 0 0 0-1.715-.062 1.34 1.34 0 0 0-.419.825c-1.163-1.158-2.702-1.8-4.3-1.797a6.102 6.102 0 0 0-3.096.878 6.54 6.54 0 0 0-2.298 2.362 7.002 7.002 0 0 0-.917 3.245 7.04 7.04 0 0 0 .698 3.306 6.614 6.614 0 0 0 2.134 2.527 6.065 6.065 0 0 0 6.186.512 6.45 6.45 0 0 0 2.48-2.145 4.629 4.629 0 0 0 1.415 1.465 4.343 4.343 0 0 0 1.873.68 4.275 4.275 0 0 0 1.968-.234 4.472 4.472 0 0 0 1.682-1.105 4.862 4.862 0 0 0 1.067-1.632 5.085 5.085 0 0 0 .358-1.947v-.898c.028-3.32-1.105-6.533-3.18-9.024-2.077-2.49-4.95-4.084-8.07-4.475Zm-2.275 17.29c-.764 0-1.51-.24-2.146-.689a4.041 4.041 0 0 1-1.423-1.831 4.297 4.297 0 0 1-.22-2.358 4.157 4.157 0 0 1 1.058-2.09c.54-.57 1.228-.96 1.978-1.117a3.67 3.67 0 0 1 2.231.232 3.917 3.917 0 0 1 1.733 1.504c.425.67.651 1.46.651 2.267a4.214 4.214 0 0 1-1.134 2.882 3.774 3.774 0 0 1-2.728 1.2Z"/>
</svg>
