<svg xmlns="http://www.w3.org/2000/svg" width="35" height="40" fill="none" viewBox="0 0 53 53">
  <g filter="url(#a)">
    <circle cx="26.5" cy="22.5" r="22.5" fill="#2046D2"/>
    <path fill="#fff" d="M37.595 21.517h-8.903v-7.318c0-.324-.157-.634-.435-.863a1.661 1.661 0 0 0-1.05-.357c-.393 0-.77.128-1.049.357-.278.229-.434.54-.434.863v7.318H16.82a1.66 1.66 0 0 0-1.05.357c-.278.229-.434.54-.434.863 0 .323.156.634.434.862a1.66 1.66 0 0 0 1.05.357h8.904v7.319c0 .323.156.634.434.862.279.23.656.358 1.05.358.393 0 .77-.129 1.049-.358.278-.228.435-.539.435-.862v-7.319h8.903c.394 0 .771-.128 1.05-.357.278-.229.434-.539.434-.862 0-.324-.156-.634-.434-.863a1.661 1.661 0 0 0-1.05-.357Z"/>
  </g>
  <defs>
    <filter id="a" width="53" height="53" x="0" y="0" color-interpolation-filters="sRGB" filterUnits="userSpaceOnUse">
      <feFlood flood-opacity="0" result="BackgroundImageFix"/>
      <feColorMatrix in="SourceAlpha" result="hardAlpha" values="0 0 0 0 0 0 0 0 0 0 0 0 0 0 0 0 0 0 127 0"/>
      <feOffset dy="4"/>
      <feGaussianBlur stdDeviation="2"/>
      <feComposite in2="hardAlpha" operator="out"/>
      <feColorMatrix values="0 0 0 0 0 0 0 0 0 0 0 0 0 0 0 0 0 0 0.25 0"/>
      <feBlend in2="BackgroundImageFix" result="effect1_dropShadow_52_1691"/>
      <feBlend in="SourceGraphic" in2="effect1_dropShadow_52_1691" result="shape"/>
    </filter>
  </defs>
</svg>
