<svg xmlns="http://www.w3.org/2000/svg" width="350" height="350" fill="none" viewBox="0 0 350 350">
  <path fill="#F0F0F0" d="M175 334.551c91.079 0 164.913-42.629 164.913-95.214S266.079 144.123 175 144.123c-91.079 0-164.913 42.629-164.913 95.214S83.921 334.551 175 334.551Z"/>
  <path fill="#E0E0E0" d="M140.875 311.486c31.407 0 56.868-14.699 56.868-32.83 0-18.132-25.461-32.83-56.868-32.83-31.407 0-56.868 14.698-56.868 32.83 0 18.131 25.461 32.83 56.868 32.83Z"/>
  <path fill="#407BFF" d="m302.596 237.58-6.671-3.85s-1.631-14.28-.546-25.34c1.526-15.54 11.564-34.244 23.534-29.848 11.97 4.396-5.488 20.216-9.373 33.397-3.885 13.181-6.944 25.641-6.944 25.641Z"/>
  <path fill="#000" d="m302.596 237.58-6.671-3.85s-1.631-14.28-.546-25.34c1.526-15.54 11.564-34.244 23.534-29.848 11.97 4.396-5.488 20.216-9.373 33.397-3.885 13.181-6.944 25.641-6.944 25.641Z" opacity=".15"/>
  <path fill="#fff" d="M299.089 235.963a.406.406 0 0 0 .385-.42c-1.169-34.531 16.023-51.905 16.191-52.073a.406.406 0 0 0-.283-.692.396.396 0 0 0-.284.118c-.182.168-17.619 17.794-16.436 52.675a.401.401 0 0 0 .131.286.41.41 0 0 0 .296.106Z"/>
  <path fill="#407BFF" d="m306.789 239.981-4.746-2.737s-.812-9.8 3.997-21.7c4.2-10.36 14.56-18.963 19.782-17.157 5.222 1.806 5.089 5.509 2.541 9.394-2.548 3.885-18.025 13.132-21.574 32.2Z"/>
  <path fill="#fff" d="M304.283 238.945a.413.413 0 0 0 .406-.406c-.098-21.84 20.405-36.596 20.615-36.743a.39.39 0 0 0 .091-.56.405.405 0 0 0-.56-.098c-.21.147-21.049 15.155-20.958 37.401a.406.406 0 0 0 .406.406Z"/>
  <path fill="#407BFF" d="m55.762 229.005 6.16-4.158s2.709-16.1.189-30.303C58.569 174.622 44.8 168 39.9 170.1c-4.9 2.1-5.95 8.029 3.199 19.397 5.425 6.685 12.474 20.958 12.663 39.508Z"/>
  <path fill="#000" d="m55.762 229.005 6.16-4.158s2.709-16.1.189-30.303C58.569 174.622 44.8 168 39.9 170.1c-4.9 2.1-5.95 8.029 3.199 19.397 5.425 6.685 12.474 20.958 12.663 39.508Z" opacity=".15"/>
  <path fill="#fff" d="M57.876 221.025h-.063a.45.45 0 0 1-.413-.525c2.226-18.753-5.691-39.109-14.308-47.208a.448.448 0 0 1 .315-.762.436.436 0 0 1 .315.132c8.778 8.246 16.842 28.938 14.588 47.964a.455.455 0 0 1-.434.399Z"/>
  <path fill="#407BFF" d="M39.634 239.883c-.98.588-3.836-1.533-4.627-2.044a9.405 9.405 0 0 1-3.206-3.542 8.848 8.848 0 0 1-.889-5.292c.143-.946.352-1.882.623-2.8.245-.917.49-1.834.7-2.758.31-.899.43-1.852.35-2.8-.273-1.869-1.96-3.15-3.5-4.249-1.694-1.225-3.5-2.842-3.5-5.096a7.923 7.923 0 0 1 1.925-4.802c1.05-1.4 2.31-2.618 3.255-4.081a5.6 5.6 0 0 0 1.071-3.5 5.825 5.825 0 0 0-.812-2.177c-.826-1.456-1.897-2.8-2.478-4.347-.581-1.547-.539-3.535.7-4.69.987-.945 2.492-1.099 3.857-1.036a8.844 8.844 0 0 1 3.64 1.197c3.619 1.925 5.747 6.125 9.576 7.588 1.477.56 3.087.658 4.62 1.036s3.115 1.127 3.85 2.52c1.449 2.765-1.078 6.251-.042 9.184.924 2.604 3.5 3.556 4.956 5.887a5.6 5.6 0 0 1 .7 3.416 16.347 16.347 0 0 1-1.323 5.803 51.138 51.138 0 0 1-3.08 5.53s-16.219 10.962-16.366 11.053Z"/>
  <path fill="#fff" d="M49.098 234.08a.438.438 0 0 1-.315-.136.443.443 0 0 1-.126-.319c.392-17.724-8.33-37.1-14.504-42.7a.449.449 0 0 1-.035-.63.444.444 0 0 1 .486-.098.444.444 0 0 1 .144.098c6.3 5.67 15.197 25.382 14.798 43.351a.439.439 0 0 1-.448.434Z"/>
  <path fill="#fff" d="M45.829 212.485a.268.268 0 0 1-.126 0c-5.726-1.652-12.824-1.82-12.894-1.827a.433.433 0 0 1-.312-.137.434.434 0 0 1-.122-.318.425.425 0 0 1 .455-.434c.07 0 7.28.175 13.118 1.855a.446.446 0 0 1 .301.553.436.436 0 0 1-.42.308Z"/>
  <path fill="#455A64" d="m210.812 216.818-2.653-1.533a3.34 3.34 0 0 1-1.519-2.625V102.396a3.366 3.366 0 0 1 1.512-2.625l73.745-42.574a3.355 3.355 0 0 1 3.031 0l2.653 1.533a3.346 3.346 0 0 1 1.519 2.625v110.264a3.366 3.366 0 0 1-1.512 2.625l-73.745 42.581a3.328 3.328 0 0 1-3.031-.007Z"/>
  <path fill="#455A64" d="M289.1 61.11c-.105-.784-.742-1.071-1.505-.63l-73.752 42.581c-.446.28-.814.667-1.071 1.127l-5.691-3.283a3.099 3.099 0 0 1 1.071-1.134l73.745-42.574a3.354 3.354 0 0 1 3.031 0l2.653 1.533a3.377 3.377 0 0 1 1.519 2.38Z"/>
  <path fill="#263238" d="M213.584 216.944c-.448.182-.93.265-1.413.244a3.37 3.37 0 0 1-1.387-.363l-2.66-1.54a3.366 3.366 0 0 1-1.512-2.625V102.396c.018-.526.17-1.039.441-1.491l5.691 3.283a3.053 3.053 0 0 0-.448 1.498V215.95c.028.868.574 1.267 1.288.994Z"/>
  <path fill="#37474F" d="M212.324 105.7v110.25c0 .966.7 1.358 1.519.875l73.745-42.581c.44-.289.806-.677 1.069-1.132.262-.456.414-.968.443-1.493V61.355c0-.966-.7-1.358-1.512-.875l-73.745 42.581a3.34 3.34 0 0 0-1.519 2.639Z"/>
  <path fill="#455A64" d="M195.104 147.7c-.952-.567-5.369-3.08-5.6-3.213a1.396 1.396 0 0 1-.301-2.163l17.437-18.704 5.684 3.262-17.43 18.718a1.397 1.397 0 0 0-.19 1.662c.101.173.237.322.4.438Z"/>
  <path fill="#37474F" d="m212.324 126.903-17.43 18.697a1.4 1.4 0 0 0 1.141 2.352l16.289-1.344v-19.705Z"/>
  <path fill="#407BFF" d="M250.712 93.24c8.596-4.963 15.561-.938 15.561 8.988s-6.965 21.987-15.561 26.95c-8.596 4.963-15.561.938-15.561-8.981s6.965-21.994 15.561-26.957Z"/>
  <path fill="#fff" d="M250.6 101.052c2.8-1.61 5.047-.308 5.047 2.912a11.15 11.15 0 0 1-5.047 8.736c-2.8 1.61-5.054.308-5.054-2.912a11.153 11.153 0 0 1 5.054-8.736Zm9.954 17.164c0-5.285-3.717-7.434-8.295-4.788l-2.863 1.652c-4.578 2.646-8.295 9.1-8.295 14.371v1.449a8.697 8.697 0 0 0 2.674.413 14.089 14.089 0 0 0 6.937-2.1 30.664 30.664 0 0 0 9.842-9.73v-1.267Z"/>
  <path fill="#407BFF" d="m240.856 178.311 19.712-11.382c.84-.483 1.519-.091 1.519.875v6.349a3.35 3.35 0 0 1-1.519 2.625l-19.712 11.382c-.84.483-1.519.091-1.519-.875v-6.349a3.337 3.337 0 0 1 1.519-2.625Z"/>
  <path fill="#FAFAFA" d="m231.203 164.129 38.997-22.526c1.001-.581 1.82-.112 1.82 1.05v2.359a4.023 4.023 0 0 1-1.82 3.15l-39.018 22.526c-1.001.581-1.813.112-1.813-1.05V167.3a4.01 4.01 0 0 1 1.834-3.171Zm4.564-16.303c.532-.308.945-.357 1.239-.14.294.217.441.7.441 1.442a4.147 4.147 0 0 1-.441 1.953c-.275.547-.706 1-1.239 1.302l-1.05.609v2.261a.53.53 0 0 1-.056.224.328.328 0 0 1-.126.154l-.532.308a.102.102 0 0 1-.063.021.102.102 0 0 1-.063-.021.231.231 0 0 1-.049-.168v-6.545a.511.511 0 0 1 .049-.224.35.35 0 0 1 .126-.154l1.764-1.022Zm-1.05 3.899 1.015-.588c.245-.138.452-.336.602-.574.159-.281.237-.601.224-.924 0-.378-.077-.595-.224-.658a.707.707 0 0 0-.602.133l-1.015.588v2.023Zm5.663-6.566c.07-.042.126-.042.161 0a.54.54 0 0 1 .091.21l1.617 5.474v.063a.499.499 0 0 1-.056.224.328.328 0 0 1-.126.154l-.476.273c-.084.049-.147.056-.182 0a.281.281 0 0 1-.07-.126l-.287-.959-2.1 1.204-.28 1.288c-.02.07-.046.138-.077.203a.382.382 0 0 1-.182.196l-.476.273a.098.098 0 0 1-.126 0 .223.223 0 0 1-.049-.161.249.249 0 0 1 0-.077l1.61-7.336c.019-.108.05-.213.091-.315a.385.385 0 0 1 .161-.175l.756-.413Zm.364 4.242-.7-2.471-.7 3.304 1.4-.833Zm3.955-6.839c.234-.148.501-.237.777-.259a.932.932 0 0 1 .56.126.91.91 0 0 1 .343.413c.076.172.119.358.126.546a.416.416 0 0 1-.049.224.328.328 0 0 1-.126.154l-.462.266c-.077.042-.133.049-.168 0a.34.34 0 0 1-.105-.112.52.52 0 0 0-.294-.273.81.81 0 0 0-.602.154 2.554 2.554 0 0 0-.322.245 1.712 1.712 0 0 0-.455.686 1.185 1.185 0 0 0-.063.378.698.698 0 0 0 .063.343.27.27 0 0 0 .088.093.267.267 0 0 0 .122.04c.13.022.262.022.392 0l.609-.133c.227-.067.464-.096.7-.084a.778.778 0 0 1 .469.154.835.835 0 0 1 .266.413c.069.227.099.463.091.7a3.319 3.319 0 0 1-.133.924c-.086.309-.21.605-.371.882-.17.284-.372.547-.602.784a3.598 3.598 0 0 1-.798.623 2.163 2.163 0 0 1-.7.273c-.201.039-.41.022-.602-.049a.906.906 0 0 1-.413-.385 1.57 1.57 0 0 1-.182-.7.539.539 0 0 1 .049-.231.392.392 0 0 1 .133-.147l.462-.266c.07-.042.126-.056.168-.035.042.021.07.056.098.119.029.072.066.14.112.203a.368.368 0 0 0 .175.133.63.63 0 0 0 .28 0c.149-.035.29-.094.42-.175a2.61 2.61 0 0 0 .385-.266c.235-.186.423-.426.546-.7.056-.14.085-.29.084-.441a.398.398 0 0 0-.091-.308.357.357 0 0 0-.28-.084 1.964 1.964 0 0 0-.469.077c-.182.042-.392.091-.637.133a1.682 1.682 0 0 1-.574.042.66.66 0 0 1-.406-.175.898.898 0 0 1-.245-.434 3.033 3.033 0 0 1-.077-.742c0-.308.044-.615.133-.91.083-.304.206-.596.364-.868.151-.271.335-.522.546-.749.192-.231.416-.434.665-.602Zm4.599-2.646c.233-.152.5-.244.777-.266a.946.946 0 0 1 .56.126.943.943 0 0 1 .336.413c.076.172.119.358.126.546a.365.365 0 0 1-.049.224.328.328 0 0 1-.126.154l-.462.266c-.07.042-.126.056-.168 0a.243.243 0 0 1-.098-.119.557.557 0 0 0-.301-.266.786.786 0 0 0-.595.154 2.179 2.179 0 0 0-.329.245 1.676 1.676 0 0 0-.266.322 1.494 1.494 0 0 0-.182.364 1.187 1.187 0 0 0-.07.378.698.698 0 0 0 .063.343.27.27 0 0 0 .088.093.267.267 0 0 0 .122.04c.13.023.262.023.392 0l.609-.133c.228-.063.464-.092.7-.084a.77.77 0 0 1 .469.154.89.89 0 0 1 .273.413c.062.228.09.464.084.7a3.319 3.319 0 0 1-.133.924c-.086.309-.21.605-.371.882a4.215 4.215 0 0 1-.602.791 3.938 3.938 0 0 1-.791.616 2.186 2.186 0 0 1-.7.273 1.117 1.117 0 0 1-.595-.049.887.887 0 0 1-.42-.385 1.485 1.485 0 0 1-.175-.7.365.365 0 0 1 .049-.224.328.328 0 0 1 .126-.154l.462-.266c.07-.042.133-.056.168-.035a.174.174 0 0 1 .098.119c.032.071.069.139.112.203a.385.385 0 0 0 .182.133.63.63 0 0 0 .28 0c.149-.035.29-.094.42-.175.132-.079.259-.168.378-.266.123-.096.231-.209.322-.336.091-.121.166-.253.224-.392.056-.14.085-.29.084-.441a.398.398 0 0 0-.091-.308.357.357 0 0 0-.28-.084c-.156.01-.311.035-.462.077-.182.042-.399.091-.637.133-.19.047-.386.061-.581.042a.636.636 0 0 1-.406-.175.89.89 0 0 1-.238-.434 2.64 2.64 0 0 1-.084-.735c.002-.31.047-.619.133-.917.087-.303.209-.594.364-.868.151-.272.337-.524.553-.749a2.79 2.79 0 0 1 .658-.567Zm5.103.875-.567 3.353a1.371 1.371 0 0 1-.084.294.357.357 0 0 1-.147.182l-.532.308c-.07.042-.119.042-.154 0a.344.344 0 0 1-.077-.203l-.84-5.915v-.077a.53.53 0 0 1 .056-.224.358.358 0 0 1 .126-.154l.483-.28a.171.171 0 0 1 .126 0c.042 0 .07.056.084.168l.553 3.983.483-2.989c.013-.075.034-.147.063-.217a.373.373 0 0 1 .168-.21l.539-.315c.077-.042.133-.035.168 0 .03.045.052.094.063.147l.49 2.429.553-4.62a.638.638 0 0 1 .077-.259.47.47 0 0 1 .126-.133l.483-.28a.102.102 0 0 1 .063-.021c.023 0 .045.007.063.021.02.023.035.05.045.078a.25.25 0 0 1 .011.09.393.393 0 0 1 0 .084l-.84 6.881a1.3 1.3 0 0 1-.077.294.408.408 0 0 1-.154.182l-.539.308c-.063.035-.112.035-.147 0a.976.976 0 0 1-.084-.203l-.581-2.702Zm3.276-2.968a7.13 7.13 0 0 1 .14-1.155c.08-.372.202-.734.364-1.078a4.18 4.18 0 0 1 .588-.931c.239-.281.526-.518.847-.7.247-.167.535-.262.833-.273.222.002.435.09.595.245.17.191.292.418.357.665.09.321.14.653.147.987v1.82c-.015.386-.062.77-.14 1.148a5.452 5.452 0 0 1-.357 1.078 4.476 4.476 0 0 1-.595.931 3.306 3.306 0 0 1-.84.7 1.67 1.67 0 0 1-.847.273.805.805 0 0 1-.588-.238 1.477 1.477 0 0 1-.364-.7 4.51 4.51 0 0 1-.14-.987v-1.386c0-.161-.007-.273 0-.399Zm2.982-1.673a1.269 1.269 0 0 0-.308-.952c-.182-.161-.434-.154-.735 0a1.834 1.834 0 0 0-.742.826 3.046 3.046 0 0 0-.308 1.309v1.708a1.275 1.275 0 0 0 .308.952c.182.154.434.14.742-.035a1.88 1.88 0 0 0 .735-.819c.199-.406.304-.85.308-1.302v-.868c0-.315.007-.567 0-.819Zm3.941-4.984c.553-.315.966-.364 1.253-.133a1.714 1.714 0 0 1 .427 1.4c.006.475-.068.949-.217 1.4-.142.42-.363.81-.651 1.148l.91 1.981a.535.535 0 0 1 0 .098.412.412 0 0 1-.042.182.271.271 0 0 1-.098.126l-.56.322c-.091.049-.154.056-.196 0a.471.471 0 0 1-.091-.126l-.861-1.869-.875.504v2.366a.511.511 0 0 1-.049.224.41.41 0 0 1-.126.154l-.532.308a.098.098 0 0 1-.126 0 .212.212 0 0 1-.056-.161v-6.545a.53.53 0 0 1 .056-.224.328.328 0 0 1 .126-.154l1.708-1.001Zm-.987 3.766.987-.532c.241-.135.447-.324.602-.553.162-.27.24-.582.224-.896 0-.378-.077-.588-.224-.63a.825.825 0 0 0-.602.154l-.952.546-.035 1.911Zm5.677-6.461a1.85 1.85 0 0 1 .847-.294.842.842 0 0 1 .595.217c.185.195.314.437.371.7.094.347.146.704.154 1.064v1.505a6.984 6.984 0 0 1-.154 1.239c-.08.379-.202.747-.364 1.099a4.126 4.126 0 0 1-.588.896 3.225 3.225 0 0 1-.826.7l-1.659.903a.098.098 0 0 1-.126 0 .205.205 0 0 1-.056-.161v-6.545a.53.53 0 0 1 .056-.224.328.328 0 0 1 .126-.154l1.624-.945Zm1.078 2.177a2.12 2.12 0 0 0-.084-.56.766.766 0 0 0-.203-.364.463.463 0 0 0-.336-.133c-.175.012-.344.07-.49.168l-.882.504v4.564l.917-.525a1.82 1.82 0 0 0 .469-.392c.13-.154.241-.323.329-.504.087-.193.153-.395.196-.602.049-.216.077-.437.084-.658.021-.511.021-1.008 0-1.498Z"/>
  <path fill="#407BFF" d="M173.166 26.873a13.14 13.14 0 0 1 3.458 1.302 9.94 9.94 0 0 1 2.751 2.184 7.889 7.889 0 0 1 1.624 2.94c.33 1.162.354 2.39.07 3.563a7.25 7.25 0 0 1-1.085 2.604 8.876 8.876 0 0 1-1.708 1.792c-.639.496-1.32.934-2.037 1.309l-2.016 1.071c-.607.317-1.184.69-1.722 1.113a3.3 3.3 0 0 0-1.078 1.449c-.107.262-.283.49-.511.658a.899.899 0 0 1-.77.161l-2.968-.658a1.105 1.105 0 0 1-.7-.483.9.9 0 0 1-.133-.805 7.08 7.08 0 0 1 1.239-2.534 9.897 9.897 0 0 1 1.82-1.771 14.644 14.644 0 0 1 2.1-1.281c.7-.357 1.4-.7 2.009-1.043a9.126 9.126 0 0 0 1.589-1.085c.43-.36.728-.852.847-1.4a3.027 3.027 0 0 0-.7-2.716 5.428 5.428 0 0 0-3.108-1.687c-2.212-.49-4.079.254-5.6 2.233a2.152 2.152 0 0 1-.546.553c-.242.12-.521.14-.777.056l-3.157-.7a.868.868 0 0 1-.689-.701.855.855 0 0 1 .017-.363 6.257 6.257 0 0 1 1.456-2.604 9.75 9.75 0 0 1 2.723-2.1 11.768 11.768 0 0 1 3.577-1.19 10.43 10.43 0 0 1 4.025.133Zm-3.353 22.526a1.091 1.091 0 0 1 .819 1.288l-.756 3.43a1.043 1.043 0 0 1-.476.7 1.02 1.02 0 0 1-.812.154l-3.388-.777a1.017 1.017 0 0 1-.7-.476 1.045 1.045 0 0 1-.147-.812l.763-3.43a1.096 1.096 0 0 1 1.288-.826l3.409.749Zm7.091 10.311a9.143 9.143 0 0 1 2.548-.049 7.003 7.003 0 0 1 2.324.7 5.6 5.6 0 0 1 1.792 1.47 5.296 5.296 0 0 1 .924 4.2 5.846 5.846 0 0 1-.637 1.589 8.873 8.873 0 0 1-.966 1.358c-.357.42-.7.819-1.015 1.204a7.595 7.595 0 0 0-.819 1.155 2.16 2.16 0 0 0-.322 1.197c-.006.197-.062.39-.161.56a.656.656 0 0 1-.455.294l-2.1.336a.747.747 0 0 1-.567-.126.615.615 0 0 1-.287-.483 4.773 4.773 0 0 1 .14-1.946c.165-.56.4-1.096.7-1.596.294-.48.632-.932 1.008-1.351.371-.42.7-.812 1.022-1.19.287-.338.536-.706.742-1.099.182-.338.249-.727.189-1.106a2.105 2.105 0 0 0-1.155-1.561 3.774 3.774 0 0 0-2.422-.294 3.63 3.63 0 0 0-3.031 2.877 1.58 1.58 0 0 1-.21.497.741.741 0 0 1-.476.231l-2.212.357a.602.602 0 0 1-.448-.091.575.575 0 0 1-.245-.406 4.193 4.193 0 0 1 .315-2.037 6.707 6.707 0 0 1 1.204-2.044 8.215 8.215 0 0 1 1.988-1.68c.807-.49 1.7-.817 2.632-.966Zm3.612 15.295a.744.744 0 0 1 .553.133.705.705 0 0 1 .308.483l.392 2.401a.748.748 0 0 1-.616.854l-2.345.385a.75.75 0 0 1-.553-.133.704.704 0 0 1-.301-.483l-.392-2.401a.695.695 0 0 1 .133-.553.702.702 0 0 1 .483-.301l2.338-.385Z"/>
  <path fill="#000" d="M176.904 59.71a9.143 9.143 0 0 1 2.548-.049 7.003 7.003 0 0 1 2.324.7 5.6 5.6 0 0 1 1.792 1.47 5.296 5.296 0 0 1 .924 4.2 5.846 5.846 0 0 1-.637 1.589 8.873 8.873 0 0 1-.966 1.358c-.357.42-.7.819-1.015 1.204a7.595 7.595 0 0 0-.819 1.155 2.16 2.16 0 0 0-.322 1.197c-.006.197-.062.39-.161.56a.656.656 0 0 1-.455.294l-2.1.336a.747.747 0 0 1-.567-.126.615.615 0 0 1-.287-.483 4.773 4.773 0 0 1 .14-1.946c.165-.56.4-1.096.7-1.596.294-.48.632-.932 1.008-1.351.371-.42.7-.812 1.022-1.19.287-.338.536-.706.742-1.099.182-.338.249-.727.189-1.106a2.105 2.105 0 0 0-1.155-1.561 3.774 3.774 0 0 0-2.422-.294 3.63 3.63 0 0 0-3.031 2.877 1.58 1.58 0 0 1-.21.497.741.741 0 0 1-.476.231l-2.212.357a.602.602 0 0 1-.448-.091.575.575 0 0 1-.245-.406 4.193 4.193 0 0 1 .315-2.037 6.707 6.707 0 0 1 1.204-2.044 8.215 8.215 0 0 1 1.988-1.68c.807-.49 1.7-.817 2.632-.966Zm3.612 15.295a.744.744 0 0 1 .553.133.705.705 0 0 1 .308.483l.392 2.401a.748.748 0 0 1-.616.854l-2.345.385a.75.75 0 0 1-.553-.133.704.704 0 0 1-.301-.483l-.392-2.401a.695.695 0 0 1 .133-.553.702.702 0 0 1 .483-.301l2.338-.385Z" opacity=".2"/>
  <path fill="#407BFF" d="M196.7 63.483a.855.855 0 0 1 .357.574.833.833 0 0 1-.147.658l-1.666 2.345a.858.858 0 0 1-.574.357.838.838 0 0 1-.658-.147l-2.296-1.631a.825.825 0 0 1-.35-.574.833.833 0 0 1 .147-.658l1.687-2.345a.887.887 0 0 1 1.232-.21l2.268 1.631Zm9.688-15.883a10.326 10.326 0 0 1 2.212 2.1 8.083 8.083 0 0 1 1.4 2.52c.29.879.388 1.81.287 2.73a5.708 5.708 0 0 1-1.078 2.709 5.782 5.782 0 0 1-1.652 1.61c-.575.36-1.2.634-1.855.812-.638.167-1.289.28-1.946.336l-1.862.168a9.108 9.108 0 0 0-1.652.287 2.7 2.7 0 0 0-1.316.728 1.239 1.239 0 0 1-.595.336.698.698 0 0 1-.63-.126l-2.03-1.442a.924.924 0 0 1-.371-.581.744.744 0 0 1 .161-.651 5.816 5.816 0 0 1 1.743-1.512 7.995 7.995 0 0 1 1.932-.749 11.49 11.49 0 0 1 1.981-.301 55.507 55.507 0 0 0 1.848-.147 7.294 7.294 0 0 0 1.547-.308 2.1 2.1 0 0 0 1.078-.819 2.481 2.481 0 0 0 .329-2.275 4.443 4.443 0 0 0-1.799-2.261c-1.512-1.078-3.162-1.113-4.949-.105a1.75 1.75 0 0 1-.588.238.823.823 0 0 1-.602-.203l-2.156-1.533a.705.705 0 0 1-.301-.455.694.694 0 0 1 .133-.546 5.05 5.05 0 0 1 1.925-1.505 8.14 8.14 0 0 1 2.716-.7 9.536 9.536 0 0 1 3.08.245 8.401 8.401 0 0 1 3.01 1.4Z"/>
  <path fill="#fff" d="M196.7 63.483a.855.855 0 0 1 .357.574.833.833 0 0 1-.147.658l-1.666 2.345a.858.858 0 0 1-.574.357.838.838 0 0 1-.658-.147l-2.296-1.631a.825.825 0 0 1-.35-.574.833.833 0 0 1 .147-.658l1.687-2.345a.887.887 0 0 1 1.232-.21l2.268 1.631Zm9.688-15.883a10.326 10.326 0 0 1 2.212 2.1 8.083 8.083 0 0 1 1.4 2.52c.29.879.388 1.81.287 2.73a5.708 5.708 0 0 1-1.078 2.709 5.782 5.782 0 0 1-1.652 1.61c-.575.36-1.2.634-1.855.812-.638.167-1.289.28-1.946.336l-1.862.168a9.108 9.108 0 0 0-1.652.287 2.7 2.7 0 0 0-1.316.728 1.239 1.239 0 0 1-.595.336.698.698 0 0 1-.63-.126l-2.03-1.442a.924.924 0 0 1-.371-.581.744.744 0 0 1 .161-.651 5.816 5.816 0 0 1 1.743-1.512 7.995 7.995 0 0 1 1.932-.749 11.49 11.49 0 0 1 1.981-.301 55.507 55.507 0 0 0 1.848-.147 7.294 7.294 0 0 0 1.547-.308 2.1 2.1 0 0 0 1.078-.819 2.481 2.481 0 0 0 .329-2.275 4.443 4.443 0 0 0-1.799-2.261c-1.512-1.078-3.162-1.113-4.949-.105a1.75 1.75 0 0 1-.588.238.823.823 0 0 1-.602-.203l-2.156-1.533a.705.705 0 0 1-.301-.455.694.694 0 0 1 .133-.546 5.05 5.05 0 0 1 1.925-1.505 8.14 8.14 0 0 1 2.716-.7 9.536 9.536 0 0 1 3.08.245 8.401 8.401 0 0 1 3.01 1.4Z" opacity=".6"/>
  <path fill="#263238" d="M144.571 125.447H119.7V65.191a19.732 19.732 0 0 1 19.733-19.733h2.296a19.73 19.73 0 0 1 19.733 19.733v43.4a16.888 16.888 0 0 1-16.891 16.856Zm-27.293 145.061a46.296 46.296 0 0 0-.7 7.56c-.091 4.592-.931 6.223-1.043 9.989-.133 4.305.616 5.915 2.359 8.337 1.743 2.422 6.3 4.613 8.274.525 1.974-4.088 1.687-6.769 1.064-10.99-.637-4.368-.7-6.783-1.092-10.108-.322-2.933-.7-5.166-.7-5.166l-8.162-.147Z"/>
  <path fill="#FFA8A7" d="m130.312 240.009-15.12-.273c.224 10.094 1.827 21.301 2.1 30.8.056 1.785-.042 13.853.63 17.5 1.015 5.516 7.553 4.767 7.903 1.47.35-3.297-.42-17.388-.399-18.844-.063-6.076 2.8-16.331 4.277-27.237.063-.525.539-2.891.609-3.416Z"/>
  <path fill="#263238" d="M149.737 262.654s-.595-.322-.7.315c-.147.756-.371 2.317-.7 3.563-.434 1.729-.798 4.578-.539 5.992.259 1.414 3.549 3.22 5.684 3.878a17.32 17.32 0 0 1 7 4.165c2.1 1.988 6.671 3.864 9.8 3.843 3.675 0 6.237-1.225 7.448-3.192 1.211-1.967-1.106-2.205-5.306-4.9l-3.255-2.1c-6.657-4.347-9.1-6.671-10.969-11.018l-8.463-.546Z"/>
  <path fill="#FFA8A7" d="M158.256 259.959c-.112-3.122 2.044-29.659 2.044-29.659l-14.357 6.545c3.073 18.354 3.731 22.687 3.78 25.69a2.66 2.66 0 0 0-.077.77c0 3.563 4.039 5.488 7.175 7.868a59.043 59.043 0 0 0 8.491 5.544c2.282 1.141 6.916 1.246 7.49-.217-3.822-2.919-9.38-7.287-12.418-10.619-1.484-1.568-2.016-2.793-2.128-5.922Z"/>
  <path fill="#455A64" d="M121.387 141.512c-5.516 12.103-5.516 21.469-4.599 36.918a597.015 597.015 0 0 0 2.163 26.67c-.21 2.513-3.703 7.42-4.158 18.536-.42 10.388.7 23.597.7 23.597s7.847 4.347 13.65-.042c0 0 5.6-26.733 7.238-39.739 1.4-11.347 3.92-25.844 3.92-25.844l5.299 25.767a67.15 67.15 0 0 0-2.478 11.2c-.742 7.651 3.542 22.673 3.542 22.673s8.106 2.415 13.055-1.974c0 0 1.848-24.423 2.541-33.635.924-12.341-1.022-45.745-2.541-63.434l-38.332-.693Z"/>
  <path fill="#263238" d="m140.315 181.587 2.177-19.418s9.758-1.302 14.182-5.46a16.015 16.015 0 0 1-11.501 7.266l-3.15 18.067 3.577 25.333-5.285-25.788Z"/>
  <path fill="#FFA8A7" d="M179.83 136.738c.403-3.544.581-7.109.532-10.675-.217-3.08-.77-3.584-5.075-9.037-5.81-7.371-10.773-14-16.023-20.587-3.752-4.704-7.7-5.425-11.536-5.215-2.688.147 2.562 13.076 5.201 20.727L168 128.177c.467.64.681 1.43.602 2.219l-.91 13.804 4.515 6.048s6.839-5.894 7.623-13.51Z"/>
  <path fill="#407BFF" d="M133.196 91.644c-2.919.203-8.225.7-8.225.7-3.059 1.708-3.836 3.115-4.403 7.175-.245 1.736 1.169 6.349 2.38 12.908l2.296 12.159-.252 6.034c-1.19 3.682-3.885 8.253-6.265 14.994 11.69 6.524 21.49 6.769 30.38 5.6 6.776-.875 10.367-2.513 11.564-4.137-.252-6.657-.7-10.773-.84-17.731-.049-2.919.126-5.873.245-9.233 4.543-3.738 4.599-9.954 2.1-14-5.761-9.331-11.368-15.204-15.078-14.903l-13.902.434Z"/>
  <path fill="#fff" d="M133.196 91.644c-2.919.203-8.225.7-8.225.7-3.059 1.708-3.836 3.115-4.403 7.175-.245 1.736 1.169 6.349 2.38 12.908l2.296 12.159-.252 6.034c-1.19 3.682-3.885 8.253-6.265 14.994 11.69 6.524 21.49 6.769 30.38 5.6 6.776-.875 10.367-2.513 11.564-4.137-.252-6.657-.7-10.773-.84-17.731-.049-2.919.126-5.873.245-9.233 4.543-3.738 4.599-9.954 2.1-14-5.761-9.331-11.368-15.204-15.078-14.903l-13.902.434Z" opacity=".6"/>
  <path fill="#000" d="M151.025 120.204s-5.334 4.144-11.431 1.981a10.433 10.433 0 0 1-7-7.483s-.644 6.965 7.035 9.338c7.441 2.289 11.396-3.836 11.396-3.836Z" opacity=".1"/>
  <path fill="#FFA8A7" d="M158.263 72.527c-.231 10.108-3.5 12.6-5.152 13.3-1.652.7-4.816.28-7.896-.231V91.7s3.556 3.724 3.29 6.503-5.6 3.094-9.576.37a30.1 30.1 0 0 1-5.901-5.326 2.161 2.161 0 0 1-.511-1.4v-14.28s-1.687 1.785-4.669-.26a5.514 5.514 0 0 1-2.46-3.688 5.505 5.505 0 0 1 1.06-4.305c1.302-1.533 4.606-1.638 6.188.7.896 1.743 1.015 3.5 2.016 2.8 2.66-1.918 1.232-6.3 4.445-8.4a23.1 23.1 0 0 1 3.276-1.4c5.733-1.981 10.703-3.647 11.9-7.567 2.254 1.288 4.27 5.159 3.99 17.08Z"/>
  <path fill="#B16668" d="M146.958 81.557a1.33 1.33 0 1 0 0-2.66 1.33 1.33 0 0 0 0 2.66Z"/>
  <path fill="#263238" d="M146.076 70.994a1.397 1.397 0 0 1-.849 1.285 1.401 1.401 0 0 1-1.379-2.416 1.403 1.403 0 0 1 2.115.579c.075.174.113.362.113.552Zm10.605.14a1.301 1.301 0 0 1-.711 1.266 1.3 1.3 0 0 1-.493.134 1.226 1.226 0 0 1-1.337-1.26 1.27 1.27 0 0 1 .708-1.278 1.275 1.275 0 0 1 1.833 1.159v-.021Z"/>
  <path fill="#455A64" d="M144.277 74.592a4.56 4.56 0 0 1-4.557-4.55c0-3.094 3.192-3.094 4.557-3.094 1.365 0 4.55 0 4.55 3.094a4.557 4.557 0 0 1-4.55 4.55Zm0-6.93c-2.8 0-3.836.7-3.836 2.38a3.85 3.85 0 0 0 7.7 0c-.028-1.715-1.106-2.38-3.864-2.38Zm11.557 6.93a4.56 4.56 0 0 1-4.557-4.55c0-3.094 3.192-3.094 4.557-3.094 1.365 0 4.55 0 4.55 3.094a4.557 4.557 0 0 1-4.55 4.55Zm0-6.93c-2.758 0-3.836.7-3.836 2.38a3.85 3.85 0 0 0 7.7 0c-.028-1.715-1.106-2.38-3.864-2.38Z"/>
  <path fill="#F28F8F" d="m149.534 68.572.224 8.505 4.473-1.386-4.697-7.12Zm-4.326 17.045c-3.248-.427-9.933-2.345-10.976-4.991A6.883 6.883 0 0 0 136.577 84c1.995 1.715 8.631 3.64 8.631 3.64v-2.023Z"/>
  <path fill="#263238" d="m145.369 64.442-2.968 1.813a1.827 1.827 0 0 1 .602-2.45 1.7 1.7 0 0 1 1.319-.188 1.696 1.696 0 0 1 1.047.825Zm12.075 2.016-3.304-1.155a1.666 1.666 0 0 1 .846-1.022 1.675 1.675 0 0 1 1.324-.084 1.834 1.834 0 0 1 1.134 2.261Z"/>
  <path fill="#455A64" d="M148.47 70.406a.36.36 0 0 1-.332-.225.366.366 0 0 1-.025-.14c0-.58 1.148-.958 2.184-.958 1.036 0 1.701.378 1.701.959a.367.367 0 0 1-.35.264.364.364 0 0 1-.35-.264c0-.07-.357-.245-.98-.245a3.924 3.924 0 0 0-1.47.252.362.362 0 0 1-.112.26.35.35 0 0 1-.266.097Zm-8.379-.308h-.042l-8.001-.7a3.878 3.878 0 0 0-1.309-.854l9.394.868a.366.366 0 0 1 .315.399.356.356 0 0 1-.357.287Z"/>
  <path fill="#FFA8A7" d="M107.24 78.442c2.618-3.5 4.403-6.14 6.79-9.1 1.358-1.701 2.226-2.92 3.5-4.662.896-1.204 1.4-2.22 2.422-2.59a8.403 8.403 0 0 0 2.919-2.002c.504-.557.972-1.147 1.4-1.764a26.302 26.302 0 0 1 5.292-5.327c2.1-1.582 4.445-2.8 6.608-4.305 1.288-.903 2.667-2.401 1.099-3.801a3.73 3.73 0 0 0-1.673-.805c-3.815-.826-7.133.483-10.864 1.435a30.55 30.55 0 0 0-4.739 1.603 8.432 8.432 0 0 0-2.1 1.204c-.893.9-1.624 1.947-2.163 3.094-1.631 2.912-5.131 5.516-7.581 7.819-2.863 2.695-5.425 5.166-8.694 8.134-2.94 2.68-5.817 5.145-8.512 8.07-2.233 2.416-1.4 4.306-1.106 4.964 1.82 3.738 3.857 5.082 6.3 7.399 4.2 4.01 18.725 15.554 23.534 19.369a7.794 7.794 0 0 1 2.359 3.08l.924 2.135c5.488 1.008 9.149-7.231 4.606-17.15a10.41 10.41 0 0 0-3.339-4.025c-5.74-4.18-16.982-12.775-16.982-12.775Z"/>
  <path fill="#F28F8F" d="M107.24 78.442a14.445 14.445 0 0 1-6.706 4.613s3.5.896 8.295-3.41l-1.589-1.203Z"/>
  <path fill="#455A64" d="m178.402 129.437-.896-.77a1.024 1.024 0 0 0-.917-.105l-9.723 2.646a3.573 3.573 0 0 0-2.184 2.044l-7 20.181a.93.93 0 0 0 .126 1.029l.924.798a1.015 1.015 0 0 0 .931.112l9.737-2.646a3.59 3.59 0 0 0 2.184-2.044c1.4-3.969 5.6-16.212 7-20.181.168-.497.084-.875-.182-1.064Z"/>
  <path fill="#407BFF" d="m158.599 154.21 7-20.181a3.563 3.563 0 0 1 2.184-2.037l9.716-2.646c.903-.245 1.4.273 1.078 1.155-1.4 3.969-5.6 16.212-7 20.181a3.582 3.582 0 0 1-2.184 2.044l-9.716 2.674c-.896.21-1.379-.308-1.078-1.19Z"/>
  <path fill="#37474F" d="M166.726 132.552a3.51 3.51 0 0 0-1.134 1.484l-7 20.174a.956.956 0 0 0 .098 1.008l-.868-.742a.909.909 0 0 1-.133-1.029l7-20.181a3.434 3.434 0 0 1 1.043-1.4l.994.686Z"/>
  <path fill="#F28F8F" d="M175.735 138.635c-.7 2.051-3.129 3.423-7.147 4.375-4.018.952-6.237 5.215-5.6 6.51.637 1.295 7.133 2.506 9.73 2.135 2.597-.371 5.201-4.123 5.992-5.285.791-1.162 1.701-9.268.868-10.381-.833-1.113-2.59-.938-2.59-.938l-1.253 3.584Z"/>
</svg>
