<svg xmlns="http://www.w3.org/2000/svg" width="22" height="25" fill="none" viewBox="0 0 28 27">
  <path fill="#fff" d="M27.241 11.028 14.881.59a2.228 2.228 0 0 0-1.477-.513 2.213 2.213 0 0 0-1.453.569L.583 11.08 0 11.617V27h10.955v-9.598h5.975V27h10.954V11.572l-.643-.544ZM13.447 1.905c.017 0 .006.004-.001.01-.008-.006-.017-.01 0-.01Zm12.446 23.267h-6.971v-7.77c0-.485-.21-.95-.584-1.293a2.086 2.086 0 0 0-1.408-.536h-5.975c-.529 0-1.035.193-1.409.536a1.756 1.756 0 0 0-.583 1.293v7.77H1.992V12.374L13.447 1.939l.001-.002 12.445 10.437v12.798Z"/>
</svg>
