<svg xmlns="http://www.w3.org/2000/svg" width="30" height="50" fill="none" viewBox="0 0 31 58">
  <path fill="#252C3D" d="M15 39.333a2.5 2.5 0 1 0 0-5 2.5 2.5 0 0 0 0 5Z"/>
  <path fill="#252C3D" d="M15 24.333a13.334 13.334 0 0 0-13.333 13.2c0 9.134 11.75 19.3 12.25 19.734a1.667 1.667 0 0 0 2.166 0c.584-.434 12.25-10.6 12.25-19.734A13.334 13.334 0 0 0 15 24.333Zm0 18.334A5.833 5.833 0 1 1 15 31a5.833 5.833 0 0 1 0 11.667Z"/>
  <rect width="31" height="23" fill="#252C3D" rx="6"/>
  <path fill="#FEFEFF" d="M5.88 18V6.364h4.808c.87 0 1.623.157 2.255.471.636.31 1.127.758 1.472 1.341.345.58.517 1.267.517 2.063 0 .806-.176 1.492-.529 2.056-.352.561-.852.99-1.5 1.284-.647.292-1.414.438-2.3.438h-3.04v-2.216h2.516c.425 0 .779-.055 1.063-.165.288-.113.506-.284.654-.511.147-.231.221-.527.221-.886 0-.36-.074-.658-.221-.892a1.334 1.334 0 0 0-.654-.534c-.288-.122-.642-.182-1.063-.182H8.694V18H5.881Zm6.552-5.318L15.329 18h-3.068l-2.84-5.318h3.01Zm8.446 5.477c-.887 0-1.672-.151-2.358-.454-.682-.307-1.22-.73-1.614-1.267a3.122 3.122 0 0 1-.602-1.858h2.83c.01.253.092.479.244.676.151.193.358.344.62.454.26.11.558.165.891.165.334 0 .627-.059.88-.176.259-.121.46-.286.603-.495a1.23 1.23 0 0 0 .21-.727 1.152 1.152 0 0 0-.233-.727 1.537 1.537 0 0 0-.676-.494 2.7 2.7 0 0 0-1.022-.177H19.52v-2h1.13c.345 0 .648-.056.91-.17.265-.114.471-.273.619-.477.148-.209.22-.447.216-.716a1.195 1.195 0 0 0-.188-.688 1.243 1.243 0 0 0-.528-.466 1.744 1.744 0 0 0-.778-.164c-.311 0-.593.055-.847.165-.25.11-.449.265-.597.465a1.219 1.219 0 0 0-.233.7h-2.687c.008-.694.2-1.304.58-1.83.378-.53.893-.945 1.545-1.245.655-.299 1.401-.448 2.239-.448.833 0 1.566.145 2.198.437.633.292 1.125.69 1.478 1.193.352.5.528 1.067.528 1.7.004.654-.21 1.194-.642 1.618-.428.425-.98.686-1.653.784v.091c.901.106 1.581.398 2.04.875.462.478.69 1.074.687 1.79 0 .674-.199 1.273-.597 1.796-.394.519-.943.928-1.647 1.227-.701.295-1.506.443-2.415.443Z"/>
</svg>
