<svg xmlns="http://www.w3.org/2000/svg" width="30" height="50" fill="none" viewBox="0 0 31 58">
  <path fill="#252C3D" d="M15 39.333a2.5 2.5 0 1 0 0-5 2.5 2.5 0 0 0 0 5Z"/>
  <path fill="#252C3D" d="M15 24.333a13.333 13.333 0 0 0-13.333 13.2c0 9.134 11.75 19.3 12.25 19.734a1.666 1.666 0 0 0 2.166 0c.584-.434 12.25-10.6 12.25-19.734A13.333 13.333 0 0 0 15 24.333Zm0 18.334A5.833 5.833 0 1 1 15 31a5.833 5.833 0 0 1 0 11.666Z"/>
  <rect width="31" height="23" fill="#252C3D" rx="6"/>
  <path fill="#FEFEFF" d="M6.88 18V6.364h4.808c.87 0 1.623.157 2.255.471.636.31 1.127.758 1.472 1.341.345.58.517 1.267.517 2.063 0 .806-.176 1.492-.529 2.056-.352.561-.852.99-1.5 1.284-.647.292-1.414.438-2.3.438h-3.04v-2.216h2.516c.425 0 .779-.055 1.063-.165.288-.113.506-.284.654-.511.147-.231.221-.527.221-.886 0-.36-.074-.658-.221-.892a1.334 1.334 0 0 0-.654-.534c-.288-.122-.642-.182-1.063-.182H9.694V18H6.881Zm6.552-5.318L16.329 18h-3.068l-2.84-5.318h3.01Zm8.684 5.477a5.49 5.49 0 0 1-1.83-.307 4.194 4.194 0 0 1-1.556-.988c-.454-.455-.812-1.05-1.074-1.785-.261-.738-.39-1.638-.386-2.698.004-.959.121-1.819.352-2.58.231-.765.56-1.415.989-1.949a4.334 4.334 0 0 1 1.545-1.221c.603-.284 1.275-.426 2.017-.426.815 0 1.533.159 2.154.477a3.978 3.978 0 0 1 1.5 1.273c.375.53.596 1.12.664 1.772h-2.767c-.083-.367-.267-.646-.55-.835a1.718 1.718 0 0 0-1-.29c-.713 0-1.245.309-1.597.926-.349.618-.527 1.444-.534 2.478h.073c.16-.349.389-.648.688-.898.3-.25.642-.441 1.028-.574.39-.136.803-.205 1.239-.205.697 0 1.313.162 1.847.483a3.41 3.41 0 0 1 1.255 1.324c.303.557.453 1.195.45 1.915.003.81-.186 1.527-.569 2.148a3.915 3.915 0 0 1-1.59 1.443c-.675.345-1.457.517-2.348.517ZM22.1 16a1.746 1.746 0 0 0 1.568-.91 1.87 1.87 0 0 0 .228-.948 1.862 1.862 0 0 0-.227-.949 1.715 1.715 0 0 0-.637-.659 1.752 1.752 0 0 0-.926-.244 1.769 1.769 0 0 0-1.284.539 1.83 1.83 0 0 0-.375.591 1.947 1.947 0 0 0 .097 1.665c.155.28.367.504.636.67.269.164.576.245.92.245Z"/>
</svg>
