<svg xmlns="http://www.w3.org/2000/svg" width="30" height="50" fill="none" viewBox="0 0 31 58">
  <path fill="#252C3D" d="M15 39.333a2.5 2.5 0 1 0 0-5 2.5 2.5 0 0 0 0 5Z"/>
  <path fill="#252C3D" d="M15 24.333a13.334 13.334 0 0 0-13.333 13.2c0 9.134 11.75 19.3 12.25 19.734a1.666 1.666 0 0 0 2.166 0c.584-.434 12.25-10.6 12.25-19.734A13.334 13.334 0 0 0 15 24.333Zm0 18.334A5.833 5.833 0 1 1 15 31a5.833 5.833 0 0 1 0 11.666Z"/>
  <rect width="31" height="23" fill="#252C3D" rx="6"/>
  <path fill="#FEFEFF" d="M5.88 18V6.364h4.808c.87 0 1.623.157 2.255.471.636.31 1.127.758 1.472 1.341.345.58.517 1.267.517 2.063 0 .806-.176 1.492-.529 2.056-.352.561-.852.99-1.5 1.284-.647.292-1.414.438-2.3.438h-3.04v-2.216h2.516c.425 0 .779-.055 1.063-.165.288-.113.506-.284.654-.511.147-.231.221-.527.221-.886 0-.36-.074-.658-.221-.892a1.334 1.334 0 0 0-.654-.534c-.288-.122-.642-.182-1.063-.182H8.694V18H5.881Zm6.552-5.318L15.329 18h-3.068l-2.84-5.318h3.01Zm8.474 5.477c-.848 0-1.602-.153-2.261-.46-.66-.307-1.18-.73-1.563-1.267a3.265 3.265 0 0 1-.59-1.852h2.727c.022.428.197.772.522 1.034a1.82 1.82 0 0 0 1.165.386c.353 0 .665-.078.938-.233.272-.155.486-.373.642-.653a1.96 1.96 0 0 0 .227-.978 1.917 1.917 0 0 0-.233-.983 1.653 1.653 0 0 0-.648-.653 1.837 1.837 0 0 0-.943-.239 2.065 2.065 0 0 0-.96.222 1.62 1.62 0 0 0-.682.62l-2.483-.467.506-6.272h7.466V8.63h-5.154l-.267 2.744h.069c.193-.322.503-.587.931-.796a3.295 3.295 0 0 1 1.472-.318c.697 0 1.318.163 1.864.489.549.322.98.769 1.295 1.34.318.573.477 1.228.477 1.967 0 .8-.19 1.507-.568 2.125a3.914 3.914 0 0 1-1.58 1.454c-.674.349-1.463.523-2.369.523Z"/>
</svg>
