<svg xmlns="http://www.w3.org/2000/svg" width="30" height="50" fill="none" viewBox="0 0 31 59">
  <path fill="#252C3D" d="M15 40.333a2.5 2.5 0 1 0 0-5 2.5 2.5 0 0 0 0 5Z"/>
  <path fill="#252C3D" d="M15 25.333a13.334 13.334 0 0 0-13.333 13.2c0 9.134 11.75 19.3 12.25 19.734a1.666 1.666 0 0 0 2.166 0c.584-.434 12.25-10.6 12.25-19.734A13.334 13.334 0 0 0 15 25.333Zm0 18.334A5.833 5.833 0 1 1 15 32a5.833 5.833 0 0 1 0 11.666Z"/>
  <rect width="31" height="23" fill="#252C3D" rx="6"/>
  <path fill="#FEFEFF" d="M5.88 18V6.364h4.808c.87 0 1.623.157 2.255.471.636.31 1.127.758 1.472 1.341.345.58.517 1.267.517 2.063 0 .806-.176 1.492-.529 2.056-.352.561-.852.99-1.5 1.284-.647.292-1.414.438-2.3.438h-3.04v-2.216h2.516c.425 0 .779-.055 1.063-.165.288-.113.506-.284.654-.511.147-.231.221-.527.221-.886 0-.36-.074-.658-.221-.892a1.334 1.334 0 0 0-.654-.534c-.288-.122-.642-.182-1.063-.182H8.694V18H5.881Zm6.552-5.318L15.329 18h-3.068l-2.84-5.318h3.01Zm3.878 3.386v-2.193l4.767-7.511h1.949V9.34h-1.131l-2.79 4.42v.091h6.904v2.216h-9.7ZM21.929 18v-2.602l.057-.96V6.364h2.63V18H21.93Z"/>
</svg>
