<svg xmlns="http://www.w3.org/2000/svg" width="30" height="50" fill="none" viewBox="0 0 40 60">
  <path fill="#252C3D" d="M20 38.333a2.5 2.5 0 1 0 0-5 2.5 2.5 0 0 0 0 5Z"/>
  <path fill="#252C3D" d="M20 23.333a13.334 13.334 0 0 0-13.333 13.2c0 9.134 11.75 19.3 12.25 19.734a1.666 1.666 0 0 0 2.166 0c.584-.434 12.25-10.6 12.25-19.734A13.334 13.334 0 0 0 20 23.333Zm0 18.334A5.833 5.833 0 1 1 20 30a5.833 5.833 0 0 1 0 11.667Z"/>
  <rect width="31" height="23" x="5" fill="#252C3D" rx="6"/>
  <path fill="#FEFEFF" d="M11.88 18V6.364h4.807c.872 0 1.624.157 2.256.471.636.31 1.127.758 1.472 1.341.345.58.517 1.267.517 2.063 0 .806-.176 1.492-.529 2.056-.352.561-.852.99-1.5 1.284-.647.292-1.414.438-2.3.438h-3.04v-2.216h2.516c.425 0 .779-.055 1.063-.165.288-.113.506-.284.654-.511.147-.231.221-.527.221-.886 0-.36-.074-.658-.221-.892a1.334 1.334 0 0 0-.654-.534c-.288-.122-.642-.182-1.063-.182h-1.386V18h-2.812Zm6.552-5.318L21.33 18h-3.07l-2.84-5.318h3.01ZM22.452 18v-2.023l4.244-3.716c.318-.287.589-.55.813-.79.223-.242.393-.484.51-.727.118-.246.177-.513.177-.8 0-.323-.07-.597-.21-.825a1.41 1.41 0 0 0-.58-.534 1.844 1.844 0 0 0-.846-.187c-.322 0-.604.066-.847.199a1.377 1.377 0 0 0-.568.562c-.133.246-.199.546-.199.898h-2.665c0-.792.178-1.476.534-2.051a3.512 3.512 0 0 1 1.5-1.33c.648-.314 1.4-.471 2.256-.471.883 0 1.65.147 2.301.443.652.295 1.155.708 1.512 1.238.36.527.54 1.139.54 1.836 0 .443-.09.882-.268 1.318-.178.435-.498.916-.96 1.443-.458.526-1.11 1.157-1.955 1.892l-1.392 1.284v.074h4.716V18h-8.613Z"/>
</svg>
