<svg xmlns="http://www.w3.org/2000/svg" width="353" height="357" fill="none" viewBox="0 0 353 357">
  <path fill="#F5F5F5" d="M51.679 330.167c68.91 35.772 180.63 35.783 249.54 0 68.91-35.782 68.9-93.775 0-129.546-68.9-35.772-180.63-35.772-249.54 0-68.91 35.771-68.9 93.775 0 129.546Z"/>
  <path fill="#EBEBEB" d="M300.979 303.731c12.691 0 22.98-5.34 22.98-11.928 0-6.587-10.289-11.927-22.98-11.927-12.692 0-22.98 5.34-22.98 11.927 0 6.588 10.288 11.928 22.98 11.928Z"/>
  <path fill="#407BFF" d="m46.449 293.514 8.13-5.109c4.539-4.035 7.994-9.33 10-15.326 2.51-7.538 2.16-13.267.36-16.143-2.21-3.54-7.94-2.919-8.17 4.531-.48 14.684-4.41 24.868-10.32 32.047Z"/>
  <path fill="#000" d="m46.449 293.514 8.13-5.109c4.539-4.035 7.994-9.33 10-15.326 2.51-7.538 2.16-13.267.36-16.143-2.21-3.54-7.94-2.919-8.17 4.531-.48 14.684-4.41 24.868-10.32 32.047Z" opacity=".2"/>
  <path fill="#fff" d="M46.449 294.058a.472.472 0 0 1-.294-.108.548.548 0 0 1-.178-.276.592.592 0 0 1 .005-.338.541.541 0 0 1 .187-.269c18.8-14.161 15.16-33.909 15.12-34.105a.604.604 0 0 1 .072-.419.536.536 0 0 1 .14-.155.493.493 0 0 1 .183-.085.48.48 0 0 1 .384.079c.056.04.105.091.143.151a.594.594 0 0 1 .078.2c0 .207 3.84 20.631-15.52 35.227a.49.49 0 0 1-.32.098Z"/>
  <path fill="#407BFF" d="M30.159 303.764s-2.83-2.506-2.15-5.904c.68-3.399 2.51-5.839-.62-10.218-3.13-4.378-4-10.217-.26-13.376 2.85-2.451 7.3 1.013 8.9-5.446 1.18-4.728.78-15.195 6.31-18.681 5.53-3.486 9 1.765 8.13 8.867-.76 6.35-1.84 12.461-1 14.16 1.62 3.268 4.39 2.821 4.26 8.79-.11 5.556-4.94 10.152-4.94 10.152l-18.63 11.656Z"/>
  <path fill="#fff" d="M39.449 298.437a.49.49 0 0 1-.332-.138.572.572 0 0 1-.168-.341c-1.43-12.908 2-35.194 4.8-41.817a.55.55 0 0 1 .11-.197c.05-.056.11-.1.176-.129a.468.468 0 0 1 .414.021c.06.029.113.071.158.123a.554.554 0 0 1 .13.391.573.573 0 0 1-.048.205c-2.77 6.535-6.08 28.887-4.71 41.228a.583.583 0 0 1-.107.399.494.494 0 0 1-.333.201l-.09.054Z"/>
  <path fill="#fff" d="M39.179 288.383a.398.398 0 0 1-.22-.054c-3.47-1.841-5.67-8.41-5.76-8.715a.582.582 0 0 1 .125-.599.49.49 0 0 1 .366-.144.468.468 0 0 1 .193.054c.06.032.113.076.157.131a.562.562 0 0 1 .099.188c0 .065 2.15 6.427 5.26 8.072a.518.518 0 0 1 .233.255.589.589 0 0 1 .036.358.554.554 0 0 1-.177.304.475.475 0 0 1-.312.117v.033Zm-.06 4.357a.464.464 0 0 1-.28-.095.535.535 0 0 1-.18-.253.591.591 0 0 1 .001-.415.52.52 0 0 1 .269-.293c5.84-2.549 9.48-10.12 9.52-10.207a.516.516 0 0 1 .293-.269.461.461 0 0 1 .382.035.534.534 0 0 1 .247.319.59.59 0 0 1-.032.416c-.16.327-3.85 8.017-10 10.719a.401.401 0 0 1-.22.043Z"/>
  <path fill="#407BFF" d="M243.249 234.138s-4.37-7.712-4.8-16.089c-.43-8.376 1.26-11.862 3.58-12.864 2.32-1.002 2.5 2.08 3.69 3.9 1.19 1.819 3.62.784 4.52-4.891.9-5.675 4.18-15.25 11-17.113 7.5-2.026 3.48 7.56 1.59 11.296-1.89 3.736-3.35 8.834-2.11 10.217 1.24 1.384 3.17-1.176 5 1.199 2.23 2.864-4.7 13.18-8.68 15.674l-13.79 8.671Z"/>
  <path fill="#fff" d="M249.239 230.902a.454.454 0 0 1-.19-.049.503.503 0 0 1-.158-.125.562.562 0 0 1-.132-.392c.677-13.475 4.535-26.531 11.2-37.906a.49.49 0 0 1 .326-.223.465.465 0 0 1 .374.103.581.581 0 0 1 .11.751c-6.546 11.209-10.334 24.065-11 37.33a.587.587 0 0 1-.05.206.515.515 0 0 1-.287.277.456.456 0 0 1-.193.028Z"/>
  <path fill="#fff" d="M249.809 224.465a.496.496 0 0 1-.24-.065c-2.8-1.689-4.35-6.699-4.41-6.906a.585.585 0 0 1 .14-.59.463.463 0 0 1 .551-.075.533.533 0 0 1 .249.316s1.5 4.825 4 6.296a.551.551 0 0 1 .231.329.598.598 0 0 1-.041.412.519.519 0 0 1-.201.221.457.457 0 0 1-.279.062Zm.49-3.301a.472.472 0 0 1-.305-.117.547.547 0 0 1-.175-.296.577.577 0 0 1 .054-.41.527.527 0 0 1 .13-.155.48.48 0 0 1 .176-.089c7.22-1.993 9.72-6.111 9.74-6.154a.518.518 0 0 1 .315-.242.484.484 0 0 1 .197-.005.515.515 0 0 1 .325.226.592.592 0 0 1 .013.609c-.11.185-2.71 4.509-10.34 6.623l-.13.01Z"/>
  <path fill="#407BFF" d="M134.449 217.21s-9.59-2.548-10.09-22.112c-.53-21.11 2.35-45.749-9-47.742-11.35-1.994-17.65 13.071-17.51 30.663.13 15.402 5.83 48.842 36.56 55.4l.04-16.209Z"/>
  <path fill="#000" d="M134.449 217.21s-9.59-2.548-10.09-22.112c-.53-21.11 2.35-45.749-9-47.742-11.35-1.994-17.65 13.071-17.51 30.663.13 15.402 5.83 48.842 36.56 55.4l.04-16.209Z" opacity=".2"/>
  <path fill="#fff" d="M134.449 231.414h-.09c-6.91-1.372-12.54-5.522-16.73-12.319-12.42-20.184-8.51-57.873-7.22-64.452a.559.559 0 0 1 .216-.342.478.478 0 0 1 .374-.083.524.524 0 0 1 .314.242c.073.122.1.269.076.412-1.27 6.535-5.16 43.745 7.07 63.613 1.78 3.081 4.129 5.726 6.897 7.766 2.768 2.04 5.895 3.431 9.183 4.085a.516.516 0 0 1 .323.23.598.598 0 0 1 .077.413.538.538 0 0 1-.172.315.46.46 0 0 1-.318.12Z"/>
  <path fill="#407BFF" d="M134.449 281.619c-9.91 1.459-26 1.438-35.29-6.536-9.29-7.973-7.35-14.836-3.78-17.7 3.57-2.865 6.67-6.133.53-12.494-6.14-6.362-16-16.579-19.2-31.905-3.2-15.326-1.62-24.911 4.66-28.103 6.09-3.093 7.7 1.83 11.43 11.982 3.73 10.152 12.12 1.449 19.3 4.618 7.18 3.17 6.89 9.444 7.34 14.836.45 5.392 2.82 6.884 6.89 6.884s8.12 2.549 8.12 7.625v50.793Z"/>
  <path fill="#fff" d="M134.449 263.82a.285.285 0 0 1-.13 0c-.43-.131-10.68-3.377-25.61-18.31-15.9-15.904-23.4-39.759-23.48-39.998a.602.602 0 0 1 .033-.414.527.527 0 0 1 .287-.272.456.456 0 0 1 .378.028.53.53 0 0 1 .252.309c.07.24 7.5 23.833 23.21 39.541 14.72 14.737 25.09 18.038 25.2 18.07a.525.525 0 0 1 .298.261.573.573 0 0 1 .042.415.535.535 0 0 1-.184.272.46.46 0 0 1-.296.098Z"/>
  <path fill="#fff" d="M112.879 249.3a.455.455 0 0 1-.282-.093.523.523 0 0 1-.178-.255c-3.21-8.976-3.94-28.18-4-28.997a.58.58 0 0 1 .135-.388.49.49 0 0 1 .345-.178.51.51 0 0 1 .352.153.597.597 0 0 1 .168.37c0 .196.75 19.835 3.9 28.648a.577.577 0 0 1-.123.594.497.497 0 0 1-.167.114.516.516 0 0 1-.15.032Zm-.08 12.908a21.762 21.762 0 0 1-2.76-.152.49.49 0 0 1-.336-.206.576.576 0 0 1-.104-.404.575.575 0 0 1 .189-.366.473.473 0 0 1 .371-.114c.09 0 9.4 1.155 13.67-3.583a.506.506 0 0 1 .161-.138.463.463 0 0 1 .4-.019.496.496 0 0 1 .172.12.58.58 0 0 1-.023.799c-3.09 3.475-8.48 4.063-11.74 4.063Z"/>
  <path fill="#FFA8A7" d="M261.749 171.799s-12.28-18.452-13-20.696c-.57-1.656 0-4.118.18-5.261.18-1.144.34-3.693.52-4.357.3-1.242-1.17-.992-2 .141-.83 1.133-1.11 3.399-1.54 3.769-.43.37-3.7-4.825-5.41-7.222-1.71-2.396-2.78-3.856-3.83-2.963-.75.643-.19 2.037 1.05 4.085a37.443 37.443 0 0 1 2 3.431c.19.447-.83.48-1.38 1.406-.43.718 0 1.884-.6 2.44-.37.306-.623.749-.711 1.245a2.214 2.214 0 0 0 .231 1.445 17.263 17.263 0 0 0 4.23 4.88c1.84 1.383 2.58 1.873 3.67 3.758 1.09 1.884 10.87 21.132 11.53 22.286.66 1.155 1.93 3.508 3.86 3.573 1.93.065 17.73-14.749 18.54-15.489 2.6-2.364 3.43-2.702 3.87-.578.152.755.265 1.519.34 2.288.31 2.701 2 12.352 2 12.352s8 4.216 14.57 2.179c6.57-2.037 8.79-5.076 8.79-5.076l-3.29-5.839c.89-2.407 5-12.167 6.33-18.997l-20.6-3.627c-.42-.098-1.1-.283-2-.534-1.13-.326-4-1.405-6.17.665-7.08 6.721-21.16 20.696-21.16 20.696"/>
  <path fill="#37474F" d="m302.589 285.017-3.69 5.588a11.422 11.422 0 0 0 5.36 1.253c3.31.131 4.22-1.089 4.34-1.329.56-1.307-.31-3.66-.55-5.686l-5.46.174Z"/>
  <path fill="#37474F" d="M299.109 287.926s-4.48-.316-7.57-.73-5.54 1.22-4.82 2.603c.72 1.383 2.43 2.538 5.09 3.508 2.27.838 5 1.437 7.36 2.178 2.36.741 4 1.71 5.37 1.187 1.53-.577 2.19-1.241 2.06-2.461a56.764 56.764 0 0 0-1.24-5.142l-6.25-1.143Z"/>
  <path fill="#F28F8F" d="M308.599 279.408s-.56 5.075-.6 6.165c-.04 1.089-4.55 1.438-5.41-.556l-.14-6.209 6.15.6Z"/>
  <path fill="#FFA8A7" d="m304.059 282.523 1.61 7.712s.15.937-3.53 1.536c-3.68.599-9.46-2.103-10.45-2.647-.99-.545-1.1-1.645 2.52-1.427 3.62.218 4.9.229 4.9.229l-1.18-3.41 6.13-1.993Z"/>
  <path fill="#F28F8F" d="m311.639 154.534 2.55-.773s5.33 18.376 5.92 20.151c.59 1.776 1.26 3.649.11 5.839-1.37 2.603-8.58 13.071-8.58 13.071l-4.58-4.88 5.2-10.37-4.6-10.13 3.98-12.908Z"/>
  <path fill="#37474F" d="M285.449 130.668a8.773 8.773 0 0 1-.882-3.975 8.746 8.746 0 0 1 .992-3.944c2.54-5.13 8.2-7.625 14.94-6.677 3.12.447 6.8 3.268 8.81 7.483 2.22 4.673 2.43 14.085 3 17.646l-26.86-10.533Z"/>
  <path fill="#FFA8A7" d="M285.269 132.683s-1.6 3.323-1.32 3.628c.414.264.868.448 1.34.544l-.02-4.172Z"/>
  <path fill="#FFA8A7" d="M290.129 122.183c-1.74 1.231-4.74 3.496-4.87 10.958-.14 7.625.86 10.141 1.9 11.023.7.599 4.81.294 6.57-.152 1.76-.447 6.83-3.181 8.66-7.331 2.15-4.88 1.71-11.982-1.48-14.16a10.474 10.474 0 0 0-5.35-1.685 10.39 10.39 0 0 0-5.43 1.347Z"/>
  <path fill="#407BFF" d="M308.599 179.391c3.08 5.229 6 9.804 6.64 15.707 1.32 12.407-3 26.589-3.93 35.772 1.749 2.612 2.757 5.725 2.9 8.954 0 3.801-5.61 39.584-5.61 39.584s-4.08 1.35-6.15-.6l-3.85-65.824 2-8.017 8-25.576Z"/>
  <path fill="#000" d="M308.599 179.391c3.08 5.229 6 9.804 6.64 15.707 1.32 12.407-3 26.589-3.93 35.772 1.749 2.612 2.757 5.725 2.9 8.954 0 3.801-5.61 39.584-5.61 39.584s-4.08 1.35-6.15-.6l-3.85-65.824 2-8.017 8-25.576Z" opacity=".2"/>
  <path fill="#407BFF" d="m298.599 212.984 2-8.017a46.866 46.866 0 0 0 11-4.76s-2.08 4.128-8.06 6.394l-3.09 10.294-.26 23.582-1.59-27.493Z"/>
  <path fill="#000" d="m298.599 212.984 2-8.017a46.866 46.866 0 0 0 11-4.76s-2.08 4.128-8.06 6.394l-3.09 10.294-.26 23.582-1.59-27.493Z" opacity=".3"/>
  <path fill="#407BFF" d="M308.599 179.391c1.65 2.941 5.59 7.952 4.75 12.777-1 5.839-3.9 9.945-12.72 12.799l-8.28 32.678s4.31 4.357 5.63 8.573c1.32 4.215 6.08 36.327 6.08 36.327s-1.48 2.625-6.13 1.993c0 0-16.21-40.303-17.35-42.928-1.384-2.659-1.869-5.761-1.37-8.769.51-4.226 6-50.487 6-50.487l23.39-2.963Z"/>
  <path fill="#000" d="M308.599 179.391c1.65 2.941 5.59 7.952 4.75 12.777-1 5.839-3.9 9.945-12.72 12.799l-8.28 32.678s4.31 4.357 5.63 8.573c1.32 4.215 6.08 36.327 6.08 36.327s-1.48 2.625-6.13 1.993c0 0-16.21-40.303-17.35-42.928-1.384-2.659-1.869-5.761-1.37-8.769.51-4.226 6-50.487 6-50.487l23.39-2.963Z" opacity=".2"/>
  <path fill="#407BFF" d="m311.639 154.534-20.6-3.627c-.42-.098-1.1-.283-2-.534 0 0-.88 14.073-6.17 17.298.13.675.24 1.427.34 2.287.31 2.701 2 12.352 2 12.352s8 4.216 14.57 2.179c6.57-2.037 8.79-5.076 8.79-5.076l-3.29-5.839c.92-2.429 5.06-12.188 6.36-19.04Z"/>
  <path fill="#fff" d="m311.639 154.534-20.6-3.627c-.42-.098-1.1-.283-2-.534 0 0-.88 14.073-6.17 17.298.13.675.24 1.427.34 2.287.31 2.701 2 12.352 2 12.352s8 4.216 14.57 2.179c6.57-2.037 8.79-5.076 8.79-5.076l-3.29-5.839c.92-2.429 5.06-12.188 6.36-19.04Z" opacity=".7"/>
  <path fill="#407BFF" d="M306.209 171.254a56.29 56.29 0 0 1-8.57 4.608c2.693-.059 5.331-.853 7.67-2.309l.9-2.299Z"/>
  <path fill="#37474F" d="M289.619 122.553s-1 7.081 1.36 11.242c0 0 .88-2.822 3.07-2.288 2.19.534 2.31 3.682.77 5.446-.392.495-.903.86-1.477 1.053a2.946 2.946 0 0 1-1.763.037s-.35 5.119-.54 9.411c-.19 4.292-1.23 13.648 3.2 17.428 4.43 3.78 15.55 5.109 20.76-2.821 2.9-4.412-.95-12.211-2.74-20.958-1.65-8.038-2.58-19.955-10.41-21.872-7.83-1.917-12.23 3.322-12.23 3.322Z"/>
  <path fill="#E0E0E0" d="m105.599 55.945-1.08-6.786-5.56 3.986a8.288 8.288 0 0 0-2.11-2.8l2.66-7.842-5-1.209-3.66 7.625a12.863 12.863 0 0 0-3.81 1.35l-1.59-5.75-5.94 5.086.39 6.754a36.246 36.246 0 0 0-3.28 4.727l-4.9-.272-3.44 8.398 4.21 1.96a29.078 29.078 0 0 0-.83 5.316l-5.35 5.36 1.07 6.796 5.57-3.986a8.124 8.124 0 0 0 2.11 2.788l-2.61 7.854 5 1.198 5.24-5.555c1.21-.207.91-2.69 2.23-3.399l1.59 5.73 5.93-5.076-.15-2.658c1.2-1.46 5.74-4.673 6.72-6.35l1.23-2.179 3.44-8.398-1.6-3.159-1.78-4.117 5.3-5.392Zm-18.15 22.34c-4.56 3.9-6 4.76-6.77-.457-.77-5.218 1.84-13.147 6.4-17.058 4.56-3.91 6.3-4.183 7.12 1.024.82 5.207-2.18 12.636-6.75 16.492Z"/>
  <path fill="#F5F5F5" d="m94.549 41.294 6.49 4.074-3.66 7.603-6.49-4.074 3.66-7.603Zm16.46 11.938-5.56 3.987-6.49-4.074 5.56-3.986 6.49 4.073Z"/>
  <path fill="#E0E0E0" d="m110.119 72.654-4.21-1.95-6.49-4.074 4.21 1.95 6.49 4.074ZM72.439 95.3l6.49 4.063 2.66-7.843-6.49-4.074-2.66 7.854Zm20.5 2.048-6.48-4.074-1.59-5.73 6.49 4.074 1.58 5.73Z"/>
  <path fill="#EBEBEB" d="m112.079 60.019-1.07-6.787-5.56 3.987a8.318 8.318 0 0 0-2.12-2.8l2.66-7.842-4.95-1.21-3.67 7.626a12.86 12.86 0 0 0-3.81 1.35l-1.58-5.73-5.94 5.088.39 6.753a36.28 36.28 0 0 0-3.28 4.76l-4.91-.272-3.44 8.398 4.21 1.96a29.934 29.934 0 0 0-.83 5.327l-5.34 5.283 1.07 6.797 5.56-3.986a8.269 8.269 0 0 0 2.12 2.788l-2.66 7.843 5 1.209 3.66-7.625c1.329-.24 2.617-.7 3.82-1.361l1.58 5.73 5.94-5.077-.39-6.753a36.304 36.304 0 0 0 3.28-4.728l4.91.262 3.44-8.399-4.27-1.95c.442-1.74.724-3.524.84-5.326l5.34-5.316Zm-18.13 22.384c-4.55 3.9-8.91 2.843-9.74-2.364-.83-5.206 2.2-12.603 6.76-16.502 4.56-3.9 8.91-2.832 9.74 2.375.83 5.206-2.2 12.591-6.76 16.491Z"/>
  <path fill="#F5F5F5" d="m91.979 48.592-6.49-4.074-5.94 5.087 6.49 4.074 5.94-5.087Z"/>
  <path fill="#E0E0E0" d="m79.549 49.605.39 6.754 6.49 4.073-.39-6.753-6.49-4.074Z"/>
  <path fill="#F5F5F5" d="m83.149 65.16-6.49-4.074-4.9-.261 6.48 4.073 4.91.262Z"/>
  <path fill="#E0E0E0" d="m71.759 60.825-3.44 8.387 6.48 4.074 3.44-8.388-6.48-4.073Z"/>
  <path fill="#F5F5F5" d="m78.179 80.562-6.48-4.074-5.35 5.36 6.48 4.073 5.35-5.359Z"/>
  <path fill="#E0E0E0" d="m73.909 92.718-6.49-4.074-1.07-6.797 6.48 4.074 1.08 6.797Z"/>
  <path fill="#F5F5F5" d="m101.039 45.368-6.49-4.074 4.96 1.21 6.48 4.073-4.95-1.21Z"/>
  <path fill="#E0E0E0" d="M76.539 25.14V15l-7.41 3.637a15.205 15.205 0 0 0-2-4.803l4.67-10.25L66.099 0l-5.82 9.531a12.179 12.179 0 0 0-4.82.512l-.82-8.812-8.06 5.076-.81 9.803a41.942 41.942 0 0 0-4.82 5.556l-5.82-2.179-5.7 10.762 4.66 4.357a46.775 46.775 0 0 0-2 7.32l-7.41 5.675v10.152l7.41-3.638a15.205 15.205 0 0 0 2 4.803l-4.64 10.261 5.7 3.584 5.82-9.531c1.622.154 3.256-.02 4.82-.512l.81 8.812 8.06-5.076.82-9.803c2.515-1 4.744-2.706 6.46-4.945l4.18 1.6 5.7-10.75-3.5-3.268a24.59 24.59 0 0 0 .83-8.42l7.39-5.73Zm-25.93 25.337c-6.18 3.888-10 1.089-10-6.656 0-7.744 5.11-17.32 11.3-21.208 6.19-3.889 9.93-1.09 9.93 6.72 0 7.811-5.04 17.244-11.23 21.144Z"/>
  <path fill="#F5F5F5" d="M72.579 4.063 66.099 0l-5.82 9.531 6.48 4.074 5.82-9.542Zm10.45 15.01L76.539 15l-7.41 3.638 6.49 4.074 7.41-3.638Z"/>
  <path fill="#E0E0E0" d="m53.059 75.606-6.48-4.074-.81-8.812 6.48 4.074.81 8.812Zm-23.64-6.426 6.49 4.073 4.67-10.25-6.49-4.074-4.67 10.25Z"/>
  <path fill="#EBEBEB" d="M83.029 29.268v-10.14l-7.41 3.605a14.988 14.988 0 0 0-2-4.804l4.67-10.25-5.7-3.594-5.82 9.542a11.985 11.985 0 0 0-4.82.512l-.82-8.834-8.06 5.076-.82 9.803a42.679 42.679 0 0 0-4.82 5.555l-5.82-2.178-5.7 10.762 4.67 4.357a45.718 45.718 0 0 0-2 7.32l-7.41 5.675v10.152l7.41-3.639a14.975 14.975 0 0 0 2 4.804l-4.67 10.25 5.7 3.584 5.82-9.531c1.622.154 3.256-.02 4.82-.512l.82 8.812 8.06-5.076.81-9.803a41.935 41.935 0 0 0 4.82-5.556l5.82 2.179 5.7-10.751-4.67-4.357a45.77 45.77 0 0 0 2-7.32l7.42-5.643Zm-25.93 25.337c-6.19 3.889-11.21.73-11.21-7.048 0-7.777 5-17.243 11.21-21.142 6.21-3.9 11.2-.73 11.2 7.047 0 7.778-5.02 17.189-11.2 21.088v.055Z"/>
  <path fill="#F0F0F0" d="m40.949 21.687 6.48 4.074-5.82-2.211-6.48-4.085 5.82 2.222Z"/>
  <path fill="#F5F5F5" d="m35.128 19.476-5.701 10.766 6.487 4.077 5.702-10.766-6.488-4.077Z"/>
  <path fill="#E0E0E0" d="m29.419 30.227 6.49 4.074 4.67 4.379-6.49-4.063-4.67-4.39Z"/>
  <path fill="#F5F5F5" d="m32.089 41.937 6.49 4.074-7.41 5.675-6.49-4.074 7.41-5.675Z"/>
  <path fill="#E0E0E0" d="m24.679 47.612 6.49 4.074v10.152l-6.49-4.074V47.612Z"/>
  <path fill="#F5F5F5" d="m61.129 5.305-6.49-4.074-8.06 5.076 6.48 4.074 8.07-5.076Z"/>
  <path fill="#E0E0E0" d="m144.329 296.193 94-59.125c.207-.079.386-.227.513-.422.127-.195.195-.428.195-.667 0-.24-.068-.473-.195-.668a1.08 1.08 0 0 0-.513-.422l-8.69-5.446a3.609 3.609 0 0 0-1.735-.449c-.603 0-1.197.154-1.735.449l-94.03 59.071a1.076 1.076 0 0 0-.514.422 1.224 1.224 0 0 0-.195.667c0 .239.068.472.195.668.127.195.307.342.514.421l8.72 5.447a3.62 3.62 0 0 0 1.729.476 3.604 3.604 0 0 0 1.741-.422Z"/>
  <path fill="#455A64" d="m235.749 8.79-84.76 53.31a10.118 10.118 0 0 0-3.061 3.52 11.117 11.117 0 0 0-1.269 4.649v219.018c0 3.007 1.94 4.227 4.33 2.723l84.76-53.308a10.1 10.1 0 0 0 3.064-3.52 11.103 11.103 0 0 0 1.266-4.65V11.514c0-3.007-1.93-4.227-4.33-2.724Z"/>
  <path fill="#37474F" d="m150.989 62.1 84.76-53.31c2.14-1.35 3.91-.511 4.27 1.83a11.14 11.14 0 0 0-1.42-4.136 10.17 10.17 0 0 0-2.85-3.14l-3.52-2.178a8.941 8.941 0 0 0-4.33-1.128 8.935 8.935 0 0 0-4.33 1.128l-84.77 53.265a9.405 9.405 0 0 0-3.06 3.518l12.19 7.625a9.22 9.22 0 0 1 3.06-3.475Z"/>
  <path fill="#263238" d="M134.449 281.619a11.116 11.116 0 0 0 1.269 4.648 10.113 10.113 0 0 0 3.061 3.521l3.53 2.179a9.07 9.07 0 0 0 3.923 1.107 9.01 9.01 0 0 0 3.997-.737c-2 .85-3.59-.403-3.59-3.093V70.269c.05-1.644.487-3.246 1.27-4.652l-12.19-7.624a10.33 10.33 0 0 0-1.27 4.607v219.02Z"/>
  <path fill="#fff" d="m153.319 91.28 80.13-50.378c1.44-.893 2.6-.163 2.6 1.634V204.64a6.655 6.655 0 0 1-.761 2.791 6.053 6.053 0 0 1-1.839 2.111l-80.1 50.379c-1.44.904-2.6.174-2.6-1.634V96.182c.045-.98.301-1.933.748-2.785a6.06 6.06 0 0 1 1.822-2.117Z"/>
  <path fill="#37474F" d="M193.369 43.745a3.567 3.567 0 0 0-1.075 1.24 3.93 3.93 0 0 0-.445 1.636c0 1.089.68 1.492 1.52.958a3.535 3.535 0 0 0 1.077-1.239 3.9 3.9 0 0 0 .443-1.637c0-1.056-.68-1.48-1.52-.958Zm0 198.736c-1.749 1.246-3.203 2.923-4.245 4.895a15.434 15.434 0 0 0-1.755 6.456c0 4.172 2.69 5.871 6 3.779 1.747-1.246 3.201-2.923 4.243-4.895a15.461 15.461 0 0 0 1.757-6.455c.02-4.172-2.68-5.871-6-3.78Zm-14.39-181.874a7.122 7.122 0 0 0-2.13 2.486 7.821 7.821 0 0 0-.87 3.265c0 2.113 1.36 2.974 3 1.917a7.108 7.108 0 0 0 2.157-2.478c.53-.999.836-2.12.893-3.273 0-2.113-1.36-2.974-3.05-1.917Zm7.47-.719c0 1.416 1 1.95 2.17 1.198l20-12.603a4.882 4.882 0 0 0 1.516-1.677 5.38 5.38 0 0 0 .654-2.244c0-1.405-1-1.939-2.17-1.187l-20 12.602a4.87 4.87 0 0 0-1.514 1.673 5.37 5.37 0 0 0-.656 2.238Zm-45.24 38.407a5.7 5.7 0 0 1 1.724 1.981c.424.799.669 1.695.716 2.616 0 1.699-1.09 2.386-2.44 1.536a5.7 5.7 0 0 1-1.718-1.983 6.274 6.274 0 0 1-.712-2.614c0-1.688 1.09-2.374 2.43-1.536Zm0 20.457a5.698 5.698 0 0 1 1.724 1.98c.424.799.669 1.695.716 2.616 0 1.689-1.09 2.375-2.44 1.536a5.69 5.69 0 0 1-1.718-1.983 6.266 6.266 0 0 1-.712-2.613c0-1.7 1.09-2.386 2.43-1.536Z"/>
  <path fill="#455A64" d="M140.449 98.71a5.7 5.7 0 0 1 1.724 1.98c.424.799.669 1.695.716 2.616 0 1.688-1.09 2.375-2.44 1.536a5.694 5.694 0 0 1-1.725-1.981 6.253 6.253 0 0 1-.715-2.616c.01-1.7 1.1-2.353 2.44-1.536Zm0 20.445a5.691 5.691 0 0 1 1.726 1.985c.424.801.669 1.699.714 2.622 0 1.689-1.09 2.375-2.44 1.525a5.645 5.645 0 0 1-1.728-1.978 6.229 6.229 0 0 1-.712-2.618c.01-1.689 1.1-2.375 2.44-1.536Z"/>
  <path fill="#fff" d="M252.269 47.666c0-1.808-1.16-2.538-2.6-1.634l-9.59 6.024-70.51 44.355a6.049 6.049 0 0 0-1.84 2.111 6.652 6.652 0 0 0-.76 2.791v162.061c0 1.808 1.16 2.538 2.6 1.634l70.54-44.366 9.56-6.013a6.053 6.053 0 0 0 1.839-2.111 6.655 6.655 0 0 0 .761-2.791V47.667Z"/>
  <path fill="#407BFF" d="M253.269 47.666a3.017 3.017 0 0 0-.249-1.593 2.715 2.715 0 0 0-1.015-1.179 2.404 2.404 0 0 0-1.445-.37 2.444 2.444 0 0 0-1.391.56l-9.15 5.763-70.95 44.66a7.016 7.016 0 0 0-2.213 2.508 7.736 7.736 0 0 0-.887 3.341v162.018a3.238 3.238 0 0 0 .277 1.578c.222.489.562.904.983 1.199.358.227.766.344 1.18.338a3.222 3.222 0 0 0 1.66-.534l71-44.66 9.13-5.74a7.128 7.128 0 0 0 2.203-2.514 7.854 7.854 0 0 0 .897-3.335l-.03-162.04Zm-13.23 171.767-.82.522-70.11 44.094a.965.965 0 0 1-.4.201.922.922 0 0 1-.44-.005c-.13-.087-.26-.392-.26-.893V101.313a5.566 5.566 0 0 1 .631-2.246 5.094 5.094 0 0 1 1.469-1.72l70.04-44.114 10-6.307a.96.96 0 0 1 .399-.202.923.923 0 0 1 .441.006c.13.087.26.392.26.893v162.104a5.585 5.585 0 0 1-.632 2.246 5.1 5.1 0 0 1-1.468 1.719l-9.13 5.741h.02Z"/>
  <path fill="#407BFF" d="M209.619 85.322c9-5.642 16.25-1.089 16.25 10.228 0 11.318-7.28 25.054-16.25 30.652-8.97 5.599-16.25 1.09-16.25-10.217s7.28-25.01 16.25-30.663Z"/>
  <path fill="#407BFF" d="M209.619 94.21c2.91-1.83 5.27-.348 5.27 3.268a13.53 13.53 0 0 1-1.544 5.659c-.915 1.728-2.192 3.197-3.726 4.286-2.91 1.83-5.27.349-5.27-3.267a13.516 13.516 0 0 1 1.543-5.66c.916-1.727 2.192-3.196 3.727-4.285Zm10.27 19.52c0-6.012-3.87-8.452-8.66-5.446l-3 1.884c-4.78 3.007-8.66 10.327-8.66 16.339v1.623c2.77.992 6.25.458 10-1.928 4.154-2.791 7.667-6.58 10.27-11.077l.05-1.395Z"/>
  <path fill="#fff" d="M209.619 94.21c2.91-1.83 5.27-.348 5.27 3.268a13.53 13.53 0 0 1-1.544 5.659c-.915 1.728-2.192 3.197-3.726 4.286-2.91 1.83-5.27.349-5.27-3.267a13.516 13.516 0 0 1 1.543-5.66c.916-1.727 2.192-3.196 3.727-4.285Zm10.27 19.52c0-6.012-3.87-8.452-8.66-5.446l-3 1.884c-4.78 3.007-8.66 10.327-8.66 16.339v1.623c2.77.992 6.25.458 10-1.928 4.154-2.791 7.667-6.58 10.27-11.077l.05-1.395Z" opacity=".7"/>
  <path fill="#407BFF" d="m178.179 151.092 20.91-13.147c1-.599 1.73-.12 1.73 1.089v.752a4.438 4.438 0 0 1-.506 1.859 4.033 4.033 0 0 1-1.224 1.408l-20.91 13.148c-.95.599-1.73.109-1.73-1.09v-.751a4.449 4.449 0 0 1 .506-1.859 4.045 4.045 0 0 1 1.224-1.409Z"/>
  <path fill="#000" d="m178.179 151.092 20.91-13.147c1-.599 1.73-.12 1.73 1.089v.752a4.438 4.438 0 0 1-.506 1.859 4.033 4.033 0 0 1-1.224 1.408l-20.91 13.148c-.95.599-1.73.109-1.73-1.09v-.751a4.449 4.449 0 0 1 .506-1.859 4.045 4.045 0 0 1 1.224-1.409Z" opacity=".1"/>
  <path fill="#407BFF" d="m177.319 166.963 63.26-39.78c.47-.305.86-.066.86.544v8.039a2.262 2.262 0 0 1-.254.927 2.048 2.048 0 0 1-.606.707l-63.26 39.78c-.48.305-.87.054-.87-.545v-8.038a2.21 2.21 0 0 1 .256-.93c.151-.284.361-.525.614-.704Z"/>
  <path fill="#fff" d="m177.319 166.963 63.26-39.78c.47-.305.86-.066.86.544v8.039a2.262 2.262 0 0 1-.254.927 2.048 2.048 0 0 1-.606.707l-63.26 39.78c-.48.305-.87.054-.87-.545v-8.038a2.21 2.21 0 0 1 .256-.93c.151-.284.361-.525.614-.704Z" opacity=".2"/>
  <path fill="#407BFF" d="m178.179 186.853 20.91-13.148c1-.599 1.73-.109 1.73 1.09v.751a4.423 4.423 0 0 1-.505 1.86 4.026 4.026 0 0 1-1.225 1.408l-20.91 13.147c-.95.61-1.73.12-1.73-1.089v-.751a4.473 4.473 0 0 1 .508-1.858 4.062 4.062 0 0 1 1.222-1.41Z"/>
  <path fill="#000" d="m178.179 186.853 20.91-13.148c1-.599 1.73-.109 1.73 1.09v.751a4.423 4.423 0 0 1-.505 1.86 4.026 4.026 0 0 1-1.225 1.408l-20.91 13.147c-.95.61-1.73.12-1.73-1.089v-.751a4.473 4.473 0 0 1 .508-1.858 4.062 4.062 0 0 1 1.222-1.41Z" opacity=".1"/>
  <path fill="#407BFF" d="m177.319 202.723 63.26-39.78c.47-.305.86-.054.86.545v8.039a2.266 2.266 0 0 1-.254.927 2.067 2.067 0 0 1-.606.707l-63.26 39.78c-.48.305-.87.065-.87-.545v-8.039c.017-.327.104-.646.256-.93.151-.284.361-.525.614-.704Z"/>
  <path fill="#fff" d="m177.319 202.723 63.26-39.78c.47-.305.86-.054.86.545v8.039a2.266 2.266 0 0 1-.254.927 2.067 2.067 0 0 1-.606.707l-63.26 39.78c-.48.305-.87.065-.87-.545v-8.039c.017-.327.104-.646.256-.93.151-.284.361-.525.614-.704Z" opacity=".2"/>
  <path fill="#407BFF" d="m202.549 207.287 25-15.696c1-.61 1.74-.12 1.74 1.089v8.409a4.448 4.448 0 0 1-.51 1.862 4.033 4.033 0 0 1-1.23 1.406l-25 15.707c-1 .599-1.73.109-1.73-1.089v-8.42c.034-.654.209-1.29.509-1.857a4.1 4.1 0 0 1 1.221-1.411Z"/>
  <path fill="#000" d="m202.549 207.287 25-15.696c1-.61 1.74-.12 1.74 1.089v8.409a4.448 4.448 0 0 1-.51 1.862 4.033 4.033 0 0 1-1.23 1.406l-25 15.707c-1 .599-1.73.109-1.73-1.089v-8.42c.034-.654.209-1.29.509-1.857a4.1 4.1 0 0 1 1.221-1.411Z" opacity=".1"/>
  <path fill="#EBEBEB" d="m318.349 25.816-1.65 1.089c.138-.64.215-1.293.23-1.95 0-3.649-2.35-5.12-5.25-3.268a9.521 9.521 0 0 0-2.33 2.179c0-4.902-3.16-6.895-7.06-4.444-2.055 1.46-3.766 3.427-4.992 5.741a18.131 18.131 0 0 0-2.068 7.58v.73a4.004 4.004 0 0 0-2.87.719 12.253 12.253 0 0 0-3.712 4.267 13.48 13.48 0 0 0-1.538 5.634c-.001.462.043.922.13 1.373l-.88.556c-2.39 1.503-4.33 4.433-4.33 6.535 0 2.102 1.94 2.603 4.33 1.09l32-20.098c2.39-1.503 4.33-4.433 4.33-6.535 0-2.102-1.95-2.712-4.34-1.198Z"/>
</svg>
