<svg xmlns="http://www.w3.org/2000/svg" width="74" height="101" fill="none" viewBox="0 0 74 101">
  <g filter="url(#a)">
    <path fill="#252C3D" d="M69.358 68.385c.355 12.817-13.517 23.547-30.983 23.967-17.466.42-31.912-9.63-32.266-22.447-.355-12.817 13.517-23.547 30.983-23.967 17.465-.42 31.912 9.63 32.266 22.447Z"/>
    <path fill="#fff" fill-rule="evenodd" d="M58.708 82.642c5.054-3.909 7.796-8.96 7.651-14.185-.144-5.224-3.162-10.137-8.425-13.799-5.261-3.66-12.598-5.917-20.76-5.721-8.161.196-15.363 2.802-20.415 6.71-5.054 3.91-7.796 8.961-7.651 14.186.144 5.224 3.162 10.137 8.425 13.799 5.261 3.66 12.598 5.917 20.76 5.721 8.161-.196 15.363-2.802 20.415-6.71Zm-20.333 9.71c17.466-.42 31.338-11.15 30.983-23.967-.354-12.817-14.8-22.867-32.267-22.447-17.465.42-31.337 11.15-30.982 23.967.354 12.817 14.8 22.867 32.266 22.447Z" clip-rule="evenodd"/>
    <path fill="#fff" d="M68.989 25.947c0 14.33-14.548 25.948-32.495 25.948C18.548 51.895 4 40.278 4 25.947 4 11.617 18.548 0 36.494 0 54.441 0 68.99 11.617 68.99 25.947Z"/>
    <path fill="#fff" d="M38.235 77.384 9.67 39.784l55.019-.931-26.454 38.53Z"/>
    <path fill="#252C3D" fill-rule="evenodd" d="m53.087 61.856-4.72-10.029 6.254-4.942 4.719 10.029-6.253 4.942Z" clip-rule="evenodd"/>
    <path fill="#252C3D" d="M31 54V17h13.735c2.49 0 4.638.5 6.446 1.5 1.818.987 3.22 2.408 4.205 4.263.985 1.843 1.477 4.029 1.477 6.558 0 2.566-.503 4.746-1.51 6.54-1.006 1.783-2.435 3.144-4.286 4.083-1.85.928-4.042 1.391-6.575 1.391h-8.686V34.29h7.192c1.213 0 2.224-.174 3.036-.523.823-.362 1.445-.904 1.867-1.626.422-.735.634-1.675.634-2.819s-.211-2.09-.634-2.836c-.422-.759-1.044-1.325-1.867-1.698-.822-.386-1.834-.578-3.036-.578h-3.961V54H31Zm18.72-16.91L58 54h-8.767l-8.118-16.91h8.605Z"/>
    <path fill="#fff" fill-rule="evenodd" d="m8.883 39.026 1.558-1.251c4.561 5.605 10.816 13.24 14.765 17.937l.574.681.407-.308c1.164 1.535 1.944 2.589 2.394 3.229.215.306.385.56.478.734.024.044.062.117.093.203a1.017 1.017 0 0 1-.132.967l9.489 11.975-1.567 1.24-28.06-35.407Zm17.357-4.772.103-10.4L41.015 24l-.103 10.4-14.672-.146Z" clip-rule="evenodd"/>
    <path fill="#252C3D" fill-rule="evenodd" d="M4 17h27v7H4v-7Z" clip-rule="evenodd"/>
  </g>
  <defs>
    <filter id="a" width="73.365" height="100.365" x="0" y="0" color-interpolation-filters="sRGB" filterUnits="userSpaceOnUse">
      <feFlood flood-opacity="0" result="BackgroundImageFix"/>
      <feColorMatrix in="SourceAlpha" result="hardAlpha" values="0 0 0 0 0 0 0 0 0 0 0 0 0 0 0 0 0 0 127 0"/>
      <feOffset dy="4"/>
      <feGaussianBlur stdDeviation="2"/>
      <feComposite in2="hardAlpha" operator="out"/>
      <feColorMatrix values="0 0 0 0 0 0 0 0 0 0 0 0 0 0 0 0 0 0 0.25 0"/>
      <feBlend in2="BackgroundImageFix" result="effect1_dropShadow_14_204"/>
      <feBlend in="SourceGraphic" in2="effect1_dropShadow_14_204" result="shape"/>
    </filter>
  </defs>
</svg>
