<svg xmlns="http://www.w3.org/2000/svg" width="25" height="30" fill="none" viewBox="0 0 34 28">
  <path fill="#fff" d="M32.738 3.162 22.52.538l-10.25 2.65L2.74.708A1.492 1.492 0 0 0 2.11.68a1.436 1.436 0 0 0-.575.234c-.17.117-.307.27-.401.444a1.176 1.176 0 0 0-.144.561v21.463c0 .329.118.649.334.911.216.262.52.453.864.544l10.078 2.625L22.52 24.81l9.678 2.485c.205.053.419.061.627.025.208-.037.404-.117.573-.235a1.29 1.29 0 0 0 .4-.443c.094-.174.143-.366.143-.56V4.618c0-.33-.119-.65-.336-.913a1.665 1.665 0 0 0-.868-.544ZM11.082 25.057 3.187 23V2.92l7.895 2.055v20.081Zm10.34-2.058-8.143 2.106V5.023l8.143-2.106V23Zm10.323 2.085-8.127-2.086V2.915L31.745 5v20.083Z"/>
</svg>
