<svg xmlns="http://www.w3.org/2000/svg" width="370" height="404" fill="none" viewBox="0 0 370 404">
  <path fill="#F0F0F0" d="M184.859 389.868c99.41 0 179.998-50.801 179.998-113.467 0-62.667-80.588-113.468-179.998-113.468S4.862 213.734 4.862 276.401c0 62.666 80.588 113.467 179.997 113.467Z"/>
  <path fill="#E0E0E0" d="M277.063 339.578c29.267 0 52.992-14.955 52.992-33.403 0-18.447-23.725-33.402-52.992-33.402-29.266 0-52.991 14.955-52.991 33.402 0 18.448 23.725 33.403 52.991 33.403ZM81.859 322.505l-12.121-7.635a3.361 3.361 0 0 0-1.64-.431 3.36 3.36 0 0 0-1.639.431l-9.035 5.696a3.45 3.45 0 0 1-1.643.42 3.45 3.45 0 0 1-1.643-.42l-30.591-19.287c-.91-.574-.91-1.503 0-2.069l101.424-63.945a3.376 3.376 0 0 1 1.643-.43c.571 0 1.134.147 1.643.43l30.599 19.255c.197.077.367.218.487.405.121.186.185.409.185.637 0 .229-.064.451-.185.638a1.03 1.03 0 0 1-.487.405l-9.05 5.809a1.013 1.013 0 0 0-.494.397 1.165 1.165 0 0 0-.188.637c0 .229.066.452.188.637.122.186.295.325.494.398l12.106 7.522c.199.071.373.208.497.393.123.185.189.408.189.637 0 .229-.066.452-.189.637a1.012 1.012 0 0 1-.497.394l-76.775 48.439a3.361 3.361 0 0 1-1.64.431 3.36 3.36 0 0 1-1.638-.431Z"/>
  <path fill="#F0F0F0" d="m309.246 49.013 5.38 3.394a6.813 6.813 0 0 1-.045-.808v-1.673c0-3.03 1.947-4.258 4.352-2.739a8.747 8.747 0 0 1 2.59 2.723c.392-3.813 3.13-5.236 6.46-3.135 3.589 2.263 6.504 7.773 6.504 12.306v2.553a7.33 7.33 0 0 1-.547 2.95l4.44 2.82a5.63 5.63 0 0 1 1.706 1.963 6.2 6.2 0 0 1 .706 2.593c0 1.681-1.08 2.368-2.412 1.528l-29.134-18.39a5.649 5.649 0 0 1-1.706-1.968 6.224 6.224 0 0 1-.706-2.598c0-1.68 1.08-2.359 2.412-1.519ZM272.89 56.64l2.96 1.245v-7.134c0-5.657 4.129-7.022 8.621-4.194 4.492 2.836 8.14 9.696 8.14 15.352v1.042a4.013 4.013 0 0 1 1.953-.159c.654.11 1.277.38 1.821.79 1.701 1.212 3.118 2.846 4.133 4.768a15.083 15.083 0 0 1 1.713 6.293v.501l4.144 2.61a9.032 9.032 0 0 1 2.718 3.135 9.956 9.956 0 0 1 1.13 4.137c0 2.683-1.724 3.765-3.848 2.424L272.89 66.353a9.013 9.013 0 0 1-2.72-3.134 9.928 9.928 0 0 1-1.128-4.138c0-2.69 1.724-3.781 3.848-2.44Z"/>
  <path fill="#407BFF" d="m319.68 210.177-5.92-3.749s-3.537-16.055-2.124-30.494c1.976-20.305 14.223-27.949 18.878-26.195 4.654 1.753 6.001 7.659-1.702 19.755-4.551 7.135-10.131 22.002-9.132 40.683Z"/>
  <path fill="#000" d="m319.68 210.177-5.92-3.749s-3.537-16.055-2.124-30.494c1.976-20.305 14.223-27.949 18.878-26.195 4.654 1.753 6.001 7.659-1.702 19.755-4.551 7.135-10.131 22.002-9.132 40.683Z" opacity=".15"/>
  <path fill="#fff" d="M317.238 202.291h.052a.425.425 0 0 0 .263-.189.499.499 0 0 0 .07-.336c-3.264-18.73 2.73-39.778 10.153-48.529a.475.475 0 0 0 .12-.319.475.475 0 0 0-.12-.319.4.4 0 0 0-.293-.132.4.4 0 0 0-.292.132c-7.555 8.888-13.668 30.308-10.36 49.288.011.11.058.212.133.286a.394.394 0 0 0 .274.118Z"/>
  <path fill="#407BFF" d="M335.272 219.994c.932.525 3.433-1.81 4.129-2.383a9.454 9.454 0 0 0 2.731-3.79 9.648 9.648 0 0 0 .488-5.357 22.66 22.66 0 0 0-.74-2.812c-.289-.905-.57-1.818-.858-2.723a7.539 7.539 0 0 1-.496-2.763c.133-1.899 1.606-3.313 2.96-4.533 1.48-1.341 3.012-3.103 2.901-5.373-.199-1.758-.922-3.397-2.058-4.662-1.058-1.325-2.294-2.473-3.263-3.879a5.966 5.966 0 0 1-1.214-3.474c.061-.786.268-1.55.607-2.246.666-1.527 1.576-2.933 2.006-4.549.429-1.616.273-3.596-.918-4.671-.977-.888-2.368-.937-3.633-.808a7.776 7.776 0 0 0-3.271 1.463c-3.212 2.19-4.906 6.569-8.34 8.306a33.399 33.399 0 0 1-4.196 1.366c-1.391.484-2.797 1.357-3.382 2.811-1.161 2.885 1.392 6.214.622 9.244-.681 2.683-2.96 3.822-4.188 6.278a6.119 6.119 0 0 0-.459 3.491 17.724 17.724 0 0 0 1.606 5.761 52.557 52.557 0 0 0 3.174 5.333s15.644 9.889 15.792 9.97Z"/>
  <path fill="#fff" d="M326.17 214.815a.416.416 0 0 0 .282-.161.436.436 0 0 0 .078-.155.501.501 0 0 0 .017-.177c-1.48-17.776 5.284-37.976 10.627-43.979a.485.485 0 0 0-.033-.618.396.396 0 0 0-.283-.124.397.397 0 0 0-.284.119c-5.439 6.157-12.373 26.624-10.848 44.691a.439.439 0 0 0 .145.303.389.389 0 0 0 .299.101Z"/>
  <path fill="#fff" d="M327.82 192.853a.293.293 0 0 0 .118 0 51.552 51.552 0 0 1 11.722-2.771.406.406 0 0 0 .275-.16.484.484 0 0 0 .095-.325.436.436 0 0 0-.143-.314.386.386 0 0 0-.308-.098 52.552 52.552 0 0 0-11.974 2.796.41.41 0 0 0-.235.229.489.489 0 0 0-.009.345c.032.1.096.186.18.24a.378.378 0 0 0 .279.058Z"/>
  <path fill="#407BFF" d="m145.077 41.151-83.117 52.4a6.588 6.588 0 0 0-1.983 2.292 7.261 7.261 0 0 0-.821 3.024v213.732c0 1.955 1.258 2.755 2.804 1.769l83.117-52.39a6.587 6.587 0 0 0 1.983-2.293c.487-.924.769-1.96.822-3.024V42.921c0-1.956-1.258-2.747-2.805-1.77Zm-1.243 200.91c0 1.672-1.073 2.739-2.405 3.579l-76.102 47.979c-1.324.808-2.405.154-2.405-1.527V114.93c0-.92.22-1.825.641-2.622a5.039 5.039 0 0 1 1.757-1.919l76.101-48.003a1.502 1.502 0 0 1 1.606.004c.244.153.446.374.588.64.142.265.217.567.219.875V242.06Z"/>
  <path fill="#000" d="m145.077 41.151-83.117 52.4a6.588 6.588 0 0 0-1.983 2.292 7.261 7.261 0 0 0-.821 3.024v213.732c0 1.955 1.258 2.755 2.804 1.769l83.117-52.39a6.587 6.587 0 0 0 1.983-2.293c.487-.924.769-1.96.822-3.024V42.921c0-1.956-1.258-2.747-2.805-1.77Zm-1.243 200.91c0 1.672-1.073 2.739-2.405 3.579l-76.102 47.979c-1.324.808-2.405.154-2.405-1.527V114.93c0-.92.22-1.825.641-2.622a5.039 5.039 0 0 1 1.757-1.919l76.101-48.003a1.502 1.502 0 0 1 1.606.004c.244.153.446.374.588.64.142.265.217.567.219.875V242.06Z" opacity=".3"/>
  <path fill="#407BFF" d="M143.834 242.061c0 1.672-1.073 2.739-2.405 3.579l-76.102 47.979c-1.324.808-2.405.154-2.405-1.527V114.93c0-.92.22-1.825.641-2.622a5.038 5.038 0 0 1 1.757-1.919l76.101-48.003c.245-.153.522-.232.803-.232.282.001.559.082.803.236.243.154.446.374.588.64.142.266.217.567.219.875V242.06Z"/>
  <path fill="#407BFF" d="M143.834 242.061c0 1.672-1.073 2.739-2.405 3.579l-76.102 47.979c-1.324.808-2.405.154-2.405-1.527V114.93c0-.92.22-1.825.641-2.622a5.038 5.038 0 0 1 1.757-1.919l76.101-48.003c.245-.153.522-.232.803-.232.282.001.559.082.803.236.243.154.446.374.588.64.142.266.217.567.219.875V242.06Z"/>
  <path fill="#000" d="M143.834 242.061c0 1.672-1.073 2.739-2.405 3.579l-76.102 47.979c-1.324.808-2.405.154-2.405-1.527V114.93c0-.92.22-1.825.641-2.622a5.038 5.038 0 0 1 1.757-1.919l76.101-48.003c.245-.153.522-.232.803-.232.282.001.559.082.803.236.243.154.446.374.588.64.142.266.217.567.219.875V242.06Z" opacity=".5"/>
  <path fill="#407BFF" d="m65.327 293.619 76.102-47.987a6.929 6.929 0 0 0 1.435-1.164L62.9 194.073v98.019c0 1.681 1.103 2.359 2.427 1.527Z"/>
  <path fill="#000" d="m65.327 293.619 76.102-47.987a6.929 6.929 0 0 0 1.435-1.164L62.9 194.073v98.019c0 1.681 1.103 2.359 2.427 1.527Z" opacity=".4"/>
  <path fill="#455A64" d="M137.677 236.639V64.753L65.32 110.39a5.035 5.035 0 0 0-1.77 1.915 5.607 5.607 0 0 0-.65 2.626v170.9l72.342-45.612c1.362-.84 2.435-1.907 2.435-3.579Z"/>
  <path fill="#407BFF" d="M61.612 314.562a5.82 5.82 0 0 1-2.656.542 5.866 5.866 0 0 1-2.62-.727l-3.211-2.029a6.535 6.535 0 0 1-1.986-2.287 7.212 7.212 0 0 1-.819-3.021V93.308a6.09 6.09 0 0 1 .488-2.295c.1-.254.21-.502.333-.743l8.88 5.575a8.193 8.193 0 0 0-.525 1.115 6.113 6.113 0 0 0-.34 1.899v213.748c0 1.802 1.073 2.618 2.456 1.955Z"/>
  <path fill="#000" d="M61.612 314.562a5.82 5.82 0 0 1-2.656.542 5.866 5.866 0 0 1-2.62-.727l-3.211-2.029a6.535 6.535 0 0 1-1.986-2.287 7.212 7.212 0 0 1-.819-3.021V93.308a6.09 6.09 0 0 1 .488-2.295c.1-.254.21-.502.333-.743l8.88 5.575a8.193 8.193 0 0 0-.525 1.115 6.113 6.113 0 0 0-.34 1.899v213.748c0 1.802 1.073 2.618 2.456 1.955Z" opacity=".5"/>
  <path fill="#263238" d="M105.361 274.162c1.436 0 1.591 1.762 1.591 2.513a10.493 10.493 0 0 1-1.187 4.303 9.538 9.538 0 0 1-2.816 3.276 3.063 3.063 0 0 1-1.554.534c-1.436 0-1.591-1.762-1.591-2.513a10.498 10.498 0 0 1 1.187-4.303 9.538 9.538 0 0 1 2.816-3.276 3.063 3.063 0 0 1 1.554-.534m0-.945a3.82 3.82 0 0 0-1.983.663 10.377 10.377 0 0 0-3.139 3.617 11.447 11.447 0 0 0-1.301 4.778c0 2.189.999 3.458 2.457 3.458a3.82 3.82 0 0 0 1.983-.663 10.377 10.377 0 0 0 3.139-3.617 11.45 11.45 0 0 0 1.301-4.778c0-2.189-1.006-3.458-2.457-3.458Z"/>
  <path fill="#000" d="M103.459 70.506c1.036-.654 1.88-.121 1.88 1.188a4.853 4.853 0 0 1-.55 2.027 4.41 4.41 0 0 1-1.33 1.536c-1.043.655-1.887.13-1.887-1.188a4.86 4.86 0 0 1 .553-2.028 4.402 4.402 0 0 1 1.334-1.535Zm-10.13 12.718L113.7 70.377c.873-.55 1.576-.154 1.576.872a3.894 3.894 0 0 1-.474 1.63c-.274.494-.652.91-1.102 1.215L93.329 86.949c-.866.541-1.569.153-1.569-.873a3.91 3.91 0 0 1 .471-1.631 3.539 3.539 0 0 1 1.098-1.221Z"/>
  <path fill="#407BFF" d="M147.852 42.436c-.2-1.616-1.369-2.173-2.775-1.285l-83.117 52.4a6 6 0 0 0-1.983 2.294l-8.88-5.575a5.986 5.986 0 0 1 1.99-2.287l83.14-52.431a5.8 5.8 0 0 1 2.812-.733c.977 0 1.94.25 2.812.733l3.226 2.02a6.631 6.631 0 0 1 1.874 2.1c.479.84.787 1.783.901 2.764Z"/>
  <path fill="#000" d="M147.852 42.436c-.2-1.616-1.369-2.173-2.775-1.285l-83.117 52.4a6 6 0 0 0-1.983 2.294l-8.88-5.575a5.986 5.986 0 0 1 1.99-2.287l83.14-52.431a5.8 5.8 0 0 1 2.812-.733c.977 0 1.94.25 2.812.733l3.226 2.02a6.631 6.631 0 0 1 1.874 2.1c.479.84.787 1.783.901 2.764Z" opacity=".4"/>
  <path fill="#E0E0E0" d="m158.989 74.102-80.912 50.944v183.238l4.581 2.869 80.912-51.025V76.962l-4.581-2.86Z"/>
  <path fill="#FAFAFA" d="M163.577 258.067c0 1.673-1.08 2.739-2.412 3.572L85.1 309.618c-1.325.808-2.405.161-2.405-1.519V130.896c0-.919.222-1.821.643-2.617a5.04 5.04 0 0 1 1.755-1.916l76.072-47.987a1.496 1.496 0 0 1 1.608-.003c.245.154.448.376.589.643.141.268.215.57.215.88v178.171Z"/>
  <path fill="#E0E0E0" d="M161.964 78.91a.888.888 0 0 1 .647.295c.171.188.268.441.27.706v178.156c0 1.123-.636 2.02-2.064 2.917l-76.094 47.979a1.395 1.395 0 0 1-.74.259c-.555 0-.637-.703-.637-1.124V130.896a4.816 4.816 0 0 1 .551-2.238c.36-.68.877-1.246 1.499-1.64l76.116-47.971a.85.85 0 0 1 .452-.138m0-.751c-.281 0-.556.08-.799.234l-76.11 48.003a5.043 5.043 0 0 0-1.747 1.902 5.611 5.611 0 0 0-.65 2.599v177.202c0 1.196.54 1.883 1.332 1.883.38-.019.75-.144 1.073-.363l76.102-47.98c1.332-.808 2.412-1.898 2.412-3.571V79.911a1.847 1.847 0 0 0-.475-1.24 1.547 1.547 0 0 0-1.138-.513Z"/>
  <path fill="#455A64" d="m161.165 78.376-78.507 49.53v19.287l80.919-51.041v-19.19s-1.347.751-2.412 1.414ZM82.658 293.005v18.148l80.919-51.026v-18.131l-80.919 51.009Z"/>
  <path fill="#263238" d="m78.077 144.333 4.581 2.869v-19.296l-4.58-2.86v19.287Z"/>
  <path fill="#37474F" d="m163.57 76.962-4.581-2.86-80.912 50.944 4.581 2.86 80.912-50.944Z"/>
  <path fill="#263238" d="m82.658 292.981-4.58-2.861v18.164l4.58 2.869v-18.172Z"/>
  <path fill="#FAFAFA" d="M93.98 126.282a.273.273 0 0 1 0-.105v-.509l-.74.461c-.044 0-.06 0-.06-.073v-.178a.429.429 0 0 1 0-.105.31.31 0 0 1 0-.097l.778-2.319v-.088a.173.173 0 0 1 .052-.057l.103-.057h.067a.22.22 0 0 1 0 .114v1.785l.163-.097h.059a.193.193 0 0 1 0 .113v.122a.312.312 0 0 1 0 .129.111.111 0 0 1-.022.043.107.107 0 0 1-.037.03l-.163.105v.509a.312.312 0 0 1 0 .129.229.229 0 0 1-.067.081l-.126.072s.037.009-.007-.008Zm0-1.082v-1.269l-.525 1.616.525-.347Zm.903.226a1.835 1.835 0 0 1-.215-1.043 3.71 3.71 0 0 1 .215-1.317c.115-.335.328-.619.607-.808a.618.618 0 0 1 .296-.121c.071-.03.15-.03.222 0a.054.054 0 0 1 0 .049.202.202 0 0 1 0 .056l-.067.267a.12.12 0 0 1 0 .056.407.407 0 0 0-.377.065c-.187.13-.33.323-.407.55a2.62 2.62 0 0 0-.156.969c-.028.28.023.562.148.808.096.129.23.138.4 0l.177-.145c.055-.051.105-.108.148-.17v-.808l-.31.194h-.06a.193.193 0 0 1 0-.113v-.113a.31.31 0 0 1 0-.13.11.11 0 0 1 .022-.043.094.094 0 0 1 .038-.029l.488-.307h.074a.245.245 0 0 1 0 .129v1.188a.473.473 0 0 1 0 .105.156.156 0 0 1 0 .072 1.627 1.627 0 0 1-.577.631c-.318.202-.526.194-.666.008Zm65.231-43.947a.255.255 0 0 0-.052-.076.211.211 0 0 0-.161-.057.2.2 0 0 0-.083.028l-2.938 1.85a1.267 1.267 0 0 0-.264.445 1.35 1.35 0 0 0-.069.525v1.785c-.01.2.034.4.126.574a.291.291 0 0 0 .118.121.188.188 0 0 0 .17 0l2.916-1.834c.119-.124.212-.275.271-.443.059-.167.083-.348.069-.527v-1.793a1.105 1.105 0 0 0-.103-.598Zm-3.338 4.848a.565.565 0 0 1-.051-.267v-1.794a1.031 1.031 0 0 1 .057-.398.97.97 0 0 1 .202-.337l2.915-1.826a.088.088 0 0 1 .096 0 .577.577 0 0 1 .045.267v1.785a1.04 1.04 0 0 1-.056.403.983.983 0 0 1-.203.34l-2.901 1.827a.076.076 0 0 1-.055.012.083.083 0 0 1-.049-.028v.016Z"/>
  <path fill="#FAFAFA" d="M159.766 82.23v1.527a.864.864 0 0 1-.101.391.77.77 0 0 1-.262.288l-2.375 1.487a.054.054 0 0 1-.059 0 .062.062 0 0 1-.022-.024.073.073 0 0 1-.008-.033V84.25c-.005-.1.009-.2.042-.293a.7.7 0 0 1 .151-.248l2.523-1.616a.08.08 0 0 1 .061-.023.08.08 0 0 1 .057.03.093.093 0 0 1 .021.067.092.092 0 0 1-.028.063Zm.585-.234c.074-.057.141.202.141.565v.332c.032.28-.02.563-.148.808l-.149.113v-1.697l.156-.121Zm-59.297 39.349a1.3 1.3 0 0 1-.108.549 1.192 1.192 0 0 1-.321.437c-.229.146-.422-.056-.422-.444a1.334 1.334 0 0 1 .107-.546c.073-.171.181-.322.315-.44.237-.145.429.057.429.444Z"/>
  <path fill="#FAFAFA" d="M100.64 119.729c-.492.396-.84.968-.984 1.616-.037.146 0 .283.044.324.082.056.2-.057.244-.243.101-.458.347-.862.696-1.139a.421.421 0 0 1 .199-.091.402.402 0 0 1 .214.022c.069.026.13.071.18.129.049.059.084.13.103.207.051.121.17.088.251-.073a.491.491 0 0 0 .045-.38.733.733 0 0 0-.153-.286.648.648 0 0 0-.256-.179.612.612 0 0 0-.583.093Z"/>
  <path fill="#FAFAFA" d="M100.64 118.59a4.384 4.384 0 0 0-1.48 2.36c-.044.153 0 .307 0 .355.081.057.192-.056.244-.226a3.562 3.562 0 0 1 1.236-1.931.788.788 0 0 1 .337-.156.756.756 0 0 1 .366.018.797.797 0 0 1 .323.188.903.903 0 0 1 .217.321c.052.105.163.073.244-.08a.52.52 0 0 0 0-.404 1.087 1.087 0 0 0-.265-.377.982.982 0 0 0-.384-.22.93.93 0 0 0-.435-.024.963.963 0 0 0-.403.176Zm18.863-10.318a.125.125 0 0 1 0-.081.233.233 0 0 1 0-.105l.606-1.196a.61.61 0 0 1 .052-.08.152.152 0 0 1 .052-.065l.215-.137a.052.052 0 0 1 .059 0 .111.111 0 0 1 0 .072v3.055a.265.265 0 0 1 0 .105.19.19 0 0 1-.059.072l-.222.146a.064.064 0 0 1-.03.008.064.064 0 0 1-.03-.008.114.114 0 0 1 0-.073v-2.335l-.399.808a.127.127 0 0 1-.02.034.077.077 0 0 1-.032.022h-.052l-.14-.242Zm1.42-.913v-.089a.524.524 0 0 1 0-.097l.615-1.196.044-.081a.098.098 0 0 1 .02-.034.087.087 0 0 1 .032-.022l.214-.146a.064.064 0 0 1 .03-.008c.01 0 .021.003.03.008a.114.114 0 0 1 0 .073v3.054a.308.308 0 0 1 0 .105.188.188 0 0 1-.06.073l-.222.146a.038.038 0 0 1-.025.009.04.04 0 0 1-.026-.009.114.114 0 0 1 0-.073v-2.335l-.393.808a.123.123 0 0 1-.059.056h-.052l-.148-.242Zm1.865-1.309a.042.042 0 0 1 .059 0 .102.102 0 0 1 0 .073v.46a.233.233 0 0 1 0 .105.177.177 0 0 1-.059.073l-.259.162h-.052a.114.114 0 0 1 0-.073v-.469a.308.308 0 0 1 0-.105.172.172 0 0 1 .052-.072l.259-.154Zm0 1.656a.047.047 0 0 1 .03-.012c.011 0 .021.005.029.012a.11.11 0 0 1 0 .081v.485a.265.265 0 0 1 0 .105.19.19 0 0 1-.059.073l-.259.161h-.052a.136.136 0 0 1 0-.08v-.461a.308.308 0 0 1 0-.105.175.175 0 0 1 .052-.073l.259-.186Zm1.532-.242a.043.043 0 0 1-.026.009.043.043 0 0 1-.026-.009.114.114 0 0 1 0-.073v-.573l-.873.549a.043.043 0 0 1-.026.009.043.043 0 0 1-.026-.009.114.114 0 0 1 0-.073v-.339a.351.351 0 0 1 0-.121 1.588 1.588 0 0 1 0-.138l.866-2.343a.406.406 0 0 1 .111-.194l.215-.137a.04.04 0 0 1 .026-.009c.009 0 .018.003.025.009a.102.102 0 0 1 0 .073v1.89l.245-.153a.04.04 0 0 1 .026-.009c.009 0 .018.003.025.009a.102.102 0 0 1 0 .073v.339a.309.309 0 0 1 0 .105s0 .057-.051.065l-.245.153v.574a.265.265 0 0 1 0 .105.182.182 0 0 1-.051.073l-.215.145Zm-.074-1.244v-1.01l-.481 1.309.481-.299Zm1.177-2.634a.233.233 0 0 1 0-.105.182.182 0 0 1 .051-.073l1.059-.663h.051a.102.102 0 0 1 0 .073v.339a.265.265 0 0 1 0 .105.182.182 0 0 1-.051.073l-.792.493v.63a.741.741 0 0 1 .155-.161l.119-.081a.58.58 0 0 1 .296-.113.291.291 0 0 1 .229.056.537.537 0 0 1 .155.251c.043.138.063.283.06.428 0 .188-.02.375-.06.557-.037.158-.092.31-.162.453-.06.128-.138.245-.23.347-.084.1-.181.184-.288.251a.78.78 0 0 1-.333.129.307.307 0 0 1-.23-.056.462.462 0 0 1-.14-.21 1.361 1.361 0 0 1-.052-.324.265.265 0 0 1 0-.105.265.265 0 0 1 .052-.072l.229-.138a.043.043 0 0 1 .026-.009c.009 0 .018.003.026.009a.178.178 0 0 1 0 .065.434.434 0 0 0 .052.145.175.175 0 0 0 .088.057c.034.011.07.011.104 0a.323.323 0 0 0 .126-.065.728.728 0 0 0 .259-.307 1.05 1.05 0 0 0 .096-.46.342.342 0 0 0-.096-.291.208.208 0 0 0-.13-.046.208.208 0 0 0-.129.046.385.385 0 0 0-.133.105l-.03.121-.052.089-.066.056-.259.162h-.052a.102.102 0 0 1 0-.073l.052-1.688Zm-39.502 28.175v-.986l.785-.493v.986l-.785.493Zm1.177-.736v-1.971l.777-.493v1.971l-.777.493Zm1.169-.743v-2.949l.785-.493v2.949l-.785.493Zm1.177-.735v-3.943l.777-.493v3.943l-.777.493Zm62.693-42.146 2.834-2.747-.873 4.032-.415-1.673-1.546.388Z"/>
  <path fill="#FAFAFA" d="m88.748 133.32 68.739-43.414c.54-.34.984-.064.984.622v3.337a2.582 2.582 0 0 1-.292 1.06c-.171.323-.408.6-.692.807l-68.739 43.414c-.547.339-.984.064-.984-.622v-3.337a2.54 2.54 0 0 1 .287-1.062c.171-.325.41-.6.697-.805Z" opacity=".5"/>
  <path fill="#FAFAFA" d="M112.806 119.859a.459.459 0 0 1 .303-.081.36.36 0 0 1 .237.153c.073.097.126.21.155.332.04.152.06.31.059.468.005.068.005.135 0 .202.004.068.004.135 0 .202a3.047 3.047 0 0 1-.214 1.075 2.032 2.032 0 0 1-.237.444c-.08.125-.183.23-.303.307a.676.676 0 0 1-.193.089.46.46 0 0 1-.148 0 .18.18 0 0 1-.103 0 .302.302 0 0 1-.074-.064v.129a.312.312 0 0 1 0 .129.127.127 0 0 1-.025.049.11.11 0 0 1-.042.032l-.259.17a.042.042 0 0 1-.059 0 .099.099 0 0 1-.01-.045c0-.015.003-.03.01-.044v-3.822a.256.256 0 0 1 0-.129.189.189 0 0 1 .059-.089l.259-.162h.067a.113.113 0 0 1 0 .089v1.22a1.35 1.35 0 0 1 .074-.153c.029-.063.064-.123.103-.178a1.11 1.11 0 0 1 .148-.178.752.752 0 0 1 .193-.145Zm.318 1.196a.657.657 0 0 0-.141-.453.222.222 0 0 0-.281 0 .78.78 0 0 0-.281.348c-.084.171-.13.362-.133.557a1.586 1.586 0 0 0 0 .218c-.005.07-.005.14 0 .21a.51.51 0 0 0 .133.396c.04.034.09.053.14.053a.219.219 0 0 0 .141-.053.782.782 0 0 0 .281-.347 1.68 1.68 0 0 0 .141-.622v-.307Zm1.835-1.802a.671.671 0 0 0-.296.339 1.444 1.444 0 0 0-.089.55v1.494a.357.357 0 0 1 0 .122.164.164 0 0 1-.066.088l-.259.162a.057.057 0 0 1-.067 0 .16.16 0 0 1 0-.097v-2.674a.357.357 0 0 1 0-.122.21.21 0 0 1 .067-.089l.259-.161a.046.046 0 0 1 .033-.013c.012 0 .024.004.033.013a.16.16 0 0 1 0 .097v.129a1.91 1.91 0 0 1 .185-.331c.076-.097.166-.179.267-.243l.155-.097a.028.028 0 0 1 .013-.011.034.034 0 0 1 .017-.005c.005 0 .011.002.016.005.005.002.01.006.013.011.007.014.01.029.01.045a.095.095 0 0 1-.01.044v.38c.01.043.01.087 0 .129a.162.162 0 0 1-.059.081l-.222.154Zm1.524-1.713a.701.701 0 0 1 .333-.113c.098 0 .192.037.267.105a.659.659 0 0 1 .177.291c.047.142.072.292.074.444a.557.557 0 0 1 0 .129v.315a2.66 2.66 0 0 1-.074.679 2.892 2.892 0 0 1-.177.509 2.08 2.08 0 0 1-.267.436 1.329 1.329 0 0 1-.333.307.693.693 0 0 1-.34.122.441.441 0 0 1-.266-.105.657.657 0 0 1-.178-.291 1.739 1.739 0 0 1-.074-.437v-.581a2.746 2.746 0 0 1 .252-1.059c.071-.157.16-.304.266-.436.095-.126.211-.233.34-.315Zm.415 1.034a1.053 1.053 0 0 0-.052-.267.317.317 0 0 0-.096-.121.171.171 0 0 0-.126 0 .33.33 0 0 0-.141.065.46.46 0 0 0-.14.113.925.925 0 0 0-.126.17c-.045.078-.08.162-.104.25a1.95 1.95 0 0 0-.044.444v.291a.37.37 0 0 0 0 .105.963.963 0 0 0 .044.267.216.216 0 0 0 .09.12.182.182 0 0 0 .14.025.656.656 0 0 0 .14-.064l.141-.113c.047-.055.089-.114.126-.178.04-.079.073-.163.096-.251.027-.105.044-.213.052-.323v-.533Zm2.686-1.147.311-1.843a.92.92 0 0 1 0-.105.117.117 0 0 1 .022-.054.106.106 0 0 1 .044-.035l.259-.161a.044.044 0 0 1 .03-.012c.011 0 .021.004.03.012a.132.132 0 0 1 0 .097v.04l-.518 2.974c.002.037.002.075 0 .113a.168.168 0 0 1-.067.089l-.259.161h-.067a.275.275 0 0 1 0-.081l-.333-1.317-.325 1.738v.121a.152.152 0 0 1-.067.089l-.259.161h-.066a.217.217 0 0 1 0-.072l-.518-2.319a.405.405 0 0 1 0-.13.29.29 0 0 1 .066-.089l.259-.161h.067a.18.18 0 0 1 0 .073l.311 1.446.325-1.85a1.084 1.084 0 0 1 0-.114.17.17 0 0 1 .067-.08l.259-.17a.042.042 0 0 1 .059 0 .18.18 0 0 1 0 .073l.37 1.406Zm2.19-1.035a.1.1 0 0 0 .003-.049.098.098 0 0 0-.022-.043.078.078 0 0 0-.084-.021h-.163l-.252.065a.44.44 0 0 1-.244 0 .317.317 0 0 1-.163-.097.532.532 0 0 1-.081-.21 1.749 1.749 0 0 1 0-.307c.001-.123.016-.245.044-.364a1.873 1.873 0 0 1 .363-.735c.085-.106.185-.196.296-.267a.71.71 0 0 1 .296-.121.326.326 0 0 1 .222 0 .3.3 0 0 1 .148.146.695.695 0 0 1 .059.234c.01.042.01.087 0 .129a.158.158 0 0 1-.066.089l-.267.162a.07.07 0 0 1-.037.011.07.07 0 0 1-.037-.011h-.052a.133.133 0 0 0-.088 0 .37.37 0 0 0-.148.064.747.747 0 0 0-.185.17.362.362 0 0 0-.074.234v.089a.074.074 0 0 0 .074 0 .524.524 0 0 0 .148 0l.244-.064a.37.37 0 0 1 .224-.032.395.395 0 0 1 .205.104.786.786 0 0 1 .118.493 1.72 1.72 0 0 1-.044.372c-.04.133-.089.263-.148.388-.07.127-.152.246-.244.355-.092.11-.2.202-.318.275a.705.705 0 0 1-.319.129.367.367 0 0 1-.236 0 .449.449 0 0 1-.148-.169.63.63 0 0 1-.052-.243.281.281 0 0 1 0-.129.158.158 0 0 1 .066-.089l.259-.17h.074l.06.049a.147.147 0 0 0 .088 0 .372.372 0 0 0 .178-.073l.104-.081a.628.628 0 0 0 .103-.097.376.376 0 0 0 .074-.121.208.208 0 0 0 .022-.065Zm.896-1.195a3.117 3.117 0 0 1 .059-.647c.034-.205.089-.406.163-.598.069-.178.159-.347.266-.501.095-.136.213-.251.348-.339a.515.515 0 0 1 .348-.097.447.447 0 0 1 .266.145.984.984 0 0 1 .163.364c.044.168.064.342.059.517v.259a.35.35 0 0 1 0 .129.29.29 0 0 1-.066.089l-1.14.719a.57.57 0 0 0 0 .21c.019.046.05.085.089.113.04.016.085.016.126 0a.388.388 0 0 0 .148-.056.837.837 0 0 0 .288-.316.813.813 0 0 1 .067-.105l.059-.056.274-.17h.066c.015 0 0 .049 0 .097-.012.08-.032.159-.059.234a1.916 1.916 0 0 1-.148.348 2.507 2.507 0 0 1-.244.355 1.35 1.35 0 0 1-.333.299.564.564 0 0 1-.348.105.34.34 0 0 1-.148-.045.392.392 0 0 1-.118-.108.905.905 0 0 1-.163-.38 2.325 2.325 0 0 1-.022-.565Zm.836-1.39a.54.54 0 0 0-.17.153 1.275 1.275 0 0 0-.119.202c0 .073-.051.146-.074.218-.022.073 0 .138 0 .202l.74-.492a1.46 1.46 0 0 0 0-.162.379.379 0 0 0-.066-.137.134.134 0 0 0-.111-.049.274.274 0 0 0-.2.065Zm2.213-1.342a.773.773 0 0 0-.296.34 1.402 1.402 0 0 0-.089.549v1.495c.01.042.01.087 0 .129a.156.156 0 0 1-.067.089l-.259.162a.037.037 0 0 1-.013.012.032.032 0 0 1-.016.004.033.033 0 0 1-.017-.004.037.037 0 0 1-.013-.012.099.099 0 0 1-.01-.045c0-.015.003-.03.01-.044v-2.675a.256.256 0 0 1 0-.129.194.194 0 0 1 .059-.089l.259-.161h.067c.006.013.01.029.01.044a.114.114 0 0 1-.01.045v.137c.052-.118.116-.23.192-.331.074-.095.162-.177.259-.243l.156-.097a.073.073 0 0 1 .066 0c.01.029.01.061 0 .089v.38a.35.35 0 0 1 0 .129.269.269 0 0 1-.066.089l-.222.137Zm.947.825a.066.066 0 0 1 .066 0c.01.028.01.06 0 .089v.565a.399.399 0 0 1 0 .129.388.388 0 0 1-.066.089l-.318.194a.057.057 0 0 1-.067 0 .178.178 0 0 1 0-.097v-.557a.355.355 0 0 1 0-.13.264.264 0 0 1 .067-.088l.318-.194Zm1.051-1.479a1.702 1.702 0 0 0 0 .202 1.256 1.256 0 0 0 0 .194c.002.093.017.186.044.275a.31.31 0 0 0 .096.145.182.182 0 0 0 .126.041.41.41 0 0 0 .141-.057.54.54 0 0 0 .14-.113.528.528 0 0 0 .104-.121c.025-.047.047-.096.066-.146 0-.048.037-.105.06-.161l.044-.13a.253.253 0 0 1 .067-.097l.259-.161a.044.044 0 0 1 .015-.012.037.037 0 0 1 .018-.005.04.04 0 0 1 .018.005.044.044 0 0 1 .015.012c.007.014.01.029.01.044a.099.099 0 0 1-.01.045c-.01.109-.027.217-.052.323a2.258 2.258 0 0 1-.407.856 1.465 1.465 0 0 1-.377.348.554.554 0 0 1-.34.105.413.413 0 0 1-.259-.121.829.829 0 0 1-.178-.307 2.053 2.053 0 0 1-.074-.679 2.9 2.9 0 0 1 .252-1.325c.067-.163.154-.316.259-.453a1.32 1.32 0 0 1 .34-.323.695.695 0 0 1 .377-.129.398.398 0 0 1 .259.105.68.68 0 0 1 .148.234c.027.087.044.176.052.267.01.039.01.081 0 .121a.205.205 0 0 1-.066.089l-.259.161a.058.058 0 0 1-.015.013.058.058 0 0 1-.019.004.058.058 0 0 1-.018-.004.037.037 0 0 1-.015-.013l-.044-.072a.77.77 0 0 0-.06-.089.24.24 0 0 0-.066-.057h-.104a.614.614 0 0 0-.14.065.525.525 0 0 0-.141.129.762.762 0 0 0-.126.194c-.039.083-.071.17-.096.259a2.262 2.262 0 0 0-.044.339Zm2.567-2.965a.628.628 0 0 1 .341-.122.394.394 0 0 1 .259.106c.078.081.138.18.177.29.05.142.075.293.074.445a.557.557 0 0 1 0 .129v.323a2.669 2.669 0 0 1-.074.671 2.892 2.892 0 0 1-.177.509 2.507 2.507 0 0 1-.259.436 1.343 1.343 0 0 1-.341.307.693.693 0 0 1-.34.122.365.365 0 0 1-.266-.106.676.676 0 0 1-.178-.282 1.554 1.554 0 0 1-.074-.445.695.695 0 0 1 0-.129v-.315a2.669 2.669 0 0 1 .074-.679c.042-.179.102-.352.178-.517.071-.157.16-.304.266-.436.094-.126.209-.231.34-.307Zm.407 1.026a.71.71 0 0 0-.044-.259.29.29 0 0 0-.096-.129.171.171 0 0 0-.126 0 .451.451 0 0 0-.141.065.754.754 0 0 0-.266.291.752.752 0 0 0-.096.242 1.483 1.483 0 0 0-.052.444v.291a.427.427 0 0 0 0 .113.692.692 0 0 0 .052.259c.015.055.05.102.096.129a.171.171 0 0 0 .126 0 .709.709 0 0 0 .14-.064l.141-.114a1.18 1.18 0 0 0 .126-.177c.092-.175.141-.373.14-.574a.427.427 0 0 0 0-.113v-.291a.524.524 0 0 0 0-.097v-.016Zm1.458-1.859c.048-.135.112-.263.193-.379a.843.843 0 0 1 .244-.243.432.432 0 0 1 .355-.089.406.406 0 0 1 .215.219c.029-.095.066-.187.111-.275a1.68 1.68 0 0 1 .133-.243c.048-.068.1-.132.155-.193.048-.049.1-.092.156-.13a.418.418 0 0 1 .318-.089.296.296 0 0 1 .214.154c.059.112.097.235.111.364.013.164.013.328 0 .492v1.544a.351.351 0 0 1 0 .121.21.21 0 0 1-.066.089l-.259.161a.05.05 0 0 1-.034.014.049.049 0 0 1-.033-.014.178.178 0 0 1 0-.097v-1.511a.867.867 0 0 0-.089-.492c-.059-.065-.14-.065-.244 0a.646.646 0 0 0-.237.29 1.558 1.558 0 0 0-.103.59v1.592c.01.042.01.087 0 .129a.197.197 0 0 1-.059.089l-.267.162a.037.037 0 0 1-.013.012.032.032 0 0 1-.016.004.033.033 0 0 1-.017-.004.037.037 0 0 1-.013-.012.099.099 0 0 1-.01-.045c0-.015.003-.03.01-.044v-1.519a.87.87 0 0 0-.089-.485c-.059-.073-.14-.065-.251 0a.703.703 0 0 0-.237.307 1.487 1.487 0 0 0-.096.606v1.519c.01.04.01.082 0 .121a.16.16 0 0 1-.067.089l-.259.162a.05.05 0 0 1-.033.013.055.055 0 0 1-.034-.013.199.199 0 0 1 0-.097v-2.675a.464.464 0 0 1 0-.129.24.24 0 0 1 .067-.081l.259-.169a.047.047 0 0 1 .033-.014c.012 0 .024.005.034.014a.113.113 0 0 1 0 .089l-.082.096Zm24.339-16.563c0-.13-.111-.106-.163 0l-.266.702c-.452-.056-.999.429-1.369 1.277-.474 1.107-.474 2.424 0 2.917a.661.661 0 0 0 .427.2.649.649 0 0 0 .446-.144 2.6 2.6 0 0 0 .866-1.147.409.409 0 0 0 0-.372c-.06-.064-.163 0-.222.138-.356.808-.94 1.196-1.295.808a2.278 2.278 0 0 1-.273-1.087c0-.382.094-.758.273-1.087.251-.59.621-.937.939-.953l-.199.525c-.052.145 0 .275.074.21l.791-.557a.307.307 0 0 0 .089-.235l-.118-1.196Zm-66.83 210.896a.363.363 0 0 1-.266-.122l-2.22-2.375a.437.437 0 0 1-.081-.477l2.227-5.26a.418.418 0 0 1 .087-.131.36.36 0 0 1 .416-.071.41.41 0 0 1 .19.236.454.454 0 0 1-.012.313l-2.146 4.97 2.072 2.165a.447.447 0 0 1 0 .59.396.396 0 0 1-.267.162Zm12.351-7.668a.409.409 0 0 1-.163-.041.407.407 0 0 1-.193-.239.447.447 0 0 1 .016-.318l2.146-4.961-2.072-2.174a.438.438 0 0 1 .007-.566.356.356 0 0 1 .518-.024l2.264 2.376a.416.416 0 0 1 .114.223.438.438 0 0 1-.032.253l-2.265 5.228a.384.384 0 0 1-.137.177.349.349 0 0 1-.203.066Zm19.44-12.088a.64.64 0 0 1-.363-.105.926.926 0 0 1-.302-.371c-.068-.15-.1-.318-.09-.486v-4.355c0-.337.074-.669.215-.968.142-.3.347-.558.599-.753l.651-.412a.278.278 0 0 1 .228-.029.308.308 0 0 1 .182.153c.04.075.051.165.031.249a.332.332 0 0 1-.137.201l-.652.412a1.464 1.464 0 0 0-.375.51 1.593 1.593 0 0 0-.135.637v4.355c0 .17.044.259.089.283.044.024.133 0 .266-.056l3.456-2.182c.19-.138.348-.322.463-.538a1.72 1.72 0 0 0 .195-.706v-4.355a.451.451 0 0 0-.088-.324.229.229 0 0 0-.094.004.236.236 0 0 0-.084.045l-.74.452a.284.284 0 0 1-.229.03.307.307 0 0 1-.185-.151.352.352 0 0 1-.031-.251.329.329 0 0 1 .142-.201l.74-.453a.747.747 0 0 1 .386-.138.742.742 0 0 1 .398.09.97.97 0 0 1 .307.39c.069.158.098.333.085.507v4.355c-.016.365-.111.72-.278 1.036a2.214 2.214 0 0 1-.684.782l-3.448 2.181c-.158.1-.336.155-.518.162Z"/>
  <path fill="#FAFAFA" d="M123.536 278.13a.303.303 0 0 1-.213-.099.36.36 0 0 1-.091-.232v-6.658c0-.088.032-.173.089-.235a.292.292 0 0 1 .215-.097c.08 0 .157.035.214.097a.348.348 0 0 1 .089.235v6.658a.348.348 0 0 1-.089.234.291.291 0 0 1-.214.097Z"/>
  <path fill="#FAFAFA" d="M122.026 274.429a.321.321 0 0 1-.148-.04.34.34 0 0 1-.143-.2.368.368 0 0 1 .025-.253l1.539-2.965a.333.333 0 0 1 .185-.154.28.28 0 0 1 .237.041l1.539 1.018a.33.33 0 0 1 .133.205.359.359 0 0 1-.115.345.28.28 0 0 1-.336.015l-1.273-.808-1.384 2.659a.307.307 0 0 1-.113.105.279.279 0 0 1-.146.032Zm13.031-.218h-.081a.274.274 0 0 1-.134-.109.32.32 0 0 1-.051-.174v-7.7a.325.325 0 0 1 .044-.17c1.443-2.311 2.96-3.232 4.44-2.723a.27.27 0 0 1 .14.106.315.315 0 0 1 .053.177v7.7a.325.325 0 0 1-.026.135.303.303 0 0 1-.078.108.24.24 0 0 1-.244.04c-1.243-.396-2.531.445-3.833 2.489a.265.265 0 0 1-.1.094.227.227 0 0 1-.13.027Zm.274-7.902v6.714c1.177-1.616 2.383-2.294 3.589-2.084v-7.095c-1.162-.266-2.375.558-3.589 2.465Z"/>
  <path fill="#FAFAFA" d="M139.194 271.609h-.081a.284.284 0 0 1-.137-.108.327.327 0 0 1-.056-.175v-7.7c0-.059.018-.116.052-.161 1.443-2.311 2.96-3.232 4.44-2.723a.256.256 0 0 1 .141.104.301.301 0 0 1 .051.178v7.701a.286.286 0 0 1-.111.234.258.258 0 0 1-.236.048c-1.244-.404-2.539.437-3.834 2.489a.275.275 0 0 1-.102.087.244.244 0 0 1-.127.026Zm.274-7.902v6.714c1.176-1.616 2.375-2.302 3.589-2.084v-7.103c-1.174-.263-2.371.561-3.589 2.473Zm11.899-1.277a.69.69 0 0 1-.377-.113.962.962 0 0 1-.318-.391 1.073 1.073 0 0 1-.089-.514v-5.034a2.7 2.7 0 0 1 .31-1.153c.187-.352.448-.649.763-.867l3.988-2.521a.788.788 0 0 1 .445-.186.767.767 0 0 1 .465.111.87.87 0 0 1 .333.373.97.97 0 0 1 .089.51v.752a.295.295 0 0 1-.076.2.247.247 0 0 1-.183.083.25.25 0 0 1-.183-.083.3.3 0 0 1-.076-.2v-.752c0-.21-.052-.363-.148-.42a.403.403 0 0 0-.407.073l-3.988 2.513a1.908 1.908 0 0 0-.573.663 2.116 2.116 0 0 0-.241.872v5.034a.39.39 0 0 0 .002.241.361.361 0 0 0 .143.184.3.3 0 0 0 .218.041.323.323 0 0 0 .192-.119l.592-.379a.248.248 0 0 1 .197-.026.275.275 0 0 1 .191.236.299.299 0 0 1-.129.283l-.592.371c-.162.125-.351.2-.548.218Z"/>
  <path fill="#FAFAFA" d="M152.899 263.408a.7.7 0 0 1-.378-.105.956.956 0 0 1-.314-.392c-.07-.16-.1-.337-.085-.513v-5.05c.015-.405.118-.8.303-1.151.184-.352.443-.65.755-.869l3.996-2.521a.845.845 0 0 1 .918-.073.958.958 0 0 1 .32.395c.072.161.102.34.087.518v5.034c-.018.405-.124.8-.309 1.151a2.46 2.46 0 0 1-.757.869l-3.996 2.513a1.022 1.022 0 0 1-.54.194Zm4.832-10.197a.526.526 0 0 0-.289.105l-3.996 2.513c-.234.17-.428.398-.568.664-.14.266-.221.565-.238.871v5.034a.483.483 0 0 0 .14.412.417.417 0 0 0 .407-.065l3.996-2.521a1.92 1.92 0 0 0 .567-.66c.14-.265.222-.562.24-.867v-5.034c0-.21-.052-.363-.148-.42a.175.175 0 0 0-.111-.048v.016Z"/>
  <path fill="#407BFF" d="M142.687 169.454c-.884-2.797-2.459-5.272-4.551-7.151-1.922-1.651-4.304-2.535-6.749-2.505-2.93.108-5.782 1.052-8.273 2.739-3.127 2.047-5.92 4.646-8.266 7.692a56.544 56.544 0 0 0-6.756 11.013 67.438 67.438 0 0 0-4.551 12.888 57.263 57.263 0 0 0-1.665 13.324 34.517 34.517 0 0 0 1.665 11.223c.889 2.793 2.463 5.267 4.551 7.151 1.92 1.659 4.307 2.544 6.756 2.505 2.927-.107 5.778-1.051 8.266-2.739 3.13-2.041 5.926-4.638 8.273-7.685a57.154 57.154 0 0 0 6.749-11.013 66.7 66.7 0 0 0 4.551-12.928 56.823 56.823 0 0 0 1.672-13.323 34.323 34.323 0 0 0-1.672-11.191Zm-.466 12.572a48.61 48.61 0 0 1-.548 7.143l-6.386 4.04c.375-2.707.568-5.44.577-8.177a45.079 45.079 0 0 0-.511-6.908l6.061-3.814c.561 2.525.832 5.118.807 7.716Zm-5.595-16.531c1.812 1.627 3.194 3.752 4.004 6.156l-5.846 3.685a27.492 27.492 0 0 0-.74-2.489 20.23 20.23 0 0 0-3.974-6.932 15.134 15.134 0 0 0-2.524-2.238 9.291 9.291 0 0 1 4.741-.288 9.723 9.723 0 0 1 4.339 2.106Zm-12.439.347a12.786 12.786 0 0 1 4.262 3.159 18.474 18.474 0 0 1 3.634 6.335c.155.461.31.937.444 1.422l-8.34 5.26v-16.176Zm8.969 13.687c.391 2.267.582 4.57.569 6.877a55.356 55.356 0 0 1-.636 8.168l-8.88 5.616v-14.996l8.947-5.665Zm-20.365 20.047c.007-2.538.195-5.072.562-7.579l8.695-5.486v15.004l-8.628 5.43a41.311 41.311 0 0 1-.629-7.369Zm9.257-32.102v15.869l-8.088 5.107c.133-.639.281-1.277.429-1.915a71.797 71.797 0 0 1 3.604-10.868 72.85 72.85 0 0 1 4.055-8.169v-.024Zm-12.439 15.029c2.343-5.148 5.548-9.771 9.45-13.631a89.832 89.832 0 0 0-2.62 5.607 77.947 77.947 0 0 0-3.959 11.975 91.608 91.608 0 0 0-.74 3.418l-6.127 3.862a60.015 60.015 0 0 1 3.996-11.207v-.024Zm-4.788 14.875 6.342-3.999a57.323 57.323 0 0 0-.511 7.546 45.349 45.349 0 0 0 .577 7.41l-6.66 4.201a35.769 35.769 0 0 1-.547-6.464c.01-2.911.278-5.814.799-8.67v-.024Zm4.788 25.234c-2.098-1.909-3.625-4.458-4.388-7.32l6.586-4.154c.192.808.407 1.544.651 2.279a24.93 24.93 0 0 0 3.951 7.587 18.754 18.754 0 0 0 3.101 3.167c-3.73 1.326-7.163.808-9.901-1.535v-.024Zm8.488-4.614a22.967 22.967 0 0 1-3.656-7.021c-.133-.412-.266-.808-.385-1.253l7.992-5.041v17.032a16.84 16.84 0 0 1-3.951-3.692v-.025Zm6.09 2.723v-17.356l8.273-5.219a66.57 66.57 0 0 1-.363 1.672 83.94 83.94 0 0 1-3.626 11.587 93.613 93.613 0 0 1-4.284 9.341v-.025Zm12.439-15.142c-2.362 5.196-5.604 9.857-9.553 13.736a98.677 98.677 0 0 0 3.034-6.924 89.694 89.694 0 0 0 3.944-12.573c.244-1.042.466-2.076.659-3.094l6.304-3.976a60.274 60.274 0 0 1-4.388 12.856v-.025Zm76.22-170.496a5.66 5.66 0 0 0-.653-2.37 5.123 5.123 0 0 0-1.567-1.79l-1.798-1.132a4.535 4.535 0 0 0-2.22-.586c-.772 0-1.533.201-2.22.586l-26.292 16.66a5.168 5.168 0 0 0-1.565 1.792 5.702 5.702 0 0 0-.655 2.37v33.282a5.66 5.66 0 0 0 .653 2.37 5.142 5.142 0 0 0 1.567 1.79l1.791 1.132a4.53 4.53 0 0 0 2.201.575c.765 0 1.52-.197 2.202-.575l26.359-16.66a5.137 5.137 0 0 0 1.567-1.79c.386-.724.61-1.536.653-2.372l-.023-33.282Z"/>
  <path fill="#000" d="M175.891 83.895a5.69 5.69 0 0 0 .654 2.374c.385.724.922 1.34 1.566 1.795l1.791 1.123a4.526 4.526 0 0 0 4.025.194c-1.036.428-1.82-.21-1.82-1.616V54.524a5.273 5.273 0 0 1 .644-2.376l-6.194-3.902a5.226 5.226 0 0 0-.651 2.367l-.015 33.282Z" opacity=".2"/>
  <path fill="#fff" d="M212.772 34.405c-.251-1.026-1.102-1.35-2.124-.711L184.26 50.363a4.582 4.582 0 0 0-1.554 1.794l-6.194-3.903a4.703 4.703 0 0 1 1.554-1.794l26.352-16.669a4.573 4.573 0 0 1 2.22-.58c.771 0 1.532.2 2.22.58l1.798 1.131a5.11 5.11 0 0 1 1.385 1.505 5.57 5.57 0 0 1 .731 1.978Z" opacity=".5"/>
  <path fill="#FAFAFA" d="M193.739 77.964c-4.299 0-7.185-4.275-7.185-10.633 0-8.186 4.44-17.397 10.123-21.008a8.43 8.43 0 0 1 4.492-1.455c4.292 0 7.185 4.274 7.185 10.633 0 8.186-4.44 17.397-10.13 21.008a8.448 8.448 0 0 1-4.485 1.455Z"/>
  <path fill="#407BFF" d="M201.169 46.056a7.511 7.511 0 0 0-3.974 1.3c-5.298 3.346-9.62 12.315-9.62 19.999 0 5.777 2.413 9.51 6.157 9.51a7.537 7.537 0 0 0 3.966-1.293c5.306-3.345 9.62-12.314 9.62-20.006.008-5.81-2.412-9.51-6.149-9.51Z"/>
  <path fill="#FAFAFA" d="M193.88 75.597c-3.16 0-5.38-3.232-5.38-8.541 0-7.175 4.004-15.514 8.932-18.584a6.742 6.742 0 0 1 3.545-1.172c3.167 0 5.379 3.192 5.379 8.54 0 7.176-3.996 15.522-8.924 18.585a6.717 6.717 0 0 1-3.552 1.172Z"/>
  <path fill="#407BFF" d="m196.463 60.624.991.808.992.808 4.802-12.976-6.785 11.36Z"/>
  <path fill="#E0E0E0" d="m191.66 73.6 6.786-11.36-.992-.808-.991-.808-4.803 12.977Z"/>
  <path fill="#407BFF" d="M212.846 95.271a5.672 5.672 0 0 0-.654-2.37 5.154 5.154 0 0 0-1.566-1.791l-1.798-1.131a4.535 4.535 0 0 0-2.22-.586c-.772 0-1.533.2-2.22.586l-26.292 16.677a5.167 5.167 0 0 0-1.565 1.791 5.703 5.703 0 0 0-.655 2.37v33.282a5.69 5.69 0 0 0 .654 2.374 5.163 5.163 0 0 0 1.566 1.795l1.791 1.123a4.533 4.533 0 0 0 2.201.575c.765 0 1.52-.197 2.202-.575l26.359-16.661a5.138 5.138 0 0 0 1.567-1.789c.386-.724.61-1.536.653-2.372l-.023-33.298Z"/>
  <path fill="#000" d="M175.891 144.082c.044.837.268 1.65.654 2.375a5.163 5.163 0 0 0 1.566 1.795l1.791 1.123c.62.343 1.299.537 1.993.571a4.528 4.528 0 0 0 2.032-.377c-1.036.428-1.82-.21-1.82-1.616v-33.217a5.276 5.276 0 0 1 .644-2.376l-6.194-3.902a5.223 5.223 0 0 0-.651 2.367l-.015 33.257Z" opacity=".2"/>
  <path fill="#fff" d="M212.772 94.593c-.251-1.026-1.102-1.35-2.124-.711L184.26 110.55a4.584 4.584 0 0 0-1.554 1.793l-6.194-3.902a4.696 4.696 0 0 1 1.554-1.794l26.352-16.669a4.572 4.572 0 0 1 2.22-.58c.771 0 1.532.199 2.22.58l1.798 1.131a5.11 5.11 0 0 1 1.385 1.504c.364.599.613 1.272.731 1.979Z" opacity=".5"/>
  <path fill="#fff" d="M197.491 135.009c.555-1.867 2.553-8.622 3.463-11.046a15.065 15.065 0 0 0 1.184-5.171c0-1.923-.569-3.377-1.576-4.04l5.461-3.442c.433 1.427.64 2.925.615 4.428 0 7.377-4.093 15.966-9.147 19.271Z"/>
  <path fill="#407BFF" d="M197.491 135.009c.555-1.867 2.553-8.622 3.463-11.046a15.065 15.065 0 0 0 1.184-5.171c0-1.923-.569-3.377-1.576-4.04l5.461-3.442c.433 1.427.64 2.925.615 4.428 0 7.377-4.093 15.966-9.147 19.271Z"/>
  <path fill="#fff" d="M206.638 115.714c0 7.401-4.093 16.014-9.147 19.295.555-1.867 2.553-8.622 3.463-11.046a15.065 15.065 0 0 0 1.184-5.171c0-1.923-.569-3.377-1.576-4.04l5.461-3.442c.43 1.42.638 2.908.615 4.404Zm-9.302-.784c-2.065 1.325-3.856 4.476-4.396 7.644l-2.545-4.978a25.503 25.503 0 0 1 3.196-5.656 15.558 15.558 0 0 1 3.959-3.789 6.156 6.156 0 0 1 2.357-1.043 5.907 5.907 0 0 1 2.542.033c1.264.404 2.328 1.34 2.96 2.602l-8.073 5.187Z"/>
  <path fill="#407BFF" d="M190.395 117.596a25.503 25.503 0 0 1 3.196-5.656 15.558 15.558 0 0 1 3.959-3.789 6.156 6.156 0 0 1 2.357-1.043 5.907 5.907 0 0 1 2.542.033c1.264.404 2.328 1.34 2.96 2.602l-8.044 5.187c-2.064 1.325-3.855 4.476-4.395 7.644l-2.575-4.978Z"/>
  <path fill="#fff" d="m205.38 109.743-8.044 5.187c-2.065 1.325-3.856 4.476-4.396 7.644l-2.545-4.978a25.503 25.503 0 0 1 3.196-5.656 15.558 15.558 0 0 1 3.959-3.789 6.156 6.156 0 0 1 2.357-1.043 5.907 5.907 0 0 1 2.542.033c1.253.412 2.306 1.347 2.931 2.602Zm-9.465 26.09a4.726 4.726 0 0 1-2.463.447 4.827 4.827 0 0 1-2.362-.883c-1.82-1.374-2.827-4.162-2.827-7.862a25.26 25.26 0 0 1 1.318-7.733c.673 1.212 2.834 5.082 3.47 6.723.162.507.421.971.76 1.36.34.389.752.694 1.209.894.425.135.872.167 1.31.091a2.856 2.856 0 0 0 1.22-.527c.352-.234.682-.504.985-.808l-2.62 8.298Z"/>
  <path fill="#407BFF" d="M191.09 135.397c-1.82-1.374-2.827-4.162-2.827-7.862a25.26 25.26 0 0 1 1.318-7.733c.673 1.212 2.834 5.082 3.47 6.723.162.507.421.971.76 1.36.34.389.752.694 1.209.894.425.135.872.167 1.31.091a2.856 2.856 0 0 0 1.22-.527c.352-.234.682-.504.985-.808l-2.62 8.274a4.721 4.721 0 0 1-2.46.458 4.816 4.816 0 0 1-2.365-.87Z"/>
  <path fill="#fff" d="m198.535 127.559-2.62 8.274a4.726 4.726 0 0 1-2.463.447 4.827 4.827 0 0 1-2.362-.883c-1.82-1.374-2.827-4.162-2.827-7.862a25.26 25.26 0 0 1 1.318-7.733c.673 1.212 2.834 5.082 3.47 6.723.162.507.421.971.76 1.36.34.389.752.694 1.209.894.425.135.872.167 1.31.091a2.856 2.856 0 0 0 1.22-.527c.351-.226.681-.488.985-.784Z"/>
  <path fill="#fff" d="M200.496 119.713c0 2.424-1.362 5.293-3.042 6.351-1.68 1.059-3.049-.065-3.049-2.513s1.362-5.292 3.049-6.359c1.687-1.066 3.042.065 3.042 2.521Z"/>
  <path fill="#407BFF" d="M212.846 155.459a5.687 5.687 0 0 0-.654-2.37 5.15 5.15 0 0 0-1.566-1.791l-1.798-1.131a4.534 4.534 0 0 0-2.22-.586c-.772 0-1.533.201-2.22.586l-26.351 16.661a5.167 5.167 0 0 0-1.565 1.791 5.688 5.688 0 0 0-.655 2.37v33.281c.044.837.268 1.65.653 2.375a5.175 5.175 0 0 0 1.567 1.795l1.79 1.123a4.54 4.54 0 0 0 2.202.575c.765 0 1.519-.197 2.201-.575l26.359-16.661a5.125 5.125 0 0 0 1.568-1.79 5.66 5.66 0 0 0 .652-2.371l.037-33.282Z"/>
  <path fill="#000" d="M175.891 204.27c.044.837.268 1.65.654 2.375a5.163 5.163 0 0 0 1.566 1.795l1.791 1.123a4.527 4.527 0 0 0 4.025.194c-1.036.428-1.82-.21-1.82-1.616V174.9a5.272 5.272 0 0 1 .644-2.376l-6.194-3.903a5.23 5.23 0 0 0-.651 2.368l-.015 33.281Z" opacity=".2"/>
  <path fill="#fff" d="M212.772 154.781c-.251-1.026-1.102-1.35-2.124-.711l-26.388 16.669a4.58 4.58 0 0 0-1.554 1.794l-6.194-3.903a4.71 4.71 0 0 1 1.554-1.794l26.352-16.669a4.574 4.574 0 0 1 2.22-.58c.771 0 1.532.199 2.22.58l1.798 1.131a5.11 5.11 0 0 1 1.385 1.505 5.57 5.57 0 0 1 .731 1.978Z" opacity=".5"/>
  <path fill="#fff" d="M188.271 186.503c.325-7.402 4.196-15.514 9.117-18.584 5.661-3.564 9.25 0 9.25 8.023v3.369l-12.714 8.016c0 2.092 1.036 4.169 3.945 3.191 2.908-.977 5.868-5.155 6.867-6.553v6.117a22.66 22.66 0 0 1-6.135 5.939c-3.789 2.424-8.199 1.212-8.199-5.923.026-4.968 1.728-9.752 4.78-13.437a12.46 12.46 0 0 0-1.258 5.252l7.038-4.436c0-2.925-.429-3.725-.984-4.185-.555-.461-2.413-1.139-6.224 3.385-3.811 4.525-4.958 8-5.483 9.826Z"/>
  <path fill="#263238" d="M260.717 307.145c-.045 1.802-1.591 6.327-1.591 6.327s-1.066 1.406-3.7 1.761l.525-6.771 4.766-1.317Z"/>
  <path fill="#000" d="m255.404 315.233-4.81-3.45v-5.486l5.113 5.025-.303 3.911Z"/>
  <path fill="#455A64" d="m253.235 298.354.237-1.123c-.814.17-3.53 6.254-6.734 9.938-2.96 3.37-7.333 4.428-9.013 5.769-2.22 1.802.274 5.729 5.809 6.06 2.745.162 7.119-.492 8.658-2.084 1.539-1.592 2.775-5.002 3.996-6.149 1.221-1.147 3.7-2.149 4.529-3.62.459-.808.533-2.812.481-4.525-.052-1.616-.096-3.312-.592-3.288-.037.178-.222.937-.222.937-.244.743-1.236 1.406-4.055.719-1.273-.315-3.478-1.123-3.094-2.634Z"/>
  <path fill="#263238" d="M312.317 278.542c.74 1.422 1.317 10.779 1.317 10.779s-2.353 2.957-3.611 3.789l-2.827-9.114 5.121-5.454Z"/>
  <path fill="#000" d="m310.023 293.11-6.675-2.569-1.939-6.077 6.905 3.055 1.709 5.591Z"/>
  <path fill="#455A64" d="M307.462 272.837c.481-.476 1.096.534 2.324 2.037a19.248 19.248 0 0 1 2.494 3.482c.695 1.543-1.362 4.945-2.694 6.803-1.332 1.859-1.687 3.636-1.976 6.464-.347 3.434 0 5.6-4.188 8.177-3.345 2.061-9.679 1.721-10.915.138-2.109-2.715 3.759-5.349 5.18-10.181 1.954-6.674 2.22-7.797 2.531-12.589l7.244-4.331Z"/>
  <path fill="#FFA8A7" d="M256.107 180.653c2.826 2.149 4.44 4.848 17.612 3.442l1.561 41.377s10.493 7.984 13.453 13.187c2.96 5.204 16.828 31.116 16.828 31.116l1.99 3.184c1.236 1.979.607 3.563-1.206 4.904-1.813 1.341-3.907 1.98-5.306.315l-1.709-2.036s-33.907-35.915-35.069-38.081c-1.161-2.165-3.7-7.514-6.016-18.39-2.945-13.954-2.656-23.763-2.138-39.018Z"/>
  <path fill="#F28F8F" d="M256.144 205.321c.39 4.832 1.097 9.628 2.116 14.35 2.279 10.876 4.862 16.225 6.016 18.39a38.326 38.326 0 0 0 2.783 3.321c2.405 2.707 6.105 6.747 10.167 11.126-.2-5.551-1.006-11.797-1.006-11.797 1.902-2.715 4.492-7.272 5.787-9.607l-.585-.533-.133-.121-.474-.412-.17-.154-.437-.38-.162-.145-.415-.356-.17-.137-.414-.355-.141-.122-.444-.371-.081-.065-.489-.404c-.333-.283-.644-.533-.925-.76h-.037l-.355-.282-.081-.057-.259-.21-.097-.073-.207-.169-.066-.049-.178-.137-.052-.041-.14-.105-.097-.072-1.073-28.595-18.181 8.322Z"/>
  <path fill="#37474F" d="M254.4 209.786a638.846 638.846 0 0 0 18.676 37.984c4.131 7.802 12.279 22.371 12.279 22.371 8.017 3.05 14.33 1.038 17.623-5.618l-26.773-49.824s-9.808 1.03-21.805-4.913Z"/>
  <path fill="#FFA8A7" d="m252.888 299.211.111-.808c1.383-7.499 4.773-49.288 5.986-60.512 1.317-12.16 6.438-41.402 6.438-41.402s-5.602-10.213-9.316-15.804c3.485 5.502 23.968 5.486 26.21-4.04 1.258 4.04 6.727 8.654 5.92 21.202-.999 15.998-14.245 42.824-14.245 42.824.171 2.173 1.014 11.312-.888 19.392-2.96 12.766-11.255 34.978-12.21 38.065l-.651 2.618c-1.502 1.575-6.652.638-7.355-1.535Z"/>
  <path fill="#455A64" d="M254.345 183.419s4.819 10.592 13.686 8.081c5.627-1.946 11.282-8.066 16.404-17.751 1.054 6.698 1.885 13.764 2.485 21.122.708 7.577 1.177 26.585-.263 40.507-3.269 31.965-10.666 64.429-10.666 64.429-1.002-1.887-1.812-4.438-2.381-7.495-.569-3.057-.885-6.554-.927-10.276 0 0-6.035 12.7-12.547 12.788-6.512.088-8.613-6.111-8.613-6.111l6.884-52.989c-2.937-15.289-4.332-33.257-4.062-52.305Z"/>
  <path fill="#407BFF" d="M267.562 101.808c-2.553 0-4.973.234-7.193 1.527-2.22-.889-6.209-1.058-9.25 3.612-2.279 3.507-1.687 9.785.74 13.073a7.081 7.081 0 0 1-.555 1.511 7.373 7.373 0 0 1-2.427 2.723c-1.769 1.164-4.026 1.471-5.476 3.087-.747.884-1.176 2.034-1.209 3.236a5.303 5.303 0 0 0 1.031 3.309c-.89.18-1.702.671-2.314 1.4a4.76 4.76 0 0 0-1.075 2.64c-.126 1.971 1.369 4.225 2.827 4.524-2.272 2.424-1.71 7.184.399 9.947 2.109 2.763 5.077 3.434 8.407 2.278.266 1.164-.57-1.034.399-.5a7.764 7.764 0 0 0 3.168.808c5.381.4 10.693-1.514 14.8-5.333 1.879-1.754 3.996-3.176 5.764-5.107a28.039 28.039 0 0 0 4.514-6.69c1.912-3.882 2.928-8.214 2.96-12.621v-6.545a18.27 18.27 0 0 0-1.185-6.47 17.08 17.08 0 0 0-3.365-5.48 15.455 15.455 0 0 0-5.031-3.656 14.347 14.347 0 0 0-5.929-1.273Z"/>
  <path fill="#000" d="M267.562 101.808c-2.553 0-4.973.234-7.193 1.527-2.22-.889-6.209-1.058-9.25 3.612-2.279 3.507-1.687 9.785.74 13.073a7.081 7.081 0 0 1-.555 1.511 7.373 7.373 0 0 1-2.427 2.723c-1.769 1.164-4.026 1.471-5.476 3.087-.747.884-1.176 2.034-1.209 3.236a5.303 5.303 0 0 0 1.031 3.309c-.89.18-1.702.671-2.314 1.4a4.76 4.76 0 0 0-1.075 2.64c-.126 1.971 1.369 4.225 2.827 4.524-2.272 2.424-1.71 7.184.399 9.947 2.109 2.763 5.077 3.434 8.407 2.278.266 1.164-.57-1.034.399-.5a7.764 7.764 0 0 0 3.168.808c5.381.4 10.693-1.514 14.8-5.333 1.879-1.754 3.996-3.176 5.764-5.107a28.039 28.039 0 0 0 4.514-6.69c1.912-3.882 2.928-8.214 2.96-12.621v-6.545a18.27 18.27 0 0 0-1.185-6.47 17.08 17.08 0 0 0-3.365-5.48 15.455 15.455 0 0 0-5.031-3.656 14.347 14.347 0 0 0-5.929-1.273Z" opacity=".5"/>
  <path fill="#FFA8A7" d="M252.769 147.436c-2.035 5.341-4.884 14.14-6.586 19.505l-8.199-10.504h-6.889s8.258 19.303 13.231 23.747c3.315 2.965 5.387.808 6.208-1.058 0-.057 1.406-2.707 3.219-6.707a1439.82 1439.82 0 0 0 4.87-10.876l5.409-22.187c-4.292-.38-8.665 1.301-11.263 8.08Z"/>
  <path fill="#F28F8F" d="M246.183 166.941a32.812 32.812 0 0 1 2.524 3.757s-.985-3.596-2.22-4.848l-.304 1.091Z"/>
  <path fill="#407BFF" d="m276.169 139.005 6.061.238c.885.237 1.751.55 2.591.938 2.703 1.547 3.015 4.473 3.151 7.956.144 3.82-.16 7.073-3.335 13.138l-2.919 7.514s.064 2.441.16 4.209c0 .371 2.575 6.533 2.599 6.816.376 5.685-19.096 14.145-28.684 5.455 0-.221.408-8.602.4-8.841-.192-4.588-.384-8.929-.384-8.929-5.214-5.658-4.126-11.75-2.295-15.799 3.663-8.116 8.309-12.872 11.539-12.695h11.116Z"/>
  <path fill="#000" d="M277.026 170.092c.304 3.353 2.494 8.209-.199 12.306 3.352-1.681 5.616-3.878 5.49-5.745 0-.258-2.39-5.89-2.405-6.23a172.401 172.401 0 0 1-.148-3.846l2.701-6.868c2.879-5.437 3.205-8.387 3.094-11.78l-4.359 5.187c-3.182 6.803-4.61 12.031-4.174 16.976Z" opacity=".1"/>
  <path fill="#FFA8A7" d="M299.3 169.939c-6.963-19.465-9.797-27.529-14.874-29.824-1.953-.88-5.254-.589-5.254-.589-1.243 2.496-2.419 10.802 2.805 16.353 0 0 6.778 11.119 8.976 16.661-.547 5.357-.984 12.532-2.56 16.249a3.13 3.13 0 0 1-.674.987 2.83 2.83 0 0 1-.969.629c-1.961.808-2.442 1.939-3.981 3.111-1.199.913-2.146 1.002-2.05 1.39.174.455.485.831.883 1.065.397.234.856.311 1.3.22a8.17 8.17 0 0 0 2.346-.752 16.138 16.138 0 0 1-3.153 3.782c-2.908 2.634-3.241 4.557 1.917 5.656 3.234.703 6.046-.808 9.28-7.466a57.094 57.094 0 0 0 3.174-7.612 78.108 78.108 0 0 0 3.056-15.271c.178-2.262.23-3.337-.222-4.589Zm-19.166-50.315c-1.568-1.688-4.084-1.187-5.18 1.212 0 0-2.16-.08-7.318-2.028-4.233-1.616-9.132-5.155-9.938-9.445-1.562 2.666-2.583 8.71-2.154 15.683.533 8.63 3.286 10.003 4.61 10.504 1.325.501 3.826.574 6.216 0l.304 4.331s-13.187 11.619-2.494 11.36c8.599-.218 12.291-11.522 12.291-11.522v-11.764a3.193 3.193 0 0 0 2.073.155 3.427 3.427 0 0 0 1.783-1.165 6.13 6.13 0 0 0 1.104-3.698 6.073 6.073 0 0 0-1.297-3.623Z"/>
  <path fill="#263238" d="m258.926 117.103-2.531 1.326a1.574 1.574 0 0 1-.159-.57 1.579 1.579 0 0 1 .06-.592 1.53 1.53 0 0 1 .27-.517c.121-.15.27-.272.436-.358a1.365 1.365 0 0 1 1.091-.061c.358.132.656.408.833.772Zm6.253 4.598a1.36 1.36 0 0 0 .168.702c.118.211.29.379.495.484.205.105.434.142.658.106.223-.036.433-.143.601-.307.169-.165.29-.38.348-.619.058-.238.05-.49-.023-.725a1.265 1.265 0 0 0-.384-.591 1.099 1.099 0 0 0-.62-.262 1.082 1.082 0 0 0-.457.067 1.154 1.154 0 0 0-.397.255c-.116.112-.21.249-.276.402a1.36 1.36 0 0 0-.113.488Zm-8.303-.307c-.008.231.046.46.156.658.111.197.271.355.463.454a.993.993 0 0 0 .616.1c.209-.033.406-.133.564-.287a1.2 1.2 0 0 0 .325-.579c.054-.223.047-.46-.021-.679a1.188 1.188 0 0 0-.36-.554 1.028 1.028 0 0 0-.581-.244 1.047 1.047 0 0 0-.795.303c-.218.212-.35.51-.367.828Z"/>
  <path fill="#F28F8F" d="m262.226 120.255.097 7.159-3.9-.792 3.803-6.367Zm3.53 8.831-2.812.897c.045.206.127.4.242.571.116.17.261.314.429.421a1.318 1.318 0 0 0 1.12.155c.379-.131.697-.416.887-.797.191-.381.239-.828.134-1.247Zm.644 6.456c2.294-.477 6.971-2.295 7.6-4.396a5.356 5.356 0 0 1-1.525 2.732c-1.346 1.43-5.964 3.232-5.964 3.232l-.111-1.568Z"/>
  <path fill="#455A64" d="m229.023 142.394.658-.744a.755.755 0 0 1 .74-.169l7.94 1.47c.405.104.783.302 1.11.581.328.279.595.632.785 1.035l7.133 16.968a.858.858 0 0 1 0 .913l-.673.768a.77.77 0 0 1-.74.178l-7.94-1.479a2.715 2.715 0 0 1-1.114-.576 3.03 3.03 0 0 1-.781-1.04L229 143.331a.86.86 0 0 1 .023-.937Z"/>
  <path fill="#263238" d="m246.709 162.238-7.141-16.968a3.078 3.078 0 0 0-.784-1.036 2.749 2.749 0 0 0-1.111-.58l-7.94-1.446c-.74-.137-1.08.356-.74 1.091l7.141 16.968c.187.405.453.761.781 1.04a2.73 2.73 0 0 0 1.113.576l7.941 1.478c.703.106 1.05-.379.74-1.123Z"/>
  <path fill="#37474F" d="M238.561 144.107a3.08 3.08 0 0 1 1.014 1.196l7.134 16.968a.866.866 0 0 1 0 .888l.636-.727a.862.862 0 0 0 0-.905l-7.134-16.968a2.887 2.887 0 0 0-.939-1.131l-.711.679Z"/>
  <path fill="#FFA8A7" d="M232.782 159.176c-3.286-4.121-3.197-9.276-1.687-10.763l1.006 2.384s5.025 1.22 7.437 1.018c2.412-.202 4.396-.808 5.054-.323 1.406 1.083 1.806 5.656-2.22 7.353-3.404 1.389-9.59.331-9.59.331Z"/>
</svg>
