<svg xmlns="http://www.w3.org/2000/svg" width="25" height="30" fill="none" viewBox="0 0 30 27">
  <path fill="#fff" d="M14.675 4.936c-5.122 0-9.288 3.824-9.288 8.526 0 4.7 4.166 8.525 9.288 8.525 5.12 0 9.287-3.824 9.287-8.525 0-4.702-4.166-8.526-9.287-8.526Zm0 15.256a7.808 7.808 0 0 1-4.074-1.134c-1.206-.74-2.146-1.79-2.7-3.02a6.22 6.22 0 0 1-.418-3.89c.283-1.305.981-2.505 2.007-3.446a7.557 7.557 0 0 1 3.754-1.842 7.943 7.943 0 0 1 4.236.383c1.34.51 2.486 1.372 3.291 2.48a6.345 6.345 0 0 1 1.236 3.738c-.002 1.785-.775 3.496-2.15 4.758-1.375 1.261-3.238 1.971-5.182 1.973ZM15.652 0h-1.955v2.692h1.955V0Zm0 24.23h-1.955v2.693h1.955v-2.692ZM29.34 12.564h-2.933v1.795h2.933v-1.795Zm-26.398 0H.01v1.795h2.933v-1.795Zm21.223 8.34-1.383 1.27 1.956 1.794 1.382-1.27-1.955-1.794ZM4.611 2.955 3.23 4.225l1.955 1.794L6.567 4.75 4.61 2.955Zm.573 17.949-1.955 1.795 1.382 1.269 1.956-1.795-1.383-1.269ZM24.738 2.955 22.782 4.75l1.383 1.27 1.955-1.796-1.382-1.269Z"/>
</svg>
