<svg xmlns="http://www.w3.org/2000/svg" width="360" height="349" fill="none" viewBox="0 0 360 349">
  <path fill="#EBEBEB" d="M360 266.915H0v.175h360v-.175Zm-36.072 11.231h-23.846v.175h23.846v-.175Zm-85.45 1.899h-6.256v.174h6.256v-.174Zm60.884-8.376h-13.817v.174h13.817v-.174Zm-230.494 1.172H37.771v.175h31.097v-.175Zm10.972 0h-4.557v.175h4.558v-.175Zm82.268 2.946h-67.45v.174h67.45v-.174Zm8.532-40.003H31.615a4.174 4.174 0 0 1-2.902-1.169 3.926 3.926 0 0 1-1.202-2.816V42.341a3.926 3.926 0 0 1 1.215-2.794 4.178 4.178 0 0 1 2.89-1.157H170.64c1.09 0 2.136.42 2.907 1.167a3.925 3.925 0 0 1 1.204 2.819v189.423a3.923 3.923 0 0 1-1.204 2.818 4.176 4.176 0 0 1-2.907 1.167ZM31.615 38.53a3.995 3.995 0 0 0-2.775 1.118 3.753 3.753 0 0 0-1.149 2.693v189.458c0 1.009.413 1.978 1.15 2.692a3.994 3.994 0 0 0 2.774 1.119H170.64a4.005 4.005 0 0 0 2.778-1.118 3.761 3.761 0 0 0 1.153-2.693V42.341a3.76 3.76 0 0 0-1.153-2.693 4.004 4.004 0 0 0-2.778-1.118H31.615Zm294.768 197.254H187.351a4.182 4.182 0 0 1-2.905-1.169 3.935 3.935 0 0 1-1.206-2.816V42.341a3.93 3.93 0 0 1 1.219-2.794 4.185 4.185 0 0 1 2.892-1.157h139.032a4.177 4.177 0 0 1 2.885 1.16 3.924 3.924 0 0 1 1.212 2.79V231.8a3.924 3.924 0 0 1-1.199 2.813 4.175 4.175 0 0 1-2.898 1.172ZM187.351 38.53a4 4 0 0 0-2.777 1.118 3.76 3.76 0 0 0-1.154 2.693v189.458a3.762 3.762 0 0 0 1.154 2.693 4 4 0 0 0 2.777 1.118h139.032a4.005 4.005 0 0 0 2.778-1.118 3.761 3.761 0 0 0 1.153-2.693V42.341a3.76 3.76 0 0 0-1.153-2.693 4.004 4.004 0 0 0-2.778-1.118H187.351Z"/>
  <path fill="#E6E6E6" d="M48.089 266.915h97.704V66.735H48.089v200.18Z"/>
  <path fill="#F5F5F5" d="M45.922 266.915h97.703V66.735H45.922v200.18Z"/>
  <path fill="#FAFAFA" d="M139.73 262.671V70.98H49.824v191.69h89.906Z"/>
  <path fill="#fff" d="M119.023 262.671 96.243 70.98h-25.72l22.783 191.69h25.718Z"/>
  <path fill="#E6E6E6" d="M51.466 262.671V70.98h-1.642v191.69h1.642Z"/>
  <path fill="#F5F5F5" d="M47.534 93.28h94.479v-5.695H47.534v5.696Z"/>
  <path fill="#F0F0F0" d="M197.446 266.915V150.768h-39.449v116.147h39.449Z"/>
  <path fill="#F5F5F5" d="M195.278 188.202V154.16h-35.114v34.042h35.114Zm0 37.098v-34.041h-35.114V225.3h35.114Zm0 37.099v-34.041h-35.114v34.041h35.114Z"/>
  <path fill="#E6E6E6" d="M185.494 153.714H169.92c-.005.464.086.924.267 1.354.181.43.449.82.787 1.148.339.329.742.588 1.185.764a3.7 3.7 0 0 0 1.397.258h8.266c.48.004.956-.084 1.401-.26.445-.175.85-.434 1.191-.762.341-.327.612-.717.798-1.147.185-.429.281-.89.282-1.355Zm0 37.098H169.92a3.48 3.48 0 0 0 1.064 2.495 3.705 3.705 0 0 0 2.572 1.037h8.266a3.725 3.725 0 0 0 2.592-1.026c.341-.329.612-.719.798-1.149a3.45 3.45 0 0 0 .282-1.357Zm0 37.099H169.92a3.48 3.48 0 0 0 1.064 2.495 3.705 3.705 0 0 0 2.572 1.037h8.266c.48.003.957-.087 1.401-.263a3.66 3.66 0 0 0 1.191-.764c.341-.328.612-.718.798-1.148a3.45 3.45 0 0 0 .282-1.357Z"/>
  <path fill="#F5F5F5" d="M217.145 266.915V150.768h-19.707v116.147h19.707Z"/>
  <path fill="#F0F0F0" d="M302.753 264.06h10.937v-87.445h-10.937v87.445Zm-95.594 2.855h105.019v-2.855H207.159v2.855Z"/>
  <path fill="#FAFAFA" d="M302.753 176.615h-97.114v87.445h97.114v-87.445Z"/>
  <path fill="#F0F0F0" d="M224.64 227.716h59.083c2.79 0 5.466-1.075 7.438-2.987 1.973-1.913 3.081-4.507 3.081-7.211 0-2.705-1.108-5.299-3.081-7.211-1.972-1.913-4.648-2.987-7.438-2.987H224.64c-2.79 0-5.465 1.074-7.438 2.987-1.973 1.912-3.081 4.506-3.081 7.211 0 2.704 1.108 5.298 3.081 7.211 1.973 1.912 4.648 2.987 7.438 2.987Zm59.098-19.712c1.288 0 2.565.246 3.755.724a9.838 9.838 0 0 1 3.184 2.062 9.511 9.511 0 0 1 2.127 3.087 9.263 9.263 0 0 1 .747 3.641 9.262 9.262 0 0 1-.747 3.64 9.49 9.49 0 0 1-2.127 3.087 9.838 9.838 0 0 1-3.184 2.062c-1.19.478-2.467.724-3.755.724H224.64c-2.603 0-5.099-1.002-6.939-2.786-1.841-1.784-2.875-4.204-2.875-6.727 0-2.523 1.034-4.943 2.875-6.728 1.84-1.784 4.336-2.786 6.939-2.786h59.098Zm-59.098 45.084h59.083c2.79 0 5.466-1.075 7.438-2.987 1.973-1.912 3.081-4.506 3.081-7.211s-1.108-5.298-3.081-7.211c-1.972-1.912-4.648-2.987-7.438-2.987H224.64c-2.79 0-5.465 1.075-7.438 2.987-1.973 1.913-3.081 4.506-3.081 7.211s1.108 5.299 3.081 7.211c1.973 1.912 4.648 2.987 7.438 2.987Zm59.083-19.712a10.093 10.093 0 0 1 3.837.649 9.845 9.845 0 0 1 3.274 2.044 9.509 9.509 0 0 1 2.196 3.117c.51 1.171.773 2.43.773 3.701a9.262 9.262 0 0 1-.773 3.7 9.509 9.509 0 0 1-2.196 3.117 9.845 9.845 0 0 1-3.274 2.044 10.093 10.093 0 0 1-3.837.649H224.64a10.085 10.085 0 0 1-3.836-.649 9.825 9.825 0 0 1-3.274-2.044 9.497 9.497 0 0 1-2.197-3.117 9.26 9.26 0 0 1 0-7.401 9.497 9.497 0 0 1 2.197-3.117 9.825 9.825 0 0 1 3.274-2.044 10.085 10.085 0 0 1 3.836-.649h59.083Z"/>
  <path fill="#EBEBEB" d="M245.282 215.319h17.828a2.242 2.242 0 0 0 1.55-.625c.412-.399.644-.94.646-1.504a2.102 2.102 0 0 0-.646-1.503 2.238 2.238 0 0 0-1.55-.626h-17.828a2.238 2.238 0 0 0-1.55.626 2.102 2.102 0 0 0-.646 1.503c.002.564.234 1.105.646 1.504.411.398.969.623 1.55.625Z"/>
  <path fill="#F0F0F0" d="M224.64 202.343h59.083c2.79 0 5.466-1.074 7.438-2.987 1.973-1.912 3.081-4.506 3.081-7.211 0-2.704-1.108-5.298-3.081-7.21-1.972-1.913-4.648-2.987-7.438-2.987H224.64c-2.79 0-5.465 1.074-7.438 2.987-1.973 1.912-3.081 4.506-3.081 7.21 0 2.705 1.108 5.299 3.081 7.211 1.973 1.913 4.648 2.987 7.438 2.987Zm59.083-19.711c2.603 0 5.099 1.002 6.94 2.786 1.84 1.784 2.874 4.204 2.874 6.727 0 2.524-1.034 4.944-2.874 6.728-1.841 1.784-4.337 2.786-6.94 2.786H224.64c-2.603 0-5.099-1.002-6.939-2.786-1.841-1.784-2.875-4.204-2.875-6.728 0-2.523 1.034-4.943 2.875-6.727 1.84-1.784 4.336-2.786 6.939-2.786h59.083Z"/>
  <path fill="#EBEBEB" d="M245.282 189.947h17.828a2.238 2.238 0 0 0 1.55-.626c.412-.399.644-.939.646-1.503a2.1 2.1 0 0 0-.656-1.483 2.231 2.231 0 0 0-1.54-.611h-17.828c-.576 0-1.129.219-1.54.611a2.1 2.1 0 0 0-.656 1.483c.002.564.234 1.104.646 1.503.411.399.969.624 1.55.626Zm0 50.737h17.828c.576 0 1.129-.219 1.54-.611.411-.391.646-.924.656-1.483a2.107 2.107 0 0 0-.658-1.48 2.24 2.24 0 0 0-1.538-.614h-17.828a2.24 2.24 0 0 0-1.538.614c-.41.391-.646.922-.658 1.48.01.559.245 1.092.656 1.483.411.392.964.611 1.54.611Z"/>
  <path fill="#F0F0F0" d="M203.638 176.615h99.108v-4.446h-99.108v4.446Z"/>
  <path fill="#E6E6E6" d="M315.835 172.176h-13.082v4.446h13.082v-4.446Z"/>
  <path fill="#E0E0E0" d="M231.84 102.18c2.21 1.075 8.201-.084 6.206 3.846a32.642 32.642 0 0 1-4.096 5.766c-2.232 2.673-1.808 5.584.828 6.617a3.178 3.178 0 0 1 1.44.977c1.216 1.689-1.649 3.951-3.06 5.64-1.412 1.689-1.973 3.35-.936 4.607 1.152 1.396 3.542.872 5.443 1.291 4.565 1.012-.13 7.119.353 10.253.331 2.15 2.16 2.751 4.572 3.051 1.994.251 4.651.426 4.759 2.401.101 1.717-2.203 3.657-2.808 5.458a5.488 5.488 0 0 0 .446 4.747c.405.6.934 1.112 1.554 1.503.62.392 1.316.655 2.046.772 2.261.461 5.681 0 5.847 2.457.072 1.103-.72 2.094-.173 3.099.303.424.698.779 1.156 1.041.459.261.971.423 1.501.474 2.165.32 4.371.283 6.523-.112 2.657-.474 6.581-2.743 5.141-4.928a3.058 3.058 0 0 0-.912-.772 3.125 3.125 0 0 0-1.148-.372c-.633-.126-2.491.069-2.728-.349-.238-.419.403-2.032.424-2.611a11.918 11.918 0 0 0-.77-4.725 14.35 14.35 0 0 0-3.427-5.263c-.634-.622-1.635-1.075-1.764-1.976-.13-.9.453-1.891 1.101-2.792 1.016-1.396 2.592-2.708 3.161-4.188.893-2.331-1.274-3.071-3.283-3.601-1.814-.482-4.205-1.096-3.6-3.232.446-1.543 2.455-2.792 3.053-4.314.813-2.017-1.159-2.094-2.563-2.792-1.836-.935-2.297-2.61-1.635-4.725 1.102-3.49 7.704-8.425 4.32-10.694-.857-.579-1.656-.767-2.16-1.64-.504-.872-.633-2.094-1.353-2.918-1.138-1.333-3.492-1.556-4.716-2.792-2.528-2.54 2.923-7.042-2.052-8.117a5.998 5.998 0 0 1-2.88-1.166c-.454-.412-.828-2.401-1.34-2.54-2.282-.615-6.393 3.678-7.689 4.997-1.577 1.591-7.402 6.338-4.781 7.622Z"/>
  <path fill="#F5F5F5" d="M271.001 161.385c-1.354-2.436-7.279-4.886-3.348-7.678a33.436 33.436 0 0 1 6.797-3.442c3.441-1.396 4.665-4.606 2.923-7.266a3.936 3.936 0 0 1-.72-1.884c-.144-2.457 3.636-3.044 5.81-3.93 2.175-.887 3.6-2.241 3.363-4.153-.245-2.094-2.636-3.029-4.083-4.6-3.47-3.783 4.047-7.21 5.35-10.714.893-2.401-.36-4.098-2.347-5.877-1.62-1.459-3.874-3.232-2.88-5.326.864-1.815 3.967-2.415 5.493-3.895a7.22 7.22 0 0 0 1.648-2.348 7.01 7.01 0 0 0 .584-2.782 6.588 6.588 0 0 0-1.908-4.49c-1.742-1.835-5.04-3.406-3.809-6.037.548-1.173 1.793-1.696 1.865-3.071a4.353 4.353 0 0 0-.425-1.722 4.47 4.47 0 0 0-1.08-1.426 19.644 19.644 0 0 0-5.817-3.818c-2.607-1.117-7.323-1.152-7.258 1.954a3.76 3.76 0 0 0 1.181 2.408c.497.517 2.239 1.431 2.218 2.003-.022.573-1.44 1.836-1.822 2.415a15.899 15.899 0 0 0-1.922 5.305c-.446 2.47-.404 5 .122 7.455.209 1.012.85 2.094.461 3.085-.389.991-1.44 1.661-2.499 2.171-1.663.809-3.787 1.221-5.104 2.394-2.081 1.85-.576 3.916.907 5.668 1.339 1.584 3.103 3.65 1.382 5.472-1.245 1.312-3.715 1.396-5.04 2.576-1.829 1.584-.137 2.847.72 4.439 1.095 2.094.583 4.048-1.173 5.814-2.88 2.918-11.448 3.993-9.713 8.376.439 1.11 1.029 1.787 1.008 2.988-.022 1.2-.591 2.513-.418 3.804.267 2.052 2.218 3.699 2.621 5.702.821 4.126-6.48 5.459-2.678 9.549a6.878 6.878 0 0 1 1.915 2.946c.18.698-.598 2.952-.223 3.406 1.677 2.003 7.675.091 9.547-.489 2.21-.733 9.972-2.087 8.352-4.983Z"/>
  <path fill="#F0F0F0" d="M286.178 155.891s-.72 16.285-28.209 16.285c-27.49 0-28.21-16.285-28.21-16.285h56.419Z"/>
  <path fill="#F5F5F5" d="M180 298.437c77.099 0 139.601-3.538 139.601-7.902 0-4.363-62.502-7.901-139.601-7.901-77.099 0-139.6 3.538-139.6 7.901 0 4.364 62.501 7.902 139.6 7.902Z"/>
  <g opacity=".2">
    <path fill="#407BFF" d="m259.726 284.693-45.857-82.168-45.857 82.168h91.714Z"/>
    <path fill="#407BFF" d="m259.726 145.687-45.857 82.161-45.857-82.161h91.714Z"/>
  </g>
  <path fill="#407BFF" d="m222.271 194.198-6.71 12.019a1.898 1.898 0 0 1-.707.716 1.971 1.971 0 0 1-1.97 0 1.89 1.89 0 0 1-.707-.716l-6.711-12.019a6.951 6.951 0 0 1-.88-3.541 6.972 6.972 0 0 1 1.039-3.501 7.258 7.258 0 0 1 2.687-2.545 7.54 7.54 0 0 1 3.634-.925h3.881a7.524 7.524 0 0 1 3.621.938 7.25 7.25 0 0 1 2.674 2.547 6.966 6.966 0 0 1 1.03 3.494 6.951 6.951 0 0 1-.881 3.533Zm-7.675 69.751 20.844 8.306a1.9 1.9 0 0 1 .95.841c.207.377.275.813.19 1.233-.084.42-.315.799-.654 1.073a1.955 1.955 0 0 1-1.206.434h-41.666a1.955 1.955 0 0 1-1.206-.434 1.847 1.847 0 0 1-.654-1.073 1.807 1.807 0 0 1 .19-1.233 1.9 1.9 0 0 1 .95-.841l20.786-8.306a1.963 1.963 0 0 1 1.476 0Zm-.727-15.803c1.475 0 2.671-1.159 2.671-2.59 0-1.43-1.196-2.589-2.671-2.589-1.476 0-2.671 1.159-2.671 2.589 0 1.431 1.195 2.59 2.671 2.59Zm0-28.304c.759 0 1.375-.597 1.375-1.333s-.616-1.333-1.375-1.333c-.76 0-1.375.597-1.375 1.333s.615 1.333 1.375 1.333Zm0 13.074c.863 0 1.562-.678 1.562-1.515 0-.837-.699-1.515-1.562-1.515-.863 0-1.563.678-1.563 1.515 0 .837.7 1.515 1.563 1.515Zm45.626 47.722h-91.253a4.26 4.26 0 0 0-2.951 1.192 4.003 4.003 0 0 0-1.225 2.863 4 4 0 0 0 1.228 2.859 4.26 4.26 0 0 0 2.948 1.19h91.253a4.26 4.26 0 0 0 2.949-1.19 4.004 4.004 0 0 0 1.227-2.859 3.999 3.999 0 0 0-1.225-2.863 4.256 4.256 0 0 0-2.951-1.192Zm0-139h-91.253a4.26 4.26 0 0 0-2.948 1.19 4 4 0 0 0-1.228 2.859 3.999 3.999 0 0 0 1.228 2.858 4.255 4.255 0 0 0 2.948 1.19h91.253a4.256 4.256 0 0 0 2.949-1.19 4.002 4.002 0 0 0 1.227-2.858 4.002 4.002 0 0 0-1.227-2.859 4.26 4.26 0 0 0-2.949-1.19Z"/>
  <path fill="#FF8B7B" d="m140.134 283.165-5.076-1.599 3.153-11.608 5.076 1.599-3.153 11.608Z"/>
  <path fill="#263238" d="m134.978 280.91 5.703 1.794c.096.028.177.09.227.175.05.084.064.184.039.279l-1.188 4.467a.926.926 0 0 1-.464.533.973.973 0 0 1-.717.06c-1.973-.656-2.88-1.068-5.393-1.857-1.548-.488-6.631-1.759-8.762-2.429-2.131-.67-1.39-2.694-.425-2.596 4.32.44 8.208.244 10.008-.398.312-.113.654-.123.972-.028Z"/>
  <path fill="#000" d="m143.287 271.564-5.076-1.606-1.627 5.989 5.083 1.599 1.62-5.982Z" opacity=".2"/>
  <path fill="#407BFF" d="M157.162 154.062s-9.108 40.868-11.247 55.561c-2.34 16.089-11.131 64.405-11.131 64.405l9.425 2.527s13.061-46.857 16.877-62.499c4.14-16.983 15.12-60.028 15.12-60.028l-19.044.034Z"/>
  <path fill="#000" d="M168.422 167.464c-3.6 7.915-5.378 25.128-3.981 33.05a9288.974 9288.974 0 0 1 7.985-31.521c-.8-2.695-2.124-5.661-4.004-1.529Z" opacity=".3"/>
  <path fill="#263238" d="m144.446 276.736-10.094-2.694.202-3.986 11.361 3.804-1.469 2.876Zm-11.556 4.467c.47.133.953.217 1.44.252a.143.143 0 0 0 .07-.015.124.124 0 0 0 .05-.049.119.119 0 0 0 .017-.066.12.12 0 0 0-.021-.066c-.13-.16-1.246-1.563-1.944-1.522a.476.476 0 0 0-.389.238.685.685 0 0 0-.058.698c.204.267.501.456.835.53Zm1.145 0c-.965-.111-1.627-.349-1.785-.649a.42.42 0 0 1 .05-.44.219.219 0 0 1 .078-.082.22.22 0 0 1 .109-.036c.375-.042 1.08.642 1.548 1.186v.021Z"/>
  <path fill="#263238" d="M134.28 281.448h.058a.128.128 0 0 0 .093-.077c0-.056.612-1.438.259-2.094a.595.595 0 0 0-.446-.314.476.476 0 0 0-.547.209c-.295.503.115 1.766.525 2.22l.058.056Zm0-2.213a.357.357 0 0 1 .223.181 2.612 2.612 0 0 1-.194 1.669 2.393 2.393 0 0 1-.367-1.766c0-.063.1-.133.28-.098l.058.014Zm32.573-163.974c-.274.628-.504 1.103-.756 1.633-.252.531-.526 1.019-.792 1.522a68.044 68.044 0 0 1-1.678 2.98 57.42 57.42 0 0 1-3.888 5.71 43.734 43.734 0 0 1-4.788 5.298 27.72 27.72 0 0 1-6.249 4.481l-.18.09a3.852 3.852 0 0 1-.922.322c-1.64.33-3.338.265-4.946-.189a14.59 14.59 0 0 1-3.773-1.703 24.214 24.214 0 0 1-5.213-4.579 41.954 41.954 0 0 1-3.794-5.102 45.342 45.342 0 0 1-2.974-5.48 2.197 2.197 0 0 1-.081-1.579c.169-.518.526-.96 1.005-1.244a2.392 2.392 0 0 1 1.601-.303 2.349 2.349 0 0 1 1.413.788l.072.084c1.188 1.396 2.477 2.883 3.773 4.237a48.586 48.586 0 0 0 4.018 3.825 19.81 19.81 0 0 0 4.133 2.792 6.237 6.237 0 0 0 1.778.572 2.02 2.02 0 0 0 1.037-.084l-1.102.412a21.324 21.324 0 0 0 4.039-3.42 43.367 43.367 0 0 0 3.6-4.481 69.47 69.47 0 0 0 3.233-5.019 51.854 51.854 0 0 0 1.483-2.617l.72-1.319c.224-.426.468-.915.641-1.257l.043-.098a4.633 4.633 0 0 1 2.614-2.315 4.817 4.817 0 0 1 3.538.122 4.599 4.599 0 0 1 2.438 2.489 4.406 4.406 0 0 1-.058 3.432h.015Z"/>
  <path fill="#000" d="M155.081 124.74c2.26-5.822 7.063-5.92 9.144-4.377-.152.272-.31.545-.468.817a59.38 59.38 0 0 1-3.708 5.521 46.078 46.078 0 0 1-4.529 5.151c-.519.496-1.051.984-1.606 1.459a21.71 21.71 0 0 1 1.167-8.571Z" opacity=".3"/>
  <path fill="#FF8B7B" d="m126.72 120.607-4.68.168 1.166-4.851c1.612.077 3.211.311 4.774.698.285.083.545.231.76.43.215.199.378.445.477.716a1.791 1.791 0 0 1-.222 1.646 2.785 2.785 0 0 1-.988.865c-.395.208-.837.32-1.287.328Z"/>
  <path fill="#407BFF" d="M129.341 116.51a4.581 4.581 0 0 0-1.548-.775c-.389 1.983-2.88 5.326-2.88 5.326h1.951a1.725 1.725 0 0 0 1.318-.593l1.368-1.592a1.614 1.614 0 0 0-.209-2.366Z"/>
  <path fill="#FF8B7B" d="m118.454 118.541 1.311-3.42 3.427.81-1.166 4.844-3.572-2.234ZM177.3 285.426h-5.335l-.187-11.985h5.335l.187 11.985Z"/>
  <path fill="#263238" d="M171.684 284.826h5.998a.387.387 0 0 1 .361.215.362.362 0 0 1 .035.141l.288 4.6a.906.906 0 0 1-.274.646.963.963 0 0 1-.662.275c-2.088-.035-3.082-.154-5.76-.154-1.62 0-7.042.161-9.281.161-2.239 0-2.16-2.15-1.231-2.345 4.262-.866 8.064-2.094 9.568-3.218.271-.212.61-.326.958-.321Z"/>
  <path fill="#000" d="M177.12 273.448h-5.342l.1 6.178h5.336l-.094-6.178Z" opacity=".2"/>
  <path fill="#407BFF" d="M167.573 154.062s-2.038 44.959-1.174 59.777c.95 16.222 2.938 64.293 2.938 64.293h9.777s2.463-46.766 3.053-62.82c.641-17.45 3.542-61.25 3.542-61.25h-18.136Z"/>
  <path fill="#263238" d="M179.51 278.132h-10.562l-.806-3.811 11.656.565-.288 3.246Zm-9.72 7.594a7.193 7.193 0 0 0 1.44-.181.14.14 0 0 0 .06-.038.138.138 0 0 0 .034-.06.126.126 0 0 0-.01-.066.123.123 0 0 0-.041-.053c-.172-.118-1.684-1.116-2.34-.865a.463.463 0 0 0-.288.335.684.684 0 0 0 .159.656c.283.205.634.302.986.272Zm1.08-.356c-.957.182-1.656.154-1.908-.083a.45.45 0 0 1-.102-.206.428.428 0 0 1 .016-.227.212.212 0 0 1 .137-.168c.352-.132 1.238.3 1.857.684Z"/>
  <path fill="#263238" d="M171.187 285.545a.096.096 0 0 0 .058 0 .136.136 0 0 0 .045-.041.13.13 0 0 0 .02-.057c0-.063.122-1.549-.418-2.052a.636.636 0 0 0-.526-.168.484.484 0 0 0-.287.108.455.455 0 0 0-.159.255c-.13.566.67 1.648 1.202 1.955a.12.12 0 0 0 .065 0Zm-.72-2.094a.376.376 0 0 1 .267.104c.297.498.421 1.076.352 1.648-.46-.384-.993-1.208-.914-1.578 0-.07.058-.153.238-.174h.057Zm17.914-171.115a3.19 3.19 0 0 0-.035-1.316 3.244 3.244 0 0 0-.563-1.197 3.363 3.363 0 0 0-1.002-.889 3.482 3.482 0 0 0-1.28-.437h-.058c-1.721-.244-3.881-.495-5.997-.593a109.597 109.597 0 0 0-12.132 0c-1.865.167-3.687.467-5.141.74h-.058a5.156 5.156 0 0 0-2.435 1.201 4.916 4.916 0 0 0-1.446 2.247c-1.742 5.688-3.823 17.303-1.101 41.964h28.548c.201-2.471-.367-10.512.05-20.752a159.173 159.173 0 0 1 2.65-20.968Z"/>
  <path fill="#000" d="M188.107 113.858c-.59 3.308-1.318 7.81-1.822 12.564 0 0-2.606-4.956-3.081-9.193-.475-4.237 3.276-4.558 4.903-3.371Z" opacity=".3"/>
  <g opacity=".2">
    <path fill="#fff" d="M168.963 114.514a.279.279 0 0 1-.162-.061.26.26 0 0 1 .039-.435l8.899-4.474a.28.28 0 0 1 .36.112c.033.062.04.134.018.201a.267.267 0 0 1-.133.155l-8.899 4.46a.354.354 0 0 1-.122.042Z"/>
    <path fill="#fff" d="M173.038 114.919a.257.257 0 0 1-.103-.018.265.265 0 0 1-.085-.059l-4.881-4.698a.267.267 0 0 1 0-.37.278.278 0 0 1 .381 0l4.875 4.705a.259.259 0 0 1 0 .37.263.263 0 0 1-.187.07Z"/>
    <path fill="#fff" d="M179.467 107.897a109.47 109.47 0 0 0-12.125 0h-.201a2.71 2.71 0 0 0 .309 2.143c.677 1.047 2.096 1.633 4.227 1.745h.799c5.76 0 7.985-3.393 8.078-3.539l.202-.314-1.289-.035Z"/>
  </g>
  <path fill="#FF8B7B" d="M167.918 107.855c3.528-.81 4.147-2.925 3.91-5.249a13.54 13.54 0 0 0-.281-1.731l4.421-3.56 3.247-2.61c-.9 3.79-1.915 10.693.72 13.22 0 0-2.16 3.49-8.23 3.183-5.09-.273-3.787-3.253-3.787-3.253Z"/>
  <path fill="#000" d="M171.547 100.875c.131.571.225 1.149.281 1.731 1.649-.321 3.852-2.024 4.082-3.658a7.2 7.2 0 0 0 .058-1.633l-4.421 3.56Z" opacity=".2"/>
  <path fill="#263238" d="M169.2 82.713c-2.398 1.396-2.016 4.886-2.664 7.385 1.526.146 3.931-2.485 3.931-2.485l1.44-4-2.707-.9Z"/>
  <path fill="#FF8B7B" d="M181.951 89.735c-1.533 4.928-2.16 7.88-5.414 9.94a7.056 7.056 0 0 1-3.523 1.122 7.082 7.082 0 0 1-3.613-.806 6.817 6.817 0 0 1-2.663-2.501 6.544 6.544 0 0 1-.944-3.477c0-4.697 2.492-11.97 8.05-12.975a7.196 7.196 0 0 1 3.608.178 7.005 7.005 0 0 1 3.033 1.903 6.691 6.691 0 0 1 1.647 3.118 6.572 6.572 0 0 1-.181 3.498Z"/>
  <path fill="#263238" d="M177.163 93.916c3.6-4.048-.9-6.045 2.779-8.858-4.14.189-10.958-.098-12.175-2.848-1.217-2.75 2.527-6.477 5.645-6.826 3.6-.405 2.822 3.916 2.822 3.916s13.774-.83 9.404 4.886c3.312-.196 2.397 4.997-3.363 9.38-1.447.468-5.112.35-5.112.35Z"/>
  <path fill="#263238" d="M184.81 84.255s2.836-.816 2.743-2.994c1.022.684 1.13 2.764-2.743 2.995Z"/>
  <path fill="#FF8B7B" d="M182.794 94.879a5.73 5.73 0 0 1-3.276 1.933c-1.635.287-2.016-1.18-1.203-2.61.72-1.284 2.47-2.98 3.939-2.624 1.468.355 1.584 2.052.54 3.301Z"/>
  <path fill="#263238" d="M173.75 89.61c-.1.404-.403.697-.684.634-.28-.062-.417-.425-.316-.83.1-.405.403-.698.676-.642.274.055.425.425.324.837Zm-4.773-.93c-.101.406-.403.699-.677.643-.274-.056-.425-.426-.324-.83.101-.405.403-.699.677-.643.273.056.425.426.324.83Z"/>
  <path fill="#FF5652" d="M170.445 89.176a15.658 15.658 0 0 1-2.88 3.085c.245.256.545.457.878.589.334.131.693.19 1.052.172l.95-3.846Z"/>
  <path fill="#263238" d="M170.964 94.446a3.806 3.806 0 0 0 1.478-.156 3.73 3.73 0 0 0 1.294-.71.12.12 0 0 0 .029-.037.105.105 0 0 0 .01-.046.104.104 0 0 0-.01-.046.12.12 0 0 0-.029-.038.13.13 0 0 0-.09-.035.13.13 0 0 0-.09.035 3.562 3.562 0 0 1-1.43.712 3.63 3.63 0 0 1-1.608.021.126.126 0 0 0-.094.02.114.114 0 0 0-.033.034.103.103 0 0 0-.017.044.12.12 0 0 0 .019.093.13.13 0 0 0 .081.053l.49.056Zm4.629-5.968c.04.013.083.013.123 0a.25.25 0 0 0 .132-.135.231.231 0 0 0-.01-.186 2.35 2.35 0 0 0-.708-.914 2.453 2.453 0 0 0-1.07-.482.266.266 0 0 0-.188.049.254.254 0 0 0-.1.16.237.237 0 0 0 .053.181.253.253 0 0 0 .17.092c.305.062.59.195.831.387.24.192.43.438.551.716.022.038.053.07.09.094a.267.267 0 0 0 .126.038Zm-7.797-2.575a.236.236 0 0 0 .23-.042c.249-.2.542-.343.857-.414.315-.071.643-.07.958.002a.257.257 0 0 0 .32-.157.257.257 0 0 0 .012-.095.25.25 0 0 0-.174-.216 2.7 2.7 0 0 0-1.201-.012 2.65 2.65 0 0 0-1.081.508.24.24 0 0 0-.044.342c.03.041.073.07.123.084Zm20.844 24.444.597.789.54.739c.36.496.684.992 1.023 1.487a71.01 71.01 0 0 1 1.872 3.029 66.1 66.1 0 0 1 3.254 6.282c.504 1.061.936 2.164 1.397 3.246.461 1.082.85 2.206 1.202 3.337a60.292 60.292 0 0 1 1.872 6.861l.058.265a3.556 3.556 0 0 1-.511 2.75 20.15 20.15 0 0 1-3.276 3.763 17.044 17.044 0 0 1-4.32 2.792 15.916 15.916 0 0 1-4.939 1.326 15.37 15.37 0 0 1-2.52.042c-.418 0-.836-.077-1.253-.14l-.634-.119-.72-.174a.332.332 0 0 1-.203-.143.316.316 0 0 1-.042-.241l.994-4.048c0-.035.187-.042.302-.07l.396-.077c.274-.056.54-.119.814-.188a11.882 11.882 0 0 0 1.563-.531c.981-.39 1.9-.915 2.728-1.557a13.406 13.406 0 0 0 3.787-4.781l-.453 3.016c-.619-1.976-1.275-3.93-2.067-5.864a79.63 79.63 0 0 0-2.599-5.702 82.56 82.56 0 0 0-3.038-5.521 94.229 94.229 0 0 0-1.656-2.667l-.857-1.298-.425-.628-.396-.559-.144-.209a4.425 4.425 0 0 1-.778-3.386 4.525 4.525 0 0 1 1.919-2.928 4.798 4.798 0 0 1 3.493-.754 4.695 4.695 0 0 1 3.02 1.861Z"/>
  <path fill="#FF8B7B" d="m179.121 146.217-1.548 2.457 6.718-.258s1.764-4.384-.641-5.075l-.936.245a6.146 6.146 0 0 0-3.593 2.631Z"/>
  <path fill="#407BFF" d="M181.886 142.776a4.443 4.443 0 0 0-1.224 1.193c1.829.964 4.378 4.244 4.378 4.244l.59-1.801a1.623 1.623 0 0 0-.194-1.396l-1.116-1.745a1.675 1.675 0 0 0-.473-.487 1.747 1.747 0 0 0-1.961-.008Z"/>
  <path fill="#FF8B7B" d="m178.164 152.457 5.537-.475.59-3.566-6.718.258.591 3.783Z"/>
  <path fill="#407BFF" d="m110.203 67.245-.367-.6a25.816 25.816 0 0 1 3.29-1.591l.274.649a24.357 24.357 0 0 0-3.197 1.542ZM99.691 79.572l-.72-.237c1.707-4.582 4.795-8.56 8.863-11.42l.425.566c-3.94 2.779-6.925 6.644-8.568 11.091Z"/>
  <path fill="#407BFF" d="M122.544 109.007c12.239 0 22.162-9.62 22.162-21.485s-9.923-21.484-22.162-21.484c-12.24 0-22.162 9.619-22.162 21.484 0 11.866 9.922 21.485 22.162 21.485Z"/>
  <path fill="#fff" d="M141.055 87.522c-.001 4.187-1.513 8.241-4.272 11.462-2.76 3.22-6.594 5.404-10.84 6.173a19.019 19.019 0 0 1-12.407-1.963c-3.772-2.037-6.692-5.29-8.252-9.193a17.426 17.426 0 0 1-.293-12.184c1.371-3.97 4.132-7.35 7.803-9.555a18.988 18.988 0 0 1 12.299-2.52c4.277.576 8.212 2.584 11.124 5.677a.043.043 0 0 1 .018-.004.04.04 0 0 1 .018.004c3.104 3.311 4.817 7.629 4.802 12.103Z" opacity=".6"/>
  <path fill="#fff" d="M141.055 87.522c0 3.489-1.049 6.901-3.018 9.82-1.969 2.92-4.773 5.22-8.069 6.619a19.054 19.054 0 0 1-10.49 1.259 18.744 18.744 0 0 1-9.491-4.513c-3.232-3.414-4.977-7.91-4.867-12.543.109-4.633 2.063-9.046 5.453-12.314 3.389-3.269 7.952-5.139 12.732-5.219 4.78-.08 9.407 1.635 12.912 4.788a.047.047 0 0 1 .018-.004.04.04 0 0 1 .018.004c3.104 3.311 4.817 7.629 4.802 12.103Z"/>
  <path fill="#263238" d="M122.544 88.57a1.098 1.098 0 0 1-.763-.308l-9.029-8.753a1.05 1.05 0 0 1-.344-.747 1.035 1.035 0 0 1 .317-.759 1.105 1.105 0 0 1 1.553.027l8.266 8.012 4.774-4.627c.204-.185.475-.286.755-.281.28.005.547.115.744.306.198.192.312.451.317.722.005.271-.099.534-.29.732l-5.537 5.368a1.105 1.105 0 0 1-.763.307Z"/>
</svg>
