<svg xmlns="http://www.w3.org/2000/svg" width="28" height="25" fill="none" viewBox="0 0 30 28">
  <path fill="#3252C9" d="m27.95 17.386-3.93-2.36 1.514-2.546a4.149 4.149 0 0 0 .557-2.063V6.38a5.487 5.487 0 0 0-1.03-3.197 6.24 6.24 0 0 0-2.772-2.155A6.87 6.87 0 0 0 18.684.62a6.585 6.585 0 0 0-3.258 1.473l1.328 1.316a4.563 4.563 0 0 1 2.257-1.017 4.758 4.758 0 0 1 2.494.284c.784.315 1.45.834 1.918 1.492a3.8 3.8 0 0 1 .713 2.212v4.037c0 .419-.11.831-.318 1.203l-2.377 4 5.44 3.268c.358.215.653.51.857.857.203.346.309.735.307 1.128v3h-4.397v1.794H30v-4.794a3.884 3.884 0 0 0-.542-1.982 4.312 4.312 0 0 0-1.507-1.505Z"/>
  <path fill="#3252C9" d="m19.155 19.18-3.93-2.36 1.513-2.546a4.147 4.147 0 0 0 .557-2.063V8.175c0-1.548-.67-3.031-1.862-4.126-1.192-1.095-2.807-1.71-4.493-1.713-3.501 0-6.35 2.62-6.35 5.839v4.036a4.088 4.088 0 0 0 .551 2.062l1.522 2.56-3.907 2.348a4.31 4.31 0 0 0-1.506 1.502 3.883 3.883 0 0 0-.543 1.98l-.031 4.799h20.529v-4.794a3.885 3.885 0 0 0-.543-1.983 4.311 4.311 0 0 0-1.507-1.505Zm.095 6.487H2.642l.019-3a2.21 2.21 0 0 1 .308-1.128c.203-.347.498-.642.857-.857l5.417-3.254-2.386-4.014a2.452 2.452 0 0 1-.312-1.203V8.175c0-1.071.464-2.098 1.288-2.855.825-.757 1.944-1.182 3.11-1.182s2.285.425 3.11 1.182c.824.757 1.288 1.784 1.288 2.855v4.036c0 .419-.11.831-.319 1.203l-2.377 4 5.44 3.268c.359.215.654.51.857.857.204.347.31.735.308 1.129v3Z"/>
</svg>
