<svg xmlns="http://www.w3.org/2000/svg" width="351" height="383" fill="none" viewBox="0 0 351 383">
  <path fill="#EBEBEB" d="M40.077 283.504h89.934l2.892-62.268H37.185l2.892 62.268Z"/>
  <path fill="#DBDBDB" d="M123.419 249.716H44.226l-1.088-21.617h81.551l-1.27 21.617Zm-78.533-.766h77.873l1.186-20.085H43.868l1.018 20.085Zm77.459 25.661H46.529l-.899-19.533h77.831l-1.116 19.533Zm-75.184-.766h74.524l1.032-18.001H46.332l.828 18.001Z"/>
  <path fill="#DBDBDB" d="M92.924 241.29H76.139l-.618-5.217h18.02l-.617 5.217Zm-16.146-.766h15.535l.435-3.685H76.321l.457 3.685Zm16.146 26.932H76.139l-.618-5.208h18.02l-.617 5.208Zm-16.146-.766h15.535l.435-3.676H76.321l.457 3.676Z"/>
  <path fill="#EBEBEB" d="m52.552 283.504-.87 6.779-1.763 13.635h-3.432v-20.414h6.065Z"/>
  <path fill="#DBDBDB" d="m52.552 283.504-.87 6.779h-5.195v-6.779h6.065Z"/>
  <path fill="#EBEBEB" d="m117.543 283.504.87 6.779 1.755 13.635h3.433v-20.414h-6.058Z"/>
  <path fill="#DBDBDB" d="m117.543 283.504.87 6.779h5.188v-6.779h-6.058Z"/>
  <path fill="#EBEBEB" d="M212.945 39.962h-33.149v49.729h33.149V39.962Zm36.883 0h-33.149v49.729h33.149V39.962Zm-36.883 53.804h-33.149v49.729h33.149V93.766Zm36.883 0h-33.149v49.729h33.149V93.766Zm39.221-53.804H255.9v49.729h33.149V39.962Zm36.883 0h-33.149v49.729h33.149V39.962Zm-36.883 53.804H255.9v49.729h33.149V93.766Zm36.883 0h-33.149v49.729h33.149V93.766Zm-29.955 264.783c17.966 0 32.531-3.738 32.531-8.349 0-4.611-14.565-8.349-32.531-8.349s-32.53 3.738-32.53 8.349c0 4.611 14.564 8.349 32.53 8.349Zm-106.451-14.607c62.32 0 112.839-6.931 112.839-15.481s-50.519-15.481-112.839-15.481-112.84 6.931-112.84 15.481 50.52 15.481 112.84 15.481Z"/>
  <path fill="#EBEBEB" d="M174.938 363.858c62.32 0 112.84-6.931 112.84-15.481s-50.52-15.481-112.84-15.481c-62.319 0-112.84 6.931-112.84 15.481s50.521 15.481 112.84 15.481Z"/>
  <path fill="#263238" d="m33.303 303.918 35.55-.191 35.549-.062 71.098-.13 71.099.13 35.549.062 35.549.191-35.549.184-35.549.069-71.099.13-71.098-.13-35.55-.069-35.549-.184Z"/>
  <path fill="#407BFF" d="M175.057 111.763c5.496-41.468-20.855-79.946-58.858-85.944-38.003-5.997-73.266 22.757-78.762 64.224-5.497 41.467 20.854 79.945 58.857 85.943 38.003 5.998 73.266-22.756 78.763-64.223Z"/>
  <path fill="#000" d="M175.7 105.83c1.636-39.939-26.709-73.763-63.31-75.548-36.602-1.786-67.6 29.143-69.236 69.081-1.637 39.939 26.708 73.763 63.31 75.548 36.601 1.786 67.599-29.143 69.236-69.081Z" opacity=".1"/>
  <path fill="#fff" d="M171.488 106.297c1.868-37.397-24.401-69.366-58.674-71.404-34.272-2.038-63.57 26.625-65.438 64.022-1.868 37.398 24.4 69.366 58.673 71.405 34.273 2.038 63.57-26.626 65.439-64.023Z"/>
  <path fill="#EBEBEB" d="M170.172 88.205c-28.305 18.713-74.82 49.407-100.814 66.236-7.35-6.763-13.162-15.292-16.982-24.918l85.981-86.957c8.033 4.614 15.044 11.09 20.54 18.975 5.496 7.884 9.344 16.985 11.275 26.664Zm1.362 16.737a72.584 72.584 0 0 1-4.107 22.038l-77.515 40.008a58.601 58.601 0 0 1-9.786-4.596c23.412-14.746 66.199-41.609 91.408-57.45Z"/>
  <path fill="#C7C7C7" d="M110.031 39.71h-1.2v10.28h1.2V39.71Zm-28.9 8.09-1.04.655 4.711 8.902 1.04-.655-4.71-8.902ZM59.807 70.576l-.6 1.134 8.158 5.14.6-1.134-8.158-5.14Zm1.407 31.371h-9.42v1.31h9.42v-1.31Zm6.153 26.396-8.159 5.14.6 1.134 8.16-5.14-.601-1.134ZM84.8 147.839l-4.706 8.905 1.04.654 4.706-8.905-1.04-.654Zm25.231 7.376h-1.2v10.279h1.2v-10.279Zm24.027-7.376-1.039.655 4.71 8.902 1.04-.655-4.711-8.902Zm17.426-19.51-.601 1.134 8.159 5.14.6-1.134-8.158-5.14Zm15.585-26.382h-9.421v1.31h9.421v-1.31Zm-8.021-31.349-8.159 5.14.6 1.135 8.159-5.14-.6-1.135ZM137.732 47.81l-4.706 8.905 1.04.655 4.706-8.905-1.04-.655Z"/>
  <path fill="#407BFF" d="m110.333 44.359 2.043 62.82-5.897-.085 2.254-62.75 1.6.015Z"/>
  <path fill="#263238" d="m146.191 80.69-38.729 26.979-2.815-5.653 40.779-22.858.765 1.532Z"/>
  <path fill="#407BFF" d="M109.428 104.796c1.113 0 2.015-.984 2.015-2.198s-.902-2.198-2.015-2.198-2.015.984-2.015 2.198.902 2.198 2.015 2.198Z"/>
  <path fill="#A6A6A6" d="M245.496 241.076c3.616 1.968 7.189 4.013 10.755 6.066 3.566 2.053 7.111 4.16 10.67 6.243 3.56 2.084 7.077 4.236 10.594 6.396l5.265 3.256c1.741 1.11 3.51 2.198 5.229 3.332-1.811-.981-3.594-1.999-5.398-3.003l-5.356-3.064c-3.573-2.053-7.111-4.167-10.671-6.243-3.559-2.076-7.069-4.243-10.586-6.404-3.517-2.16-7.027-4.335-10.502-6.579Z"/>
  <path fill="#A6A6A6" d="M285.012 241.076c-3.222 2.022-6.487 3.975-9.751 5.921-3.264 1.945-6.557 3.83-9.828 5.737-3.271 1.907-6.592 3.746-9.912 5.584l-4.984 2.735c-1.671.881-3.335 1.792-5.02 2.658 1.608-1.019 3.244-1.992 4.858-2.995l4.914-2.926c3.272-1.938 6.564-3.83 9.828-5.738 3.264-1.907 6.599-3.745 9.912-5.576 3.314-1.831 6.62-3.654 9.983-5.4Zm-79.642 0c3.615 1.968 7.188 4.013 10.755 6.066 3.566 2.053 7.111 4.16 10.67 6.243 3.559 2.084 7.076 4.236 10.586 6.396l5.272 3.256c1.741 1.11 3.51 2.198 5.23 3.332-1.811-.981-3.594-1.999-5.398-3.003l-5.357-3.064c-3.573-2.053-7.111-4.167-10.67-6.243-3.559-2.076-7.076-4.243-10.586-6.404-3.51-2.16-7.027-4.335-10.502-6.579Z"/>
  <path fill="#A6A6A6" d="M244.879 241.076c-3.223 2.022-6.487 3.975-9.751 5.921-3.265 1.945-6.564 3.83-9.828 5.737-3.265 1.907-6.592 3.746-9.912 5.584l-4.985 2.735c-1.67.881-3.334 1.792-5.019 2.658 1.608-1.019 3.243-1.992 4.858-2.995l4.914-2.926c3.271-1.938 6.564-3.83 9.828-5.738 3.264-1.907 6.599-3.745 9.912-5.576 3.314-1.831 6.627-3.654 9.983-5.4Z"/>
  <path fill="#A6A6A6" d="m212.706 235.016-2.127 13.911-14.398 84.865h-2.324l10.474-84.865 1.544-13.911h6.831Z"/>
  <path fill="#263238" d="M205.875 235.016h6.831l-2.127 13.911h-6.248l1.544-13.911Z"/>
  <path fill="#A6A6A6" d="M257.936 333.792h-2.324l-14.398-84.865-2.127-13.911h6.831l1.544 13.911 10.474 84.865Z"/>
  <path fill="#263238" d="m245.918 235.016 1.544 13.911h-6.248l-2.127-13.911h6.831Z"/>
  <path fill="#A6A6A6" d="M301.137 333.792h-2.324l-14.405-84.865-2.127-13.911h6.83l1.552 13.911 10.474 84.865Z"/>
  <path fill="#263238" d="M290.663 248.927h-6.255l-2.127-13.911h6.83l1.552 13.911Z"/>
  <path fill="#A6A6A6" d="M297.451 241.55H191.92v-12.133h39.501l13.282-93.261h48.726l4.022 105.394Z"/>
  <path fill="#DBDBDB" d="M297.451 241.55h-5.749l-3.749-105.394h5.476l4.022 105.394Z"/>
  <path fill="#263238" d="M224.142 162.943c5.11 5.125 12.924 6.128 19.55 5.523 6.761-.628 14.195-2.558 19.776-6.947 2.518-1.888 4.507-4.503 5.742-7.553 1.243-3.294 1.004-6.496-1.179-9.031-1.755-2.045-5.125-3.156-5.42-5.247-.295-2.091 1.025-3.999 1.18-6.075.252-3.554-1.79-5.844-4.283-7.713-5.903-4.435-5.468-11.644-9.561-17.695-2.323-3.439-8.389-9.498-17.086-4.841-3.314 1.769-5.209 5.645-6.122 9.483-1.074 4.512.885 9.889-.583 14.301-1.256 3.761-3.727 4.734-4.914 8.656-.498 1.701-.589 3.6 1.461 7.078.744 1.256 1.621 3.217 1.333 4.902-.4 2.344-2.653 3.761-3.116 6.213-.611 3.37.968 6.687 3.222 8.946Z"/>
  <path fill="#263238" d="M267.294 155.184c3.06-1.088 3.741-6.075 1.404-8.173-1.474-1.333-3.461-1.732-4.914-3.064-2.429-2.183-.892-4.773-.12-7.438 1.678-5.784-2.148-8.863-6.121-11.597-3.019-2.084-3.959-4.88-4.654-8.572 0-.054.07-.077.084 0 .632 2.696 1.355 5.324 3.391 7.177 1.656 1.532 3.699 2.383 5.321 3.961 2.716 2.642 3.454 5.883 2.323 9.605-.323 1.073-1.046 2.344-1.081 3.463-.077 2.627 1.854 3.653 3.686 4.596 1.404.766 2.969 1.593 3.685 3.217 1.088 2.459-.519 6.319-2.906 7.001-.147.061-.218-.13-.098-.176Z"/>
  <path fill="#263238" d="M265.96 158.079c1.741-1.608 3.664-3.117 4.479-5.553 1.2-3.6-1.243-5.745-3.51-7.767-.983-.866-1.826-1.755-1.987-3.187-.232-2.137.92-4.167.856-6.319-.161-5.133-5.11-7.415-7.911-10.724-2.801-3.31-4.212-7.66-5.714-11.896 0-.092.098-.146.126-.054 1.909 5.362 4.149 10.372 8.34 14.064 2.927 2.573 6.051 5.362 5.51 9.904-.133 1.111-.568 2.183-.702 3.286-.217 2.206.499 3.486 1.98 4.788 1.481 1.302 3.054 2.497 3.573 4.519 1.018 3.93-2.232 7.208-4.851 9.23a.152.152 0 0 1-.109.006.168.168 0 0 1-.09-.07.194.194 0 0 1-.031-.115.194.194 0 0 1 .041-.112Zm-46.03-5.201c1.186-2.704 3.51-4.351 2.309-7.706-.807-2.298-2.274-4.014-2.218-6.626.139-2.107.934-4.099 2.253-5.645 1.566-2.084 3.37-3.83 4.36-6.381 1.074-2.757 1.291-5.798 1.537-8.74 0-.061.091-.054.091 0-.126 3.96-.393 8.051-2.597 11.398-1.151 1.739-2.654 3.179-3.784 4.933-2.036 3.164-1.558 6.128 0 9.345.702 1.479 1.404 2.965.99 4.673-.414 1.708-1.629 2.941-2.387 4.443-3.215 6.388 4.156 12.409 9.491 12.501.239 0 .274.406 0 .406-3.973.061-8.669-3.064-10.172-7.093a7.332 7.332 0 0 1-.472-2.769 7.261 7.261 0 0 1 .599-2.739Z"/>
  <path fill="#263238" d="M220.568 155.873c-.351-2.543.864-4.205 1.664-6.388 1.257-3.44-1.025-6.182-1.755-9.437a9.005 9.005 0 0 1-.049-3.257 8.693 8.693 0 0 1 1.109-3.024c1.404-2.574 3.356-4.596 4.374-7.438a18.15 18.15 0 0 0 .631-9.56c0-.061.071-.061.085 0 .523 2.137.63 4.369.314 6.554a16.727 16.727 0 0 1-2.147 6.131c-1.404 2.367-3.51 4.473-4.05 7.4-.576 3.064 1.179 5.515 1.994 8.349a7.14 7.14 0 0 1 .297 2.586 7.033 7.033 0 0 1-.648 2.508 14.034 14.034 0 0 0-1.404 3.738c-.159 1.904.315 3.807 1.333 5.362 2.914 4.925 8.523 7.315 13.5 7.277.175 0 .21.306 0 .306a15.827 15.827 0 0 1-6.597-1.281 17.01 17.01 0 0 1-5.639-3.95c-1.556-1.555-2.612-3.615-3.012-5.876Z"/>
  <path fill="#DD6A57" d="M189.049 334.083c1.874.705 55.605 1.119 57.662-.276.779-.52 2.281-23.975 1.839-26.266-1.488-7.775-8.599-31.337-8.599-31.337l-35.943-.39 9.59 31.352.119 6.894s-20.667 9.851-22.773 11.651c-2.106 1.8-3.77 7.675-1.895 8.372Z"/>
  <path fill="#407BFF" d="M188.88 334.167c1.889.705 55.915 1.126 57.986-.275.961-.651 1.523-13.183 1.853-26.42l-35.142-.383.112 6.894s-20.751 9.958-22.871 11.743c-2.12 1.785-3.819 7.737-1.938 8.441Z"/>
  <path fill="#263238" d="M189.673 331.816c9.056-.169 45.63.069 54.581.651.07 0 .07.054 0 .061-8.979.383-45.525-.176-54.581-.551-.189-.008-.189-.161 0-.161Zm22.752-20.016c3.573-.697 7.926-.069 10.629 2.727.105.107-.036.268-.148.23a46.237 46.237 0 0 0-10.467-2.466.215.215 0 0 1-.161-.067.263.263 0 0 1-.01-.347.22.22 0 0 1 .157-.077Zm-2.583 1.67c3.566-.697 7.926-.069 10.628 2.727.106.107-.035.268-.154.23a46.53 46.53 0 0 0-10.46-2.467.213.213 0 0 1-.161-.066.26.26 0 0 1-.01-.347.218.218 0 0 1 .157-.077Zm-2.583 1.67c3.566-.697 7.925-.061 10.628 2.727.105.107-.035.268-.155.23a46.45 46.45 0 0 0-10.459-2.459.222.222 0 0 1-.14-.082.271.271 0 0 1-.01-.325.23.23 0 0 1 .136-.091Zm-2.584 1.678c3.566-.705 7.926-.069 10.629 2.719.105.115-.036.276-.155.23a46.458 46.458 0 0 0-10.46-2.459.215.215 0 0 1-.161-.067.252.252 0 0 1-.07-.171.259.259 0 0 1 .06-.175.216.216 0 0 1 .157-.077Z"/>
  <path fill="#263238" d="M207.462 308.307c2.506 2.16 5.785 3.064 8.719 4.267.302.13.548-.184.562-.483a.095.095 0 0 0 .043-.011.104.104 0 0 0 .033-.033.103.103 0 0 0 .014-.046.1.1 0 0 0-.006-.048c-1.056-3.451-2.928-6.537-5.427-8.946-1.481-1.379-4.085-2.344-5.496-.253-1.411 2.091.098 4.289 1.558 5.553Zm-.884-3.14c-.604-4.267 3.58-2 4.633-.935.673.698 1.3 1.448 1.874 2.245a60.604 60.604 0 0 1 3.278 5.147c-1.404-.689-2.857-1.241-4.289-1.877-1.706-.758-5.166-2.221-5.496-4.58Z"/>
  <path fill="#263238" d="M228.768 306.124c-.85-2.436-3.594-2.298-5.357-1.379-2.998 1.588-5.562 4.008-7.434 7.017a.11.11 0 0 0-.016.044.106.106 0 0 0 .002.047c.004.016.011.03.021.042.01.012.022.022.035.028a.531.531 0 0 0 .071.43.465.465 0 0 0 .158.145c.062.034.13.052.2.053 3.124-.306 6.5-.215 9.449-1.532 1.719-.789 3.657-2.597 2.871-4.895Zm-7.638 4.918c-1.53.191-3.068.299-4.591.551a57.91 57.91 0 0 1 4.423-3.998c.752-.592 1.54-1.13 2.358-1.609 1.278-.712 5.869-1.677 4.212 2.298-.912 2.137-4.605 2.528-6.402 2.758Z"/>
  <path fill="#455A64" d="M273.001 217.85c-6.592 7.147-15.774 11.659-23.587 16.086-6.711 3.769-12.405 7.446-14.56 12.624-1.888 4.596 13.78 55.006 13.78 55.006L210.6 305.32s-16.546-49.331-12.404-70.564c.702-3.485 3.868-7.997 8.424-12.922 16.279-17.542 50.031-40.338 50.031-40.338h20.73s8.6 22.26-4.38 36.354Z"/>
  <path fill="#263238" d="M275.044 186.421c-.085-1.026-.183-2.053-.274-3.064 0-.099-.155-.099-.141 0 .857 8.242 1.566 17.281-1.993 24.934-3.426 7.353-10.292 11.781-16.406 16.147l-11.092 8.043-5.559 3.998a52.784 52.784 0 0 0-4.416 3.394 13.864 13.864 0 0 0-3.222 3.975 10.778 10.778 0 0 0-1.053 5.676c.905 13.252 12.931 48.35 13.211 49.484a.22.22 0 0 0 .105.115.195.195 0 0 0 .148.011.21.21 0 0 0 .118-.098.247.247 0 0 0 .03-.158c-2.612-8.84-9.653-28.511-12.805-46.251-.4-2.298-.702-4.681-.049-6.94.576-1.799 1.573-3.401 2.892-4.65a31.44 31.44 0 0 1 4.121-3.37l5.616-4.075 11.014-7.944c6.016-4.343 12.798-8.556 16.708-15.419 4.107-7.139 3.714-15.765 3.047-23.808Z"/>
  <path fill="#263238" d="M273.001 217.85c-6.592 7.147-15.774 11.659-23.587 16.086-13.809-3.952-31.246-8.893-42.822-12.072 16.279-17.541 50.031-40.337 50.031-40.337h20.73s8.628 22.229-4.352 36.323Z"/>
  <path fill="#DD6A57" d="M118.638 304.385c1.601 1.272 52.784 19.112 55.128 18.446.892-.245 3.707-8.227 6.859-17.978a207.438 207.438 0 0 0 2.064-6.504c4.499-14.385 8.964-29.766 8.964-29.766l-34.208-12.042-8.031 30.096-1.762 6.611s-22.401 2.734-24.9 3.768c-2.499 1.035-5.714 6.09-4.114 7.369Z"/>
  <path fill="#407BFF" d="M118.456 304.408c1.607 1.287 53.078 19.219 55.458 18.553 1.088-.307 5.04-12.095 8.971-24.619l-33.457-11.774-1.776 6.641s-22.52 2.75-25.034 3.784c-2.513 1.035-5.77 6.136-4.162 7.415Z"/>
  <path fill="#263238" d="M119.852 302.417c8.691 2.78 43.524 14.868 51.948 18.338.071 0 .057.076 0 .053-8.676-2.543-43.418-14.944-51.948-18.23-.231-.077-.189-.215 0-.161Zm27.175-11.72c3.601.49 7.588 2.505 9.407 6.051.07.138-.106.245-.211.169a49.378 49.378 0 0 0-9.315-5.753.234.234 0 0 1-.113-.119.271.271 0 0 1-.013-.171.247.247 0 0 1 .092-.138.206.206 0 0 1 .153-.039Zm-2.92.758c3.594.491 7.581 2.505 9.406 6.052.071.13-.112.237-.21.168a49.216 49.216 0 0 0-9.323-5.752.24.24 0 0 1-.116-.121.27.27 0 0 1-.012-.175.245.245 0 0 1 .097-.139.216.216 0 0 1 .158-.033Zm-2.921.751c3.595.498 7.582 2.512 9.4 6.051.077.138-.105.246-.203.169a49.565 49.565 0 0 0-9.323-5.745.243.243 0 0 1-.104-.125.268.268 0 0 1 .081-.305.214.214 0 0 1 .149-.045Zm-2.892.758c3.601.491 7.589 2.513 9.407 6.052.07.138-.105.245-.211.168a49.172 49.172 0 0 0-9.315-5.745.241.241 0 0 1-.103-.123.277.277 0 0 1-.011-.166.258.258 0 0 1 .087-.137.219.219 0 0 1 .146-.049Z"/>
  <path fill="#263238" d="M143.243 285.718c1.804 2.872 4.69 4.795 7.161 6.894a.41.41 0 0 0 .569-.076.485.485 0 0 0 .097-.2.09.09 0 0 0 .084-.022.094.094 0 0 0 .027-.038.127.127 0 0 0 .009-.047c-.073-3.637-1.019-7.19-2.745-10.303-1.039-1.792-3.257-3.562-5.181-2.022-1.923 1.54-1.074 4.167-.021 5.814Zm0-3.286c.59-4.274 3.966-.766 4.683.613.452.885.846 1.804 1.179 2.75a66.559 66.559 0 0 1 1.727 5.982c-1.159-1.118-2.394-2.122-3.587-3.187-1.411-1.248-4.318-3.768-3.995-6.128l-.007-.03Z"/>
  <path fill="#263238" d="M164.177 290.574c-.148-2.596-2.808-3.324-4.739-3.064-3.301.558-6.409 2.054-9.013 4.336a.113.113 0 0 0-.028.037.128.128 0 0 0-.01.047c0 .016.004.032.01.047a.104.104 0 0 0 .028.037.523.523 0 0 0-.074.452.491.491 0 0 0 .116.199.434.434 0 0 0 .189.115c3.068.721 6.269 1.908 9.449 1.586 1.854-.222 4.205-1.333 4.072-3.792Zm-8.663 2.214c-1.516-.322-3.011-.712-4.535-.965a52.295 52.295 0 0 1 5.314-2.382 18.57 18.57 0 0 1 2.689-.766c1.404-.268 6.058.306 3.426 3.539-1.453 1.769-5.09.949-6.894.574Z"/>
  <path fill="#455A64" d="m147.933 283.075 37.908 12.172 11.751-47.209c1.025-15.603 3.601-23.171 12.011-26.044 14.321-4.841 49.309 13.022 65.153 1.042 12.868-9.743 2.604-41.578 2.604-41.578h-37.206s-4.492 5.967-5.321 9.475c0 0-46.072-3.876-56.384 10.387-13.781 19.15-30.516 81.755-30.516 81.755Z"/>
  <path fill="#263238" d="M216.062 221.313a18.686 18.686 0 0 0-6.613.559 14.695 14.695 0 0 0-5.616 3.14 15.281 15.281 0 0 0-3.791 5.225c-1.053 2.367-1.404 5.048-1.776 7.66a56.141 56.141 0 0 0-.414 4.596 114.385 114.385 0 0 0-.134 4.971c0 .115.141.122.141 0 .02-1.377.126-2.752.316-4.113.154-1.295.365-2.582.568-3.869a46.602 46.602 0 0 1 1.636-7.545 16.554 16.554 0 0 1 3.277-5.632 14.928 14.928 0 0 1 5.07-3.728 14.351 14.351 0 0 1 3.594-1.057 22.77 22.77 0 0 1 3.756-.131s.014-.076-.014-.076Zm53.331-24.451a15.546 15.546 0 0 1-3.728-1.455 10.655 10.655 0 0 1-3.166-2.429 8.02 8.02 0 0 1-1.341-3.347c-.147-.659-.231-1.333-.33-1.999-.098-.667-.273-1.463-.323-2.199 0-.092-.147-.084-.14 0 .316 2.773-.4 5.868 1.495 8.227a9.204 9.204 0 0 0 3.44 2.413c1.285.614 2.658.977 4.058 1.072a.123.123 0 0 0 .083-.038.149.149 0 0 0 .042-.087.162.162 0 0 0-.019-.097.14.14 0 0 0-.071-.061Z"/>
  <path fill="#263238" d="M276.357 190.466a59.081 59.081 0 0 0-1.18-4.428c0-.092-.168-.053-.133.046a57.558 57.558 0 0 1 2.358 18.836 39.658 39.658 0 0 1-1.116 8.939c-.679 2.789-2.336 5.174-4.612 6.642a20.947 20.947 0 0 1-7.525 2.566c-2.947.502-5.927.73-8.909.682-6.072-.062-12.102-.958-18.118-1.732-5.834-.766-11.668-1.631-17.515-2.206-4.788-.467-9.891-.521-14.321 1.793-4.212 2.213-6.964 6.434-8.761 11.022-2.022 5.186-3.166 10.778-4.535 16.194-1.628 6.457-10.038 41.67-10.165 43.179 0 .146.19.138.204 0 .295-3.309 7.574-32.432 9.21-38.936l2.464-9.743c.653-2.597 1.299-5.201 2.106-7.744 1.558-4.849 3.847-9.713 7.898-12.609 4.317-3.064 9.694-3.317 14.685-2.918 2.808.214 5.616.628 8.424.988l9.218 1.195c5.882.766 11.772 1.662 17.697 1.861a52.126 52.126 0 0 0 8.873-.39 27.258 27.258 0 0 0 7.771-2.023c2.207-.932 4.062-2.648 5.265-4.871 1.236-2.413 1.657-5.209 1.931-7.913a58.006 58.006 0 0 0-1.214-18.43Z"/>
  <path fill="#DD6A57" d="M249.056 143.717c-4.914 17.618-9.028 31.291-13.788 34.47-3.84 2.581-27.708 7.392-32.348 7.66-1.832.107-3.355.168-4.437.214-2.667.1-6.535-19.257-4.584-21.54.45-.52 2.219-.88 4.697-1.141 8.333-.881 24.682-.636 25.686-1.616 1.004-.981 6.501-8.472 13.914-18.254 5.11-6.756 9.203-8.663 10.803-6.687.913 1.141 1.004 3.493.057 6.894Z"/>
  <path fill="#DD6A57" d="M202.913 185.877a65.76 65.76 0 0 1-8.655 3.179c-2.345.56-9.126 1.984-9.969-.766-.561-1.876 3.342-3.232 6.087-4.251 1.439-.536 3.271-2.022 2.913-3.064-.618-1.777-4.338-.299-6.817 1.042-4.773 2.589-11.232 7.399-13.885 4.649-1.004-1.041.337-2.704 2.246-4.297-3.053 1.793-6.276 3.217-7.434 2.107-.66-.628-.646-1.425-.203-2.298a1.943 1.943 0 0 1-1.195.086 2.065 2.065 0 0 1-1.045-.638c-.884-1.156-.323-2.727.814-4.297a1.093 1.093 0 0 1-.489-.233 1.223 1.223 0 0 1-.339-.449c-1.811-3.5 8.859-12.409 12.411-13.06 10.432-1.93 21.299-.176 21.299-.176 3.819 3.814 4.275 22.459 4.261 22.466Z"/>
  <path fill="#263238" d="M188.438 174.349a15.746 15.746 0 0 0-7.02 2.382c-2.506 1.624-4.556 3.945-6.894 5.814-.063.054 0 .161.07.108 1.11-.973 2.31-1.831 3.447-2.758 1.138-.927 2.212-1.861 3.384-2.673a15.7 15.7 0 0 1 7.02-2.827s.021-.053-.007-.046Zm-1.629-4.895a38.841 38.841 0 0 0-8.15 2.444c-2.808 1.325-5.131 3.661-7.385 5.898a142.724 142.724 0 0 0-3.973 4.137c-.056.061 0 .16.077.107a174.061 174.061 0 0 1 7.02-6.726c2.236-2.034 4.82-3.562 7.603-4.496 1.586-.529 3.201-.927 4.815-1.325l-.007-.039Zm-2.632-4.366c-2.654.399-4.977.766-7.392 2.107-3.194 1.808-6.367 5.017-7.483 6.128a111.957 111.957 0 0 0-3.595 3.876c-.049.053 0 .145.085.092a90.568 90.568 0 0 1 8.522-8.005 17.188 17.188 0 0 1 4.668-2.85 29.098 29.098 0 0 1 5.202-1.286s.007-.062-.007-.062Z"/>
  <path fill="#407BFF" d="M250.544 140.775c-.618 5.002-4.107 14.608-4.107 14.608l-17.171-2.137s9.225-12.884 16.181-17.618c2.794-1.892 5.729.092 5.097 5.147Z"/>
  <path fill="#263238" d="M246.585 152.832c-2.535-.498-5.062-.957-7.617-1.294a131.027 131.027 0 0 0-3.826-.445c-1.278-.13-2.569-.107-3.84-.252-.07 0-.077.115 0 .122 1.271.069 2.555.337 3.826.483 1.271.145 2.548.306 3.826.467 2.541.329 5.089.651 7.631 1.042.063.007.063-.107 0-.123Z"/>
  <path fill="#fff" d="M244.212 141.794a5.862 5.862 0 0 1 2.534-1.471 5.456 5.456 0 0 1-1.186.904 5.325 5.325 0 0 1-1.348.567Zm-2.218 8.863a5.257 5.257 0 0 0-1.404-.276c.41.28.854.496 1.319.644a4.98 4.98 0 0 0 1.404.275 5.07 5.07 0 0 0-1.319-.643Zm-3.553-7.967a6.339 6.339 0 0 0-.252 1.532c.254-.448.45-.933.582-1.44a6.284 6.284 0 0 0 .253-1.532 6.556 6.556 0 0 0-.583 1.44Z"/>
  <path fill="#263238" d="M250.544 140.775c0 .276-.07.575-.126.866-.057.291-.085.467-.141.72a92.572 92.572 0 0 1-3.84 13.022l-.702-.084-.667-.084-5.398-.675-.8-.091-5.385-.667-.702-.092-1.979-.245 14.615-17.817c3.089-1.318 5.743.092 5.125 5.147Z"/>
  <path fill="#407BFF" d="M233.977 191.331s16.314 2.75 46.437-2.757c0 0-14.882-40.276-25.272-50.556-4.717-4.688-8.908-3.547-12.271 0-.835.888-10.846 17.281-11.4 22.742-.485 4.826 3.439 9.79 3.439 9.79l-.933 20.781Z"/>
  <path fill="#fff" d="M263.896 172.243a6.015 6.015 0 0 1-.829-1.295 5.914 5.914 0 0 1-.519-1.471c.327.39.606.825.828 1.295.231.464.405.958.52 1.471Zm-14.869-18.04a5.756 5.756 0 0 0-.835-1.294c.114.512.289 1.007.52 1.471.222.469.5.905.828 1.294a5.97 5.97 0 0 0-.513-1.471Zm25.834 31.69a6.164 6.164 0 0 0-.828-1.287c.114.513.289 1.007.519 1.471.222.469.501.905.829 1.294a6.391 6.391 0 0 0-.52-1.478Zm-29.863-9.292a6.004 6.004 0 0 0-.828-1.294c.114.512.289 1.007.519 1.47.222.47.501.905.828 1.295a6.273 6.273 0 0 0-.519-1.471Zm6.641-39.548a5.537 5.537 0 0 0-.828-1.295 6.757 6.757 0 0 0 1.347 2.765 5.703 5.703 0 0 0-.526-1.47h.007Zm1.783 33.29a5.635 5.635 0 0 0 1.186-.904 5.264 5.264 0 0 0-1.355.567 5.635 5.635 0 0 0-1.186.904 5.25 5.25 0 0 0 1.355-.567Zm-15.851-6.986a5.629 5.629 0 0 0 1.179-.904 4.83 4.83 0 0 0-1.348.567 5.52 5.52 0 0 0-1.186.904c.48-.121.942-.312 1.376-.567h-.021Zm7.967-22.13c.431-.242.83-.546 1.187-.904a5.856 5.856 0 0 0-2.534 1.471 5.32 5.32 0 0 0 1.369-.567h-.022Zm2.675 46.566a5.503 5.503 0 0 0 1.208-.889 5.85 5.85 0 0 0-2.535 1.471c.471-.13.924-.326 1.348-.582h-.021Zm13.956-37.45a5.662 5.662 0 0 0 1.179-.904 5.852 5.852 0 0 0-2.534 1.471c.48-.122.942-.312 1.376-.567h-.021Zm4.991 31.329c.431-.242.83-.546 1.186-.904a4.754 4.754 0 0 0-1.347.567 5.5 5.5 0 0 0-1.187.904 5.355 5.355 0 0 0 1.369-.567h-.021Zm-10.46-3.324a4.94 4.94 0 0 0-1.404-.276c.411.279.855.496 1.32.643.456.156.927.249 1.404.276a5.076 5.076 0 0 0-1.299-.643h-.021Zm-19.74-5.439a4.982 4.982 0 0 0-1.404-.276c.411.28.855.496 1.32.644a5.28 5.28 0 0 0 1.404.276 5.08 5.08 0 0 0-1.299-.644h-.021Zm20.316-13.903a4.947 4.947 0 0 0-1.404-.276c.414.279.86.495 1.327.644.455.157.927.249 1.404.276a5.239 5.239 0 0 0-1.306-.644h-.021Zm-15.304-8.349a5.241 5.241 0 0 0-1.404-.276c.411.28.855.496 1.32.644a4.98 4.98 0 0 0 1.404.275 5.076 5.076 0 0 0-1.299-.643h-.021Zm30.53 22.758a4.9 4.9 0 0 0-1.404-.276c.412.277.856.493 1.32.643.456.156.927.248 1.404.276a5.076 5.076 0 0 0-1.299-.643h-.021Zm-5.574-12.371a6.33 6.33 0 0 0-.252 1.532c.256-.448.454-.933.589-1.44a6.603 6.603 0 0 0 .253-1.532 6.2 6.2 0 0 0-.569 1.44h-.021Zm-21.361 4.044a6.292 6.292 0 0 0-.253 1.532c.256-.448.454-.933.59-1.44a6.323 6.323 0 0 0 .245-1.532 6.387 6.387 0 0 0-.561 1.44h-.021Zm-6.592 21.05a6.284 6.284 0 0 0-.253 1.532c.255-.452.453-.939.59-1.448a6.646 6.646 0 0 0 .252-1.532 6.048 6.048 0 0 0-.589 1.448Zm20.997 1.532a6.284 6.284 0 0 0-.253 1.532c.254-.449.45-.933.583-1.44a6.33 6.33 0 0 0 .252-1.532 6.602 6.602 0 0 0-.582 1.44Zm-5.265-42.444a6.284 6.284 0 0 0-.253 1.532c.253-.45.452-.934.59-1.44a6.764 6.764 0 0 0 .252-1.532 6.032 6.032 0 0 0-.589 1.432v.008Zm-20.05 9.812a6.339 6.339 0 0 0-.252 1.532c.255-.451.453-.938.589-1.447a6.292 6.292 0 0 0 .253-1.532 6.23 6.23 0 0 0-.59 1.447Z"/>
  <path fill="#DD6A57" d="M249.8 136.409c0 .919-2.366 7.66-6.03 8.503-1.194.283-2.9-6.749-2.9-6.749l-.231-.49-3.286-6.833 6.48-7.774.954-1.058s.787 1.931 1.741 4.351l.134.345c.056.138.112.26.161.391.148.36.295.766.436 1.095.14.329.217.559.322.858.106.299.211.59.323.881a53.04 53.04 0 0 1 1.896 6.48Z"/>
  <path fill="#263238" d="M246.528 126.39a16.491 16.491 0 0 1-1.802 6.365 15.098 15.098 0 0 1-4.087 4.949l-3.286-6.833 6.48-7.775.954-1.057s.787 1.9 1.741 4.351Z"/>
  <path fill="#DD6A57" d="M225.216 121.748c1.404 13.451 8.936 14.064 11.597 13.734 2.415-.306 10.593-1.662 10.481-15.197-.113-13.535-6.283-17.09-11.836-16.722-5.553.368-11.632 4.726-10.242 18.185Z"/>
  <path fill="#263238" d="M226.746 119.213c.281-.085.534-.207.807-.315.298-.07.567-.245.766-.497a.517.517 0 0 0 .057-.305.497.497 0 0 0-.128-.278 1.029 1.029 0 0 0-.536-.221.998.998 0 0 0-.566.107 1.617 1.617 0 0 0-.926.766.549.549 0 0 0 .049.552.481.481 0 0 0 .213.17.443.443 0 0 0 .264.021Zm8.424-1.249a6.47 6.47 0 0 1-.856-.069 1.314 1.314 0 0 1-.864-.253.514.514 0 0 1-.07-.582c.123-.165.284-.292.466-.368.183-.075.38-.096.573-.061.399.001.783.168 1.074.467a.541.541 0 0 1 .094.547.51.51 0 0 1-.165.226.446.446 0 0 1-.252.093Zm-1.565 3.554s.07 0 .077.069c.063.919.281 1.961 1.074 2.176v.053c-.948-.03-1.222-1.417-1.151-2.298Z"/>
  <path fill="#263238" d="M234.257 120.469c1.341-.276 1.748 2.665.506 2.918-1.243.253-1.629-2.688-.506-2.918Z"/>
  <path fill="#263238" d="M234.805 120.538c.26.122.534.383.821.367.288-.015.541-.367.702-.704h.05c.078.262.063.548-.044.798s-.297.447-.532.55c-.498.161-.927-.284-1.137-.827-.021-.069.042-.238.14-.184Zm-5.869 1.555s-.063.053-.056.092c.162.904.204 1.968-.505 2.405v.046c.912-.299.842-1.716.561-2.543Z"/>
  <path fill="#263238" d="M228.052 121.265c-1.362.123-1.032 3.064.225 2.965 1.256-.1.912-3.064-.225-2.965Z"/>
  <path fill="#263238" d="M227.511 121.534c-.196.191-.379.497-.631.551-.253.054-.548-.23-.773-.513h-.042c.049.567.288 1.134.793 1.179.506.046.745-.49.808-1.072.014-.069-.077-.214-.155-.145Zm3.307 4.68s0 1.386.084 2.03c0 .061.154.069.358.053a2.618 2.618 0 0 0 1.486-.369 2.94 2.94 0 0 0 1.09-1.163c.035-.069-.049-.122-.098-.069a4.146 4.146 0 0 1-2.457 1.188c-.063-.177.07-2.383 0-2.375a4.681 4.681 0 0 0-1.299.536c-.084-2.895.267-5.783.148-8.663 0-.107-.148-.115-.162 0a50.704 50.704 0 0 0-.519 9.322c0 .322 1.151-.314 1.369-.49Z"/>
  <path fill="#263238" d="M231.302 127.976c.394.483.894.849 1.453 1.064.306.108.635.108.941 0 .702-.237.646-.919.484-1.493a4.483 4.483 0 0 0-.358-.874 4.326 4.326 0 0 1-2.52 1.303Z"/>
  <path fill="#FF9CBD" d="M232.755 129.04c.306.108.635.108.941 0 .702-.237.646-.919.484-1.493a1.532 1.532 0 0 0-.95.476 1.8 1.8 0 0 0-.475 1.017Z"/>
  <path fill="#263238" d="M246.486 121.434c-1.347 0-5.131-3.723-5.735-10.801 0 0 .941 6.32 1.446 7.216.506.896-2.106-2.114-2.681-7.813a21.061 21.061 0 0 1-5.16 3.493c-2.422.957-3.938 1.065-4.128.881-.189-.184 3.363-1.739 4.261-3.064 0 0-6.318 3.883-9.364 4.389-.344.061-1.32-7.775 3.137-11.49 4.458-3.715 12.138-.766 14.286 1.195 0 0 2.366.168 5.181 3.746 2.815 3.577.218 12.225-1.243 12.248Z"/>
  <path fill="#407BFF" d="M235.556 125.762c-1.033-.006-2.021-.459-2.749-1.258-.727-.8-1.135-1.882-1.133-3.009a4.539 4.539 0 0 1 .597-2.249 4.04 4.04 0 0 1 1.598-1.563 3.61 3.61 0 0 1 2.114-.402 3.723 3.723 0 0 1 1.988.879 4.26 4.26 0 0 1 1.261 1.895c.249.748.301 1.557.149 2.336a4.387 4.387 0 0 1-1.006 2.068 3.84 3.84 0 0 1-1.857 1.173 3.692 3.692 0 0 1-.962.13Zm-3.362-4.267a3.93 3.93 0 0 0 .561 2.051 3.46 3.46 0 0 0 1.512 1.363 3.117 3.117 0 0 0 1.951.218 3.3 3.3 0 0 0 1.732-1.003c.474-.514.798-1.17.93-1.884a4.004 4.004 0 0 0-.187-2.131 3.637 3.637 0 0 0-1.24-1.657 3.183 3.183 0 0 0-1.876-.626 2.945 2.945 0 0 0-.828.115 3.362 3.362 0 0 0-1.837 1.298 3.889 3.889 0 0 0-.718 2.256Zm-4.802 5.393c-1.58.222-3.096-1.486-3.37-3.83a5.454 5.454 0 0 1 .464-3.064c.168-.417.433-.78.767-1.052a2.326 2.326 0 0 1 1.143-.506c.414-.059.835.001 1.222.171.388.171.728.448.988.805a5.327 5.327 0 0 1 1.166 2.834c.259 2.198-.702 4.167-2.106 4.596l-.274.046Zm-2.45-6.626a4.845 4.845 0 0 0-.407 2.712c.238 2.014 1.495 3.5 2.808 3.316 1.313-.183 2.162-1.968 1.923-3.983a4.754 4.754 0 0 0-1.025-2.512 2.12 2.12 0 0 0-.795-.635 1.953 1.953 0 0 0-.974-.17l-.189.039c-.29.091-.56.248-.791.461a2.329 2.329 0 0 0-.55.772Z"/>
  <path fill="#407BFF" d="m231.857 121.962.281-.474c-.646-.46-2.106-.989-2.9.245l.421.337c.731-1.111 2.142-.146 2.198-.108Zm17.353-1.348.428-.329c-.14-.215-1.404-2.122-2.562-2.168-1.158-.046-7.94 1.655-8.227 1.724l.112.559c1.966-.49 7.245-1.747 8.101-1.716.856.031 1.797 1.402 2.148 1.93Z"/>
  <path fill="#DD6A57" d="M247.806 125.241a3.25 3.25 0 0 1-.534.283 1.853 1.853 0 0 1-.575.138 1.562 1.562 0 0 1-.744-.092 2.245 2.245 0 0 1-.534-.283 2.495 2.495 0 0 1-.596-.644v-3.692s1.888-4.734 3.797-4.075c1.91.659 1.088 7.101-.814 8.365Z"/>
  <path fill="#263238" d="M248.375 118.73c.035 0 .049.038 0 .054-1.306.942-1.79 2.543-2.036 4.144a1.3 1.3 0 0 1 .256-.464 1.18 1.18 0 0 1 .411-.304 1.077 1.077 0 0 1 .969.055c.042 0 0 .092 0 .092a1.202 1.202 0 0 0-.764.158c-.234.138-.423.35-.542.608a6.968 6.968 0 0 0-.435 1.371c-.042.154-.288.131-.267-.038-.386-1.999.505-5.063 2.408-5.676Z"/>
  <path fill="#fff" d="M247.56 124.72a.663.663 0 0 1-.097.349.586.586 0 0 1-.258.231.528.528 0 0 1-.332.036.558.558 0 0 1-.295-.172.645.645 0 0 1-.158-.321.679.679 0 0 1 .033-.363.62.62 0 0 1 .212-.282.543.543 0 0 1 .32-.106c.152 0 .299.066.407.184a.657.657 0 0 1 .168.444Zm.99-1.187a.48.48 0 0 1-.068.247.416.416 0 0 1-.183.163.374.374 0 0 1-.235.026.407.407 0 0 1-.209-.122.475.475 0 0 1-.088-.484.443.443 0 0 1 .15-.2.387.387 0 0 1 .226-.074c.108 0 .212.046.288.13a.466.466 0 0 1 .119.314Z"/>
  <path fill="#DD6A57" d="M257.367 140.247c9.225 13.704 21.65 36.837 15.859 41.816-9.52 8.173-36.975 12.401-43.265 13.091-2.716.291-7.785-19.15-5.932-21.609 1.854-2.459 30.818-3.585 31.057-5.515.133-1.096-2.043-10.571-4.647-22.36-3.012-13.596 4.282-9.322 6.928-5.423Z"/>
  <path fill="#DD6A57" d="M228.803 172.059s-8.305-.253-13.738-.138c-3.033.061-8.221.682-10.432 1.838-3.299 1.732-16.097 11.276-14.04 14.715 1.86 3.11 11.934-6.618 11.934-6.618s-10.965 8.878-8.073 12.133c2.892 3.256 12.875-9.337 12.875-9.337s-11.043 9.353-7.589 12.256c2.612 2.183 12.264-8.702 12.264-8.702s-9.435 8.112-6.844 10.479c2.871 2.62 12.355-6.817 12.355-6.817 7.525 4.81 12.917 3.745 16.665 2.489.892-.322-5.377-22.298-5.377-22.298Z"/>
  <path fill="#263238" d="M206.093 178.539c-1.32.988-2.66 1.976-3.896 3.064-1.235 1.088-2.429 2.298-3.566 3.501a30.017 30.017 0 0 0-3.987 5.255c2.253-3.233 6.612-7.285 7.848-8.426 1.235-1.142 2.408-2.298 3.636-3.401.035.03-.007-.016-.035.007Zm3.756 4.788c-1.629 1.333-3.299 2.604-4.879 4.021-1.579 1.417-2.948 2.903-4.422 4.428-.12.122 0 .145.098 0 1.53-1.456 3.054-2.681 4.598-4.121 1.544-1.44 3.047-2.949 4.64-4.321l-.035-.007Zm3.903 3.47a46.958 46.958 0 0 0-7.02 6.779c-.105.122 0 .138.14 0 2.296-2.298 4.079-4.121 6.95-6.703.035-.015-.014-.115-.07-.076Z"/>
  <path fill="#263238" d="M235.016 171.209c-1.166 0-3.63.429-6.36.498-6.143.137-14.82-.085-17.915 0-8.368.275-13.577 6.894-15.964 9.192a31.213 31.213 0 0 0-3.882 4.596c-.597.911-1.179 2.206-.421 3.247.919 1.264 4.493 0 8.248-3.531.134-.13.049-.214-.091-.099-5.251 4.458-7.301 3.891-7.827 3.064-.337-.514 0-1.387.337-2.046a13.45 13.45 0 0 1 1.881-2.619 52.48 52.48 0 0 1 7.961-7.308c3.088-2.411 6.739-3.816 10.53-4.052 2.695-.184 10.965.084 17.157-.115 2.709-.092 5.166-.621 6.318-.72.126.038.112-.107.028-.107Z"/>
  <path fill="#407BFF" d="m269.154 157.643-17.627-.49s-1.896-9.445-2.275-14.83c-.498-7.132 1.811-9.008 7.547-2.865 3.833 4.113 12.355 18.185 12.355 18.185Z"/>
  <path fill="#fff" d="M252.152 138.523a6.746 6.746 0 0 1-1.348-2.765 6.759 6.759 0 0 1 1.348 2.765Zm10.038 11.82a5.668 5.668 0 0 0 1.18-.904 5.85 5.85 0 0 0-2.535 1.471 5.284 5.284 0 0 0 1.355-.567Zm-7.483-5.125a6.284 6.284 0 0 0-.253 1.532c.254-.45.452-.934.59-1.44a6.822 6.822 0 0 0 .253-1.532 5.993 5.993 0 0 0-.59 1.44Z"/>
  <path fill="#263238" d="M253.682 157.221c-.19-.045-2.001-.16-2.106-.13-.197-1.118-.379-2.236-.59-3.347a59.409 59.409 0 0 0-.337-1.67c-.119-.552-.26-1.31-.372-1.846 0-.084-.119-.069-.112 0 .091.72.175 1.248.26 1.869.084.62.154 1.111.252 1.662.197 1.164.365 2.413.618 3.57.805.038 1.612.02 2.415-.054l-.028-.054Z"/>
  <path fill="#263238" d="M267.406 155.766c-2.562-.26-5.118-.49-7.687-.59a129.92 129.92 0 0 0-3.847-.084c-1.285-.008-2.569.13-3.847.1a.053.053 0 0 0-.04.018.065.065 0 0 0 0 .086.053.053 0 0 0 .04.018c1.278-.046 2.576.1 3.854.13l3.847.108c2.562.092 5.125.176 7.687.337.049 0 .049-.115-.007-.123Z"/>
  <path fill="#455A64" d="M182.99 193.898h38.884v-3.294l-38.884-1.371v4.665Z"/>
  <path fill="#37474F" d="M152.425 193.844h25.658c2.183 0-.983-6.802-8.971-9.414-7.989-2.612-19.207 6.863-16.687 9.414Z"/>
  <path fill="#263238" d="M162.492 193.844a21.582 21.582 0 0 0-1.671-4.113 11.383 11.383 0 0 0-1.193-1.778 13.921 13.921 0 0 0-1.51-1.532c.696.226 1.339.61 1.889 1.126a6.87 6.87 0 0 1 1.404 1.808 8.98 8.98 0 0 1 .849 2.183c.194.75.272 1.529.232 2.306Z"/>
  <path fill="#263238" d="M159.452 187.371c-1.348.95-2.696 1.816-3.959 2.804a13.55 13.55 0 0 0-1.783 1.593 5.407 5.407 0 0 0-1.285 2.076c.013-.912.324-1.79.878-2.474a8.69 8.69 0 0 1 1.783-1.823c.665-.506 1.37-.947 2.106-1.318.723-.372 1.481-.66 2.26-.858Z"/>
  <path fill="#455A64" d="M134.019 180.676h62.358l-9.912-50.663h-62.366l9.92 50.663Z"/>
  <path fill="#37474F" d="M131.716 180.676h62.359l-9.919-50.663h-62.359l9.919 50.663Z"/>
  <path fill="#263238" d="M165.349 162.515h1.46l-2.218-11.368h-1.467l2.225 11.368Zm-2.885 0h1.46l-2.219-11.368h-1.467l2.226 11.368Zm-2.885 0h1.46l-2.219-11.368h-1.467l2.226 11.368Zm-2.886 0h1.461l-2.219-11.368h-1.467l2.225 11.368Zm-2.892 0h1.467l-2.225-11.368h-1.46l2.218 11.368Zm-2.885 0h1.467l-2.225-11.368h-1.46l2.218 11.368Zm-2.885 0h1.467l-2.226-11.368h-1.46l2.219 11.368Z"/>
  <path fill="#455A64" d="M149.35 193.905h30.671v-2.597l-30.671-1.087v3.684Z"/>
  <path fill="#455A64" d="M141.01 193.898h16.469l9.92-28.381H150.93l-9.92 28.381Z"/>
  <path fill="#263238" d="M138.301 193.898h16.469l9.912-28.381H148.22l-9.919 28.381Z"/>
  <path fill="#37474F" d="M286.044 193.898H64.956v4.389h221.088v-4.389Zm-5.265 4.389H70.221v11.015h210.558v-11.015Z"/>
  <path fill="#263238" d="M280.779 198.287H70.221v5.507h210.558v-5.507Z"/>
  <path fill="#37474F" d="M98.764 295.4h-18.87v3.623h18.87V295.4Z"/>
  <path fill="#37474F" d="M109 348.377h-2.036L90.34 263.711l-.947-4.826-2.984-15.197-1.109-5.669-4.184-21.264-1.46-7.453h7.259l1.186 7.453.772 4.887.52 3.256 2.983 18.79.962 6.051L109 348.377Z"/>
  <path fill="#263238" d="m86.915 209.302 1.186 7.453h-6.985l-1.46-7.453h7.259Zm6.423 40.437-2.998 13.972-.947-4.826-2.984-15.197-1.109-5.669 3.573-16.377.52 3.256 2.983 18.79.962 6.051Z"/>
  <path fill="#37474F" d="m99.13 209.302-1.46 7.453-5.294 26.933-2.983 15.197-17.571 89.492h-2.036l16.623-104.689 2.984-18.79 1.291-8.143 1.18-7.453h7.265Z"/>
  <path fill="#263238" d="m99.13 209.302-1.46 7.453h-6.986l1.18-7.453h7.265Z"/>
  <path fill="#37474F" d="M270.979 295.4h-18.87v3.623h18.87V295.4Z"/>
  <path fill="#37474F" d="M281.214 348.377h-2.043l-16.616-84.666-.948-4.826-2.99-15.197-1.109-5.669-4.177-21.264-1.467-7.453h7.265l1.18 7.453.779 4.887.519 3.256 2.977 18.79.961 6.051 15.669 98.638Z"/>
  <path fill="#263238" d="m259.129 209.302 1.18 7.453h-6.978l-1.467-7.453h7.265Zm6.416 40.437-2.99 13.972-.948-4.826-2.99-15.197-1.109-5.669 3.58-16.377.519 3.256 2.977 18.79.961 6.051Z"/>
  <path fill="#37474F" d="m271.337 209.302-1.46 7.453-5.293 26.933-2.977 15.197-17.578 89.492H242l16.617-104.689 2.99-18.79 1.285-8.143 1.186-7.453h7.259Z"/>
  <path fill="#263238" d="m271.337 209.302-1.46 7.453h-6.985l1.186-7.453h7.259ZM83.664 189.547l-1.39-.199 6.045-50.212 17.816-12.409 5.75 4.106-.765 1.279-4.999-3.562-16.497 11.49-5.96 49.507Z"/>
  <path fill="#407BFF" d="M87.792 139.588c-.001.257.067.508.197.722.13.214.315.381.532.48.217.099.457.126.687.076.231-.05.443-.173.61-.355a1.34 1.34 0 0 0 .325-.665 1.402 1.402 0 0 0-.07-.749 1.278 1.278 0 0 0-.44-.581 1.125 1.125 0 0 0-.661-.215c-.313 0-.613.136-.834.377a1.35 1.35 0 0 0-.346.91Zm18.28-10.663c.652 0 1.18-.576 1.18-1.286 0-.711-.528-1.287-1.18-1.287-.651 0-1.179.576-1.179 1.287 0 .71.528 1.286 1.179 1.286Zm15.683 3.67-7.855 9.567-3.623-4.887-2.204-2.98 5.883-7.162 2.955 2.076 4.844 3.386Z"/>
  <path fill="#000" d="m121.755 132.595-7.855 9.567-3.623-4.887 6.634-8.066 4.844 3.386Z" opacity=".1"/>
  <path fill="#407BFF" d="m133.134 137.313-13.689 16.668-9.091-12.654 10.257-12.486 12.523 8.472Zm-39.417 56.592H73.464l1.243-6.94h17.768l1.242 6.94Zm204.724 64.436a38.229 38.229 0 0 0 .625 13.459 39.874 39.874 0 0 0 1.888 5.952c.983 2.458 2.008 4.864 1.762 7.56-.238.176.583.146.604-.115 6.599-4.098 15.065-4.849 20.141-11.551 2.407-3.179 3.622-7.201 4.212-11.222.624-4.382.793-9.192-.239-13.551-.878-3.653-2.808-7.177-5.974-8.969-3.166-1.793-7.497-1.686-10.916-.529-7.392 2.505-11.057 11.184-12.103 18.966Z"/>
  <path fill="#263238" d="M295.058 311.639c.898-3.27 1.797-6.549 2.723-9.812 1.811-6.404 3.693-12.777 5.778-19.081a321.373 321.373 0 0 1 3.945-11.207 70.92 70.92 0 0 0-.786-6.963c-.548-2.788-1.355-5.484-2.106-8.219a.163.163 0 0 1 .007-.117.141.141 0 0 1 .081-.078.13.13 0 0 1 .107.007c.034.018.059.05.072.089 1.481 3.768 3.418 8.579 3.46 13.022a225.502 225.502 0 0 1 5.188-12.387 57.646 57.646 0 0 0-.288-10.318.137.137 0 0 1 .018-.093.115.115 0 0 1 .074-.052.105.105 0 0 1 .085.02.126.126 0 0 1 .048.079 40.21 40.21 0 0 1 .646 9.108 161.235 161.235 0 0 1 4.5-9.046c.14-.268.484 0 .358.268-2.478 5.209-4.781 10.532-6.943 15.917 3.04-2.871 6.551-5.088 10.347-6.534.169-.061.288.199.12.268-4.142 1.949-7.931 4.688-11.19 8.089a343.765 343.765 0 0 0-4.43 11.935c4.128-4.42 9.779-7.323 15.241-8.878.189-.054.238.253.056.314-6.318 2.076-11.232 5.99-16.048 10.724a296.43 296.43 0 0 0-1.643 4.872 569.385 569.385 0 0 0-5.826 18.621 1002.63 1002.63 0 0 0-2.619 8.985c-.919 3.233-1.642 6.641-2.808 9.759-.112.299-.603.23-.54-.13.649-3.096 1.44-6.153 2.373-9.162Z"/>
  <path fill="#263238" d="M306.002 252.014a18.984 18.984 0 0 1 2.38 6.465c0 .061-.078.092-.099 0a58.277 58.277 0 0 0-2.576-6.342c-.098-.123.183-.284.295-.123Zm11.772 15.029a16.266 16.266 0 0 1 5.918-2.176c.056 0 .091.077 0 .1-.955.437-1.952.766-2.913 1.141-.962.376-1.917.897-2.893 1.264a.154.154 0 0 1-.101-.029.176.176 0 0 1-.066-.09.196.196 0 0 1 .055-.21Zm3.314-18.047a11.874 11.874 0 0 1 1.909-1.287.095.095 0 0 1 .075-.014.1.1 0 0 1 .062.049.114.114 0 0 1 .012.081.103.103 0 0 1-.044.068c-.585.507-1.212.954-1.874 1.333-.119.076-.26-.146-.14-.23Z"/>
  <path fill="#407BFF" d="M276.195 282.8c4.752 1.532 9.533 2.956 14.286 4.481.414.138 8.424-16.661 5.538-25.317a27.012 27.012 0 0 0-16.146-16.729c-3.39-1.256-7.56-2.298-11.147-1.448-3.188.766-5.441 3.616-6.473 6.894-1.404 4.443-.941 9.751-.175 14.286.614 4.262 2.227 8.277 4.682 11.659 2.513 3.27 5.735 4.971 9.435 6.174Z"/>
  <path fill="#263238" d="M269.308 266.828a60.254 60.254 0 0 0 9.316 4.007 37.29 37.29 0 0 1 6.22 2.458c-2.001-4.887-4.212-9.666-6.543-14.4-3.075-.973-6.318-2.482-8.614-4.857a.142.142 0 0 1-.044-.096.15.15 0 0 1 .03-.103.13.13 0 0 1 .089-.049.12.12 0 0 1 .094.034c2.534 1.953 5.328 3.125 8.129 4.443a508.16 508.16 0 0 0-1.923-3.83c-.176-.353.266-.705.484-.36a112.56 112.56 0 0 1 6.753 12.37 61.71 61.71 0 0 0 .492-11.336.074.074 0 0 1-.003-.036.093.093 0 0 1 .012-.033.068.068 0 0 1 .025-.023.062.062 0 0 1 .064 0c.01.005.019.013.025.023.007.01.011.021.013.033a.11.11 0 0 1-.003.036c.595 4.13.557 8.338-.112 12.455a149.66 149.66 0 0 1 4.549 11.114c.54-2.259 1.242-4.488 1.712-6.771.725-3.256.962-6.619.702-9.958 0-.1.12-.107.134 0 .845 6.192.156 12.519-1.994 18.323.793 2.298 1.552 4.542 2.247 6.817a147.082 147.082 0 0 1 6.318 36.002.232.232 0 0 1-.06.157.194.194 0 0 1-.144.065.194.194 0 0 1-.144-.065.232.232 0 0 1-.06-.157 192.533 192.533 0 0 0-7.076-35.558 169.913 169.913 0 0 0-4.71-13.221c-2.808-.904-5.616-2.129-8.361-3.171-2.745-1.042-5.448-2.198-7.722-4.129-.091-.076.007-.237.105-.184Z"/>
  <path fill="#263238" d="M264.879 261.972c2.906 1.134 5.658 2.712 8.564 3.83.133.054.056.291-.084.26-3.068-.697-6.115-1.731-8.593-3.929-.112-.084.007-.222.113-.161Zm23.727-6.894c0-.168.197-.26.239-.092.8 2.926 1.348 6.029.576 9.016 0 .115-.204.123-.211 0-.133-2.995.014-5.921-.604-8.924Zm-12.018-6.718a8.306 8.306 0 0 1 1.257 4.972c0 .107-.169.176-.197 0-.351-1.67-.941-3.195-1.404-4.819a.23.23 0 0 1 .03-.126.202.202 0 0 1 .092-.084.18.18 0 0 1 .119-.01c.04.01.076.034.103.067Z"/>
  <path fill="#407BFF" d="M332.748 290.207c-1.404 4.826-4.704 11.49-9.947 11.551-3.398 0-6.824-.406-10.229-.46-3.65-.061-7.3-.053-10.944.184-.295 0 .435-11.919 9.203-17.733 2.457-1.631 5.462-2.144 8.249-2.803a35.248 35.248 0 0 1 9.744-1.111c2.014.092 3.692.559 4.408 2.804.716 2.244.162 5.277-.484 7.568Z"/>
  <path fill="#263238" d="M328.957 284.186a118.283 118.283 0 0 0-6.423 2.022 23.63 23.63 0 0 1 1.769-1.876c.919-.835 1.93-1.532 2.913-2.23.084-.061.035-.237-.07-.191-2.075.94-3.867 2.495-5.174 4.489-2.66.942-5.3 1.976-7.841 3.117a28.863 28.863 0 0 0-5.026 2.881 22.415 22.415 0 0 1 1.818-3.447c1.165-1.647 2.737-2.567 4.261-3.731a.143.143 0 0 0 .061-.091.156.156 0 0 0-.016-.112.138.138 0 0 0-.083-.067.13.13 0 0 0-.103.017 12.545 12.545 0 0 0-4.216 3.244 13.887 13.887 0 0 0-2.649 4.83 30.617 30.617 0 0 0-4.914 4.933c-5.806 7.193-10.376 16.76-10.39 26.519 0 .237.344.299.386.061 1.487-9.572 5.309-18.532 11.064-25.937.414-.528.842-1.026 1.271-1.532a37.197 37.197 0 0 1 4.794-.39c1.867 0 3.721.299 5.581.467 3.061.268 6.444.314 9.203-1.371a.135.135 0 0 0 .06-.076.153.153 0 0 0-.003-.099.137.137 0 0 0-.064-.072.12.12 0 0 0-.091-.006c-6.15 2.444-12.636-.651-18.778.804 2.642-2.746 5.739-4.919 9.126-6.403l.568-.245c3.952.513 8.122 1.639 11.969.237a.098.098 0 0 0 .058-.048.117.117 0 0 0 .009-.078.103.103 0 0 0-.044-.063.088.088 0 0 0-.072-.01c-3.721 1.011-7.287-.261-10.951-.46 3.994-1.7 8.066-3.064 12.074-4.734.281-.138.288-.475-.077-.352Z"/>
  <path fill="#263238" d="M330.698 288.414a49.899 49.899 0 0 1-5.749.475c-.042 0-.056.077 0 .085 1.935.393 3.93.256 5.805-.399.077-.03.035-.176-.056-.161Zm-12.987-4.136a9.443 9.443 0 0 0-2.843 2.152c-.105.1.035.299.141.207.484-.383.982-.766 1.481-1.095a14.8 14.8 0 0 0 1.404-.958c.112-.115-.028-.398-.183-.306Z"/>
  <path fill="#407BFF" d="M286.753 299.812c.063.154-.148.307-.232.138a.182.182 0 0 1-.133.092 81.688 81.688 0 0 1-10.713 2.045c-2.899.276-6.24.452-8.782-1.378-3.439-2.49-5.7-9.146-3.84-13.375 2.198-5.017 8.825-2.298 12.152-.505 5.119 2.726 9.204 7.318 11.548 12.983Z"/>
  <path fill="#263238" d="M289.322 302.133a34.612 34.612 0 0 0-6.395-5.316c-1.668-2.88-3.879-5.34-6.486-7.215-.127-.092-.232.122-.12.222a31.11 31.11 0 0 1 5.469 6.273 58.283 58.283 0 0 0-8.031-3.983c-.982-1.997-2.481-3.636-4.31-4.711-.036 0-.078 0-.043.062a18.903 18.903 0 0 1 3.897 4.458 141.834 141.834 0 0 0-4.914-1.877c-.148-.054-.204.191-.064.253 2.935 1.248 5.925 2.566 8.832 4.083a31.161 31.161 0 0 1-10.692 0 .07.07 0 0 0-.054.012.086.086 0 0 0-.032.048.092.092 0 0 0 .004.059.08.08 0 0 0 .04.041 19.367 19.367 0 0 0 11.344.192 51.24 51.24 0 0 1 5.378 3.286 12.2 12.2 0 0 0-4.346.391c-2.506.634-5.072.95-7.645.942-.098 0-.119.168 0 .184 4.43.835 8.621-1.364 13.016-.766a34.611 34.611 0 0 1 4.577 4.075c2.741 2.991 4.998 6.466 6.676 10.28 1.846 4.105 2.85 8.426 4.345 12.7a.155.155 0 0 0 .065.094.131.131 0 0 0 .107.017.143.143 0 0 0 .086-.071.164.164 0 0 0 .016-.117c-1.313-8.426-5.132-17.656-10.72-23.616Z"/>
  <path fill="#263238" d="M275.949 290.651a5.48 5.48 0 0 0-1.137-1.532 4.398 4.398 0 0 0-1.306-1.065c-.042 0-.07.046-.042.077.365.452.87.766 1.264 1.21.393.444.702.942 1.116 1.371.01.007.022.01.034.011a.07.07 0 0 0 .06-.035.094.094 0 0 0 .011-.037Zm-7.308 2.597c-.66-.176-1.355-.161-2.021-.314a18.012 18.012 0 0 1-1.966-.636.075.075 0 0 0-.085.052.083.083 0 0 0-.002.056.084.084 0 0 0 .031.045 6.104 6.104 0 0 0 4.043 1.027.125.125 0 0 0 .074-.115.123.123 0 0 0-.021-.07.105.105 0 0 0-.053-.045Z"/>
  <path fill="#455A64" d="m310.403 310.988-.723 8.963-2.45 30.249h-21.713l-3.067-30.249-.906-8.963h28.859Z"/>
  <path fill="#263238" d="m310.403 310.988-.723 8.963h-27.23l-.906-8.963h28.859Z"/>
  <path fill="#455A64" d="M312.551 308.545h-33.155v7.269h33.155v-7.269Z"/>
</svg>
