<svg xmlns="http://www.w3.org/2000/svg" width="25" height="20" fill="none" viewBox="0 0 29 26">
  <path fill="#fff" d="M27.349 13.988H8.388l5.803-6.393c.272-.3.402-.685.363-1.073a1.435 1.435 0 0 0-.57-.994 1.7 1.7 0 0 0-1.17-.333 1.65 1.65 0 0 0-1.085.523l-7.993 8.798c-.054.07-.102.143-.144.22 0 .073 0 .117-.112.19-.073.169-.11.348-.112.528.001.181.04.36.112.528 0 .074 0 .118.112.19.042.077.09.15.143.22l7.994 8.799c.15.165.339.298.552.39.212.09.444.138.68.137a1.69 1.69 0 0 0 1.022-.337 1.5 1.5 0 0 0 .394-.445 1.351 1.351 0 0 0 .113-1.12 1.434 1.434 0 0 0-.299-.502L8.388 16.92h18.961c.424 0 .83-.155 1.13-.43.3-.275.469-.648.469-1.037 0-.389-.169-.761-.468-1.036-.3-.275-.707-.43-1.131-.43Z"/>
</svg>
