<svg xmlns="http://www.w3.org/2000/svg" width="30" height="30" fill="none" viewBox="0 0 40 40">
  <circle cx="20" cy="20" r="20" fill="#252C3D"/>
  <path fill="#fff" d="M29.863 19.126h-7.915v-6.505a.997.997 0 0 0-.386-.767 1.477 1.477 0 0 0-.933-.317c-.35 0-.685.114-.933.317a.997.997 0 0 0-.386.767v6.505h-7.914c-.35 0-.686.114-.933.318a.997.997 0 0 0-.387.766c0 .288.14.564.387.767.247.203.583.318.933.318h7.914V27.8a1 1 0 0 0 .386.767c.248.203.583.317.933.317.35 0 .685-.114.933-.317a.997.997 0 0 0 .386-.767v-6.505h7.915c.35 0 .685-.115.932-.318a.997.997 0 0 0 .387-.767.997.997 0 0 0-.387-.766 1.476 1.476 0 0 0-.932-.318Z"/>
</svg>
